SplineFontDB: 3.0
FontName: Oswald-MediumItalic
FullName: Oswald MediumItalic
FamilyName: Oswald
Weight: Medium
Copyright: Copyright (c) 2010-13 by Vernon Adams
Version: 3.0
ItalicAngle: 0
UnderlinePosition: -67
UnderlineWidth: 35
Ascent: 1638
Descent: 410
sfntRevision: 0x00030000
LayerCount: 2
Layer: 0 1 "Back"  1
Layer: 1 1 "Fore"  0
XUID: [1021 913 -2060267417 13633072]
FSType: 0
OS2Version: 4
OS2_WeightWidthSlopeOnly: 0
OS2_UseTypoMetrics: 1
CreationTime: 1372545452
ModificationTime: 1372717042
PfmFamily: 17
TTFWeight: 500
TTFWidth: 5
LineGap: 0
VLineGap: 0
Panose: 2 0 6 3 0 0 0 0 0 0
OS2TypoAscent: 2233
OS2TypoAOffset: 0
OS2TypoDescent: -548
OS2TypoDOffset: 0
OS2TypoLinegap: 0
OS2WinAscent: 2233
OS2WinAOffset: 0
OS2WinDescent: 548
OS2WinDOffset: 0
HheadAscent: 2233
HheadAOffset: 0
HheadDescent: -548
HheadDOffset: 0
OS2SubXSize: 1331
OS2SubYSize: 1433
OS2SubXOff: 0
OS2SubYOff: 286
OS2SupXSize: 1331
OS2SupYSize: 1433
OS2SupXOff: 0
OS2SupYOff: 983
OS2StrikeYSize: 102
OS2StrikeYPos: 530
OS2Vendor: 'newt'
OS2CodePages: 20000097.00000000
OS2UnicodeRanges: a00002ef.4000204b.00000000.00000000
Lookup: 258 0 0 "'kern' Horizontal Kerning lookup 0"  {"'kern' Horizontal Kerning lookup 0 per glyph data 0"  "'kern' Horizontal Kerning lookup 0 kerning class 1"  } ['kern' ('DFLT' <'dflt' > 'cyrl' <'dflt' > 'latn' <'dflt' > ) ]
Lookup: 260 0 0 "'mark' Mark Positioning lookup 1"  {"'mark' Mark Positioning lookup 1 subtable"  } ['mark' ('DFLT' <'dflt' > 'cyrl' <'dflt' > 'grek' <'dflt' > 'latn' <'dflt' > ) ]
MarkAttachClasses: 1
DEI: 91125
KernClass2: 44 59 "'kern' Horizontal Kerning lookup 0 kerning class 1" 
 89 A Agrave Aacute Acircumflex Atilde Adieresis Aring Abreve Amacron Aogonek uni0200 uni0202
 9 B uni1E02
 16 D Dcaron uni1E0A
 94 E Egrave Eacute Ecircumflex Edieresis Ebreve Ecaron Edotaccent Emacron Eogonek uni0204 uni0206
 9 F uni1E1E
 52 G Gbreve Gcircumflex Gcommaaccent Gdotaccent uni01F4
 14 K Kcommaaccent
 28 L Lacute Lcaron Lcommaaccent
 9 P uni1E56

StartChar: .notdef
Encoding: 65536 -1 0
Width: 748
Flags: W
LayerCount: 2
UndoRedoHistory
Layer: 1
Undoes
EndUndoes
Redoes
EndRedoes
EndUndoRedoHistory
Fore
SplineSet
136 68 m 1,0,-1
 544 68 l 1,1,-1
 544 1297 l 1,2,-1
 136 1297 l 1,3,-1
 136 68 l 1,0,-1
68 0 m 1,4,-1
 68 1365 l 1,5,-1
 612 1365 l 1,6,-1
 612 0 l 1,7,-1
 68 0 l 1,4,-1
EndSplineSet
EndChar

StartChar: exclam
Encoding: 33 33 4
Width: 465
GlyphClass: 2
Flags: W
LayerCount: 2
UndoRedoHistory
Layer: 1
Undoes
EndUndoes
Redoes
EndRedoes
EndUndoRedoHistory
Fore
SplineSet
45 0 m 1,0,-1
 73 266 l 1,1,-1
 340 266 l 1,2,-1
 312 0 l 1,3,-1
 45 0 l 1,0,-1
171 380 m 1,4,-1
 221 1656 l 1,5,-1
 494 1656 l 1,6,-1
 267 380 l 1,7,-1
 171 380 l 1,4,-1
EndSplineSet
EndChar

StartChar: quotedbl
Encoding: 34 34 5
Width: 767
GlyphClass: 2
Flags: W
LayerCount: 2
UndoRedoHistory
Layer: 1
Undoes
EndUndoes
Redoes
EndRedoes
EndUndoRedoHistory
Fore
SplineSet
197 1105 m 1,0,-1
 255 1658 l 1,1,-1
 494 1658 l 1,2,-1
 334 1105 l 1,3,-1
 197 1105 l 1,0,-1
535 1105 m 1,4,-1
 593 1658 l 1,5,-1
 832 1658 l 1,6,-1
 672 1105 l 1,7,-1
 535 1105 l 1,4,-1
EndSplineSet
EndChar

StartChar: numbersign
Encoding: 35 35 6
Width: 1039
GlyphClass: 2
Flags: W
LayerCount: 2
UndoRedoHistory
Layer: 1
Undoes
EndUndoes
Redoes
EndRedoes
EndUndoRedoHistory
Fore
SplineSet
41 0 m 1,0,-1
 177 577 l 1,1,-1
 83 577 l 1,2,-1
 106 766 l 1,3,-1
 225 766 l 1,4,-1
 271 965 l 1,5,-1
 128 965 l 1,6,-1
 149 1156 l 1,7,-1
 320 1156 l 1,8,-1
 440 1658 l 1,9,-1
 670 1658 l 1,10,-1
 551 1156 l 1,11,-1
 721 1156 l 1,12,-1
 841 1658 l 1,13,-1
 1070 1658 l 1,14,-1
 950 1156 l 1,15,-1
 1039 1156 l 1,16,-1
 1017 965 l 1,17,-1
 902 965 l 1,18,-1
 854 766 l 1,19,-1
 995 766 l 1,20,-1
 973 577 l 1,21,-1
 807 577 l 1,22,-1
 670 0 l 1,23,-1
 440 0 l 1,24,-1
 577 577 l 1,25,-1
 407 577 l 1,26,-1
 270 0 l 1,27,-1
 41 0 l 1,0,-1
453 766 m 1,28,-1
 625 766 l 1,29,-1
 672 965 l 1,30,-1
 501 965 l 1,31,-1
 453 766 l 1,28,-1
EndSplineSet
EndChar

StartChar: dollar
Encoding: 36 36 7
Width: 1010
GlyphClass: 2
Flags: W
LayerCount: 2
UndoRedoHistory
Layer: 1
Undoes
EndUndoes
Redoes
EndRedoes
EndUndoRedoHistory
Fore
SplineSet
428 -178 m 1,0,-1
 444 -19 l 1,1,2
 64 -6 64 -6 64 423 c 0,3,4
 64 453 64 453 66 484 c 1,5,-1
 331 540 l 1,6,7
 328 500 328 500 328 465 c 0,8,9
 328 208 328 208 488 208 c 0,10,11
 559 208 559 208 598 250.5 c 128,-1,12
 637 293 637 293 644 367 c 1,13,14
 646 387 646 387 646 406 c 0,15,16
 646 454 646 454 632 494 c 0,17,18
 612 552 612 552 584 587 c 128,-1,19
 556 622 556 622 500 677 c 2,20,-1
 297 872 l 2,21,22
 211 955 211 955 174 1045 c 0,23,24
 148 1109 148 1109 148 1196 c 0,25,26
 148 1231 148 1231 152 1270 c 1,27,28
 171 1454 171 1454 286.5 1559.5 c 128,-1,29
 402 1665 402 1665 587 1676 c 1,30,-1
 602 1827 l 1,31,-1
 687 1827 l 1,32,-1
 671 1675 l 1,33,34
 767 1668 767 1668 832.5 1631.5 c 128,-1,35
 898 1595 898 1595 931.5 1532 c 0,36,37
 966 1468 966 1468 978 1396 c 0,38,39
 989 1334 989 1334 988 1256 c 0,40,41
 988 1243 988 1243 988 1230 c 1,42,-1
 729 1178 l 1,43,44
 733 1212 733 1212 733 1244 c 0,45,46
 733 1265 733 1265 731 1286 c 0,47,48
 727 1337 727 1337 715 1376 c 128,-1,49
 703 1415 703 1415 671 1436 c 0,50,51
 643 1454 643 1454 600 1454 c 0,52,53
 594 1454 594 1454 588 1454 c 0,54,55
 518 1450 518 1450 477 1409 c 128,-1,56
 436 1368 436 1368 429 1298 c 0,57,58
 427 1279 427 1279 427 1261 c 0,59,60
 427 1206 427 1206 446 1168 c 0,61,62
 471 1117 471 1117 530 1059 c 1,63,-1
 734 865 l 1,64,65
 836 764 836 764 890 650 c 0,66,67
 931 563 931 563 932 454 c 0,68,69
 932 421 932 421 928 386 c 0,70,71
 910 220 910 220 801 110.5 c 128,-1,72
 692 1 692 1 529 -17 c 1,73,-1
 512 -178 l 1,74,-1
 428 -178 l 1,0,-1
EndSplineSet
EndChar

StartChar: percent
Encoding: 37 37 8
Width: 1971
GlyphClass: 2
Flags: W
LayerCount: 2
UndoRedoHistory
Layer: 1
Undoes
EndUndoes
Redoes
EndRedoes
EndUndoRedoHistory
Fore
SplineSet
487 939 m 0,0,1
 526 939 526 939 552.5 955.5 c 128,-1,2
 579 972 579 972 594.5 1005.5 c 128,-1,3
 610 1039 610 1039 617.5 1075 c 128,-1,4
 625 1111 625 1111 631 1164 c 2,5,-1
 641 1258 l 1,6,7
 646 1315 646 1315 646 1357 c 0,8,9
 646 1364 646 1364 646 1371 c 0,10,11
 645 1418 645 1418 620 1444.5 c 128,-1,12
 595 1471 595 1471 542 1471 c 0,13,14
 510 1471 510 1471 486.5 1460.5 c 128,-1,15
 463 1450 463 1450 448.5 1433.5 c 128,-1,16
 434 1417 434 1417 424.5 1387 c 128,-1,17
 415 1357 415 1357 410 1329 c 128,-1,18
 405 1301 405 1301 401 1257 c 2,19,-1
 391 1163 l 2,20,21
 386 1108 386 1108 386 1064 c 0,22,23
 386 1057 386 1057 386 1049 c 0,24,25
 387 999 387 999 412 969 c 128,-1,26
 437 939 437 939 487 939 c 0,0,1
467 747 m 0,27,28
 278 746 278 746 204 852 c 0,29,30
 146 933 146 933 147 1075 c 0,31,32
 147 1117 147 1117 152 1164 c 2,33,-1
 162 1254 l 1,34,35
 184 1464 184 1464 277 1564.5 c 128,-1,36
 370 1665 370 1665 563 1665 c 0,37,38
 754 1666 754 1666 828 1568 c 0,39,40
 885 1492 885 1492 886 1350 c 0,41,42
 886 1309 886 1309 881 1263 c 2,43,-1
 870 1159 l 2,44,45
 848 953 848 953 752 850 c 128,-1,46
 656 747 656 747 467 747 c 0,27,28
1502 185 m 0,47,48
 1541 185 1541 185 1567.5 201.5 c 128,-1,49
 1594 218 1594 218 1609 251.5 c 128,-1,50
 1624 285 1624 285 1631.5 320.5 c 128,-1,51
 1639 356 1639 356 1645 410 c 2,52,-1
 1655 504 l 1,53,54
 1661 565 1661 565 1661 610 c 0,55,56
 1660 614 1660 614 1660 617 c 0,57,58
 1660 664 1660 664 1635.5 690.5 c 128,-1,59
 1611 717 1611 717 1558 717 c 0,60,61
 1525 717 1525 717 1501.5 706.5 c 128,-1,62
 1478 696 1478 696 1463.5 679.5 c 128,-1,63
 1449 663 1449 663 1439.5 633 c 128,-1,64
 1430 603 1430 603 1425 575 c 128,-1,65
 1420 547 1420 547 1416 503 c 2,66,-1
 1406 409 l 1,67,68
 1402 356 1402 356 1402 312 c 0,69,70
 1402 303 1402 303 1402 295 c 0,71,72
 1403 245 1403 245 1427.5 215 c 128,-1,73
 1452 185 1452 185 1502 185 c 0,47,48
1481 -7 m 0,74,75
 1294 -8 1294 -8 1220 98 c 0,76,77
 1162 180 1162 180 1161 324 c 0,78,79
 1161 364 1161 364 1166 410 c 1,80,-1
 1176 500 l 1,81,82
 1198 710 1198 710 1291.5 810.5 c 128,-1,83
 1385 911 1385 911 1578 911 c 0,84,85
 1770 912 1770 912 1844 814 c 0,86,87
 1901 739 1901 739 1900 599 c 0,88,89
 1900 557 1900 557 1895 509 c 2,90,-1
 1884 405 l 2,91,92
 1862 199 1862 199 1766 96 c 128,-1,93
 1670 -7 1670 -7 1481 -7 c 0,74,75
605 0 m 1,94,-1
 1243 1658 l 1,95,-1
 1441 1658 l 1,96,-1
 803 0 l 1,97,-1
 605 0 l 1,94,-1
EndSplineSet
EndChar

StartChar: ampersand
Encoding: 38 38 9
Width: 1214
GlyphClass: 2
Flags: W
LayerCount: 2
UndoRedoHistory
Layer: 1
Undoes
EndUndoes
Redoes
EndRedoes
EndUndoRedoHistory
Fore
SplineSet
416 -20 m 0,0,1
 250 -20 250 -20 162 84 c 0,2,3
 88 172 88 172 88 305 c 0,4,5
 88 331 88 331 91 358 c 1,6,7
 107 504 107 504 186.5 629 c 128,-1,8
 266 754 266 754 379 849 c 1,9,10
 367 879 367 879 335.5 952.5 c 128,-1,11
 304 1026 304 1026 288 1068.5 c 128,-1,12
 272 1111 272 1111 260 1178 c 0,13,14
 252 1221 252 1221 251 1261 c 0,15,16
 251 1284 251 1284 254 1306 c 0,17,18
 271 1469 271 1469 378 1573 c 128,-1,19
 485 1677 485 1677 647 1677 c 0,20,21
 803 1676 803 1676 896 1588 c 0,22,23
 975 1512 975 1512 975 1393 c 0,24,25
 975 1372 975 1372 973 1350 c 0,26,27
 969 1308 969 1308 958 1268 c 128,-1,28
 947 1228 947 1228 926 1187.5 c 128,-1,29
 905 1147 905 1147 888.5 1117 c 128,-1,30
 872 1087 872 1087 838 1046 c 128,-1,31
 804 1005 804 1005 788 985.5 c 128,-1,32
 772 966 772 966 730 925 c 128,-1,33
 688 884 688 884 678 874.5 c 128,-1,34
 668 865 668 865 626 825 c 1,35,-1
 804 462 l 1,36,37
 861 559 861 559 903 787 c 1,38,-1
 1138 787 l 1,39,40
 1123 653 1123 653 1069 527 c 128,-1,41
 1015 401 1015 401 943 300 c 1,42,43
 963 271 963 271 1001.5 249 c 128,-1,44
 1040 227 1040 227 1082 226 c 1,45,-1
 1056 -19 l 1,46,47
 1030 -23 1030 -23 1017 -23 c 0,48,49
 993 -23 993 -23 971 -18.5 c 128,-1,50
 949 -14 949 -14 927.5 -2.5 c 128,-1,51
 906 9 906 9 891 17.5 c 128,-1,52
 876 26 876 26 855.5 45.5 c 128,-1,53
 835 65 835 65 826.5 73.5 c 128,-1,54
 818 82 818 82 796 105.5 c 128,-1,55
 774 129 774 129 770 134 c 1,56,57
 707 62 707 62 615.5 21 c 128,-1,58
 524 -20 524 -20 416 -20 c 0,0,1
440 187 m 0,59,60
 549 187 549 187 638 289 c 1,61,62
 465 642 465 642 461 659 c 1,63,64
 414 600 414 600 381.5 522 c 128,-1,65
 349 444 349 444 341 367 c 0,66,67
 339 348 339 348 339 330 c 0,68,69
 339 275 339 275 358 237 c 0,70,71
 383 187 383 187 440 187 c 0,59,60
554 971 m 1,72,73
 611 1042 611 1042 664 1153 c 128,-1,74
 717 1264 717 1264 727 1356 c 0,75,76
 728 1365 728 1365 728 1374 c 0,77,78
 728 1412 728 1412 706 1436 c 0,79,80
 679 1466 679 1466 631 1467 c 0,81,82
 578 1467 578 1467 544.5 1422 c 128,-1,83
 511 1377 511 1377 505 1312 c 0,84,85
 503 1291 503 1291 503 1267 c 128,-1,86
 503 1243 503 1243 504.5 1222 c 128,-1,87
 506 1201 506 1201 509.5 1175 c 128,-1,88
 513 1149 513 1149 516.5 1130 c 128,-1,89
 520 1111 520 1111 526 1085 c 128,-1,90
 532 1059 532 1059 535.5 1044 c 128,-1,91
 539 1029 539 1029 545.5 1004.5 c 128,-1,92
 552 980 552 980 554 971 c 1,72,73
EndSplineSet
EndChar

StartChar: quotesingle
Encoding: 39 39 10
Width: 670
GlyphClass: 2
Flags: W
LayerCount: 2
UndoRedoHistory
Layer: 1
Undoes
EndUndoes
Redoes
EndRedoes
EndUndoRedoHistory
Fore
SplineSet
209 1105 m 1,0,-1
 267 1658 l 1,1,-1
 501 1658 l 1,2,-1
 350 1105 l 1,3,-1
 209 1105 l 1,0,-1
EndSplineSet
EndChar

StartChar: parenleft
Encoding: 40 40 11
Width: 648
GlyphClass: 2
Flags: W
LayerCount: 2
UndoRedoHistory
Layer: 1
Undoes
EndUndoes
Redoes
EndRedoes
EndUndoRedoHistory
Fore
SplineSet
492 -396 m 1,0,1
 404 -396 404 -396 337.5 -364 c 128,-1,2
 271 -332 271 -332 230 -282 c 128,-1,3
 189 -232 189 -232 165 -147.5 c 0,4,5
 141 -62 141 -62 132 16 c 0,6,7
 125 77 125 77 125 162 c 0,8,9
 126 186 126 186 126 212 c 0,10,11
 128 330 128 330 135 417.5 c 128,-1,12
 142 505 142 505 156 635 c 0,13,14
 170 768 170 768 182 858 c 128,-1,15
 194 948 194 948 216 1067 c 128,-1,16
 238 1186 238 1186 264 1265 c 128,-1,17
 290 1344 290 1344 331.5 1428.5 c 128,-1,18
 373 1513 373 1513 424.5 1562 c 128,-1,19
 476 1611 476 1611 548.5 1643 c 128,-1,20
 621 1675 621 1675 710 1675 c 1,21,-1
 690 1488 l 1,22,23
 664 1488 664 1488 640.5 1477 c 128,-1,24
 617 1466 617 1466 597.5 1442 c 128,-1,25
 578 1418 578 1418 561 1389 c 128,-1,26
 544 1360 544 1360 529.5 1316 c 128,-1,27
 515 1272 515 1272 503 1229.5 c 128,-1,28
 491 1187 491 1187 480 1127.5 c 128,-1,29
 469 1068 469 1068 461 1017 c 128,-1,30
 453 966 453 966 444 895 c 128,-1,31
 435 824 435 824 428.5 768 c 128,-1,32
 422 712 422 712 414 635 c 0,33,34
 404 538 404 538 397.5 468 c 128,-1,35
 391 398 391 398 385 313 c 0,36,37
 378 228 378 228 378 168 c 0,38,39
 378 156 378 156 378 144 c 0,40,41
 378 95 378 95 380 44 c 0,42,43
 382 -20 382 -20 392 -62 c 128,-1,44
 402 -104 402 -104 417 -139.5 c 128,-1,45
 432 -175 432 -175 456 -192 c 128,-1,46
 480 -209 480 -209 512 -209 c 1,47,-1
 492 -396 l 1,0,1
EndSplineSet
EndChar

StartChar: parenright
Encoding: 41 41 12
Width: 585
GlyphClass: 2
Flags: W
LayerCount: 2
UndoRedoHistory
Layer: 1
Undoes
EndUndoes
Redoes
EndRedoes
EndUndoRedoHistory
Fore
SplineSet
-27 -396 m 1,0,-1
 -7 -208 l 1,1,2
 25 -208 25 -208 52.5 -191 c 128,-1,3
 80 -174 80 -174 102.5 -138 c 128,-1,4
 125 -102 125 -102 143.5 -59.5 c 128,-1,5
 162 -17 162 -17 177.5 47.5 c 128,-1,6
 193 112 193 112 205 172 c 128,-1,7
 217 232 217 232 229 317 c 128,-1,8
 241 402 241 402 249.5 471.5 c 128,-1,9
 258 541 258 541 268 638 c 0,10,11
 276 716 276 716 281.5 772 c 128,-1,12
 287 828 287 828 293 899 c 128,-1,13
 299 970 299 970 301.5 1021 c 128,-1,14
 304 1072 304 1072 306 1132 c 0,15,16
 306 1150 306 1150 306 1166 c 0,17,18
 306 1204 306 1204 304 1232 c 0,19,20
 300 1274 300 1274 295 1318 c 128,-1,21
 290 1362 290 1362 279 1390.5 c 128,-1,22
 268 1419 268 1419 253.5 1442.5 c 128,-1,23
 239 1466 239 1466 218 1477 c 128,-1,24
 197 1488 197 1488 171 1488 c 1,25,-1
 190 1675 l 1,26,27
 279 1675 279 1675 345 1643.5 c 128,-1,28
 411 1612 411 1612 452 1563 c 128,-1,29
 493 1514 493 1514 517 1429.5 c 0,30,31
 540 1344 540 1344 550 1266 c 0,32,33
 557 1206 557 1206 558 1124 c 0,34,35
 558 1098 558 1098 557 1069 c 0,36,37
 554 950 554 950 547 861 c 128,-1,38
 540 772 540 772 526 638 c 0,39,40
 516 539 516 539 507 468.5 c 128,-1,41
 498 398 498 398 483.5 304.5 c 128,-1,42
 469 211 469 211 453.5 144 c 128,-1,43
 438 77 438 77 413.5 -1 c 128,-1,44
 389 -79 389 -79 360.5 -133 c 128,-1,45
 332 -187 332 -187 293 -240 c 128,-1,46
 254 -293 254 -293 208 -325 c 128,-1,47
 162 -357 162 -357 102 -376.5 c 128,-1,48
 42 -396 42 -396 -27 -396 c 1,0,-1
EndSplineSet
EndChar

StartChar: asterisk
Encoding: 42 42 13
Width: 843
GlyphClass: 2
Flags: W
LayerCount: 2
UndoRedoHistory
Layer: 1
Undoes
EndUndoes
Redoes
EndRedoes
EndUndoRedoHistory
Fore
SplineSet
379 940 m 1,0,-1
 228 1037 l 1,1,-1
 404 1254 l 1,2,-1
 183 1343 l 1,3,-1
 264 1511 l 1,4,-1
 468 1394 l 1,5,-1
 469 1657 l 1,6,-1
 675 1657 l 1,7,-1
 621 1394 l 1,8,-1
 850 1512 l 1,9,-1
 896 1342 l 1,10,-1
 655 1253 l 1,11,-1
 788 1037 l 1,12,-1
 614 940 l 1,13,-1
 522 1181 l 1,14,-1
 379 940 l 1,0,-1
EndSplineSet
EndChar

StartChar: plus
Encoding: 43 43 14
Width: 887
GlyphClass: 2
Flags: W
LayerCount: 2
UndoRedoHistory
Layer: 1
Undoes
EndUndoes
Redoes
EndRedoes
EndUndoRedoHistory
Fore
SplineSet
337 424 m 1,0,-1
 372 759 l 1,1,-1
 82 759 l 1,2,-1
 102 944 l 1,3,-1
 392 944 l 1,4,-1
 426 1275 l 1,5,-1
 620 1275 l 1,6,-1
 586 944 l 1,7,-1
 884 944 l 1,8,-1
 864 759 l 1,9,-1
 566 759 l 1,10,-1
 531 424 l 1,11,-1
 337 424 l 1,0,-1
EndSplineSet
EndChar

StartChar: comma
Encoding: 44 44 15
Width: 424
GlyphClass: 2
Flags: W
LayerCount: 2
UndoRedoHistory
Layer: 1
Undoes
EndUndoes
Redoes
EndRedoes
EndUndoRedoHistory
Fore
SplineSet
43 -281 m 1,0,-1
 23 -176 l 1,1,2
 84 -161 84 -161 125.5 -115 c 128,-1,3
 167 -69 167 -69 174 0 c 1,4,-1
 30 0 l 1,5,-1
 59 267 l 1,6,-1
 329 267 l 1,7,-1
 303 17 l 2,8,9
 277 -232 277 -232 43 -281 c 1,0,-1
EndSplineSet
EndChar

StartChar: hyphen
Encoding: 45 45 16
Width: 717
GlyphClass: 2
Flags: W
LayerCount: 2
UndoRedoHistory
Layer: 1
Undoes
EndUndoes
Redoes
EndRedoes
EndUndoRedoHistory
Fore
SplineSet
121 551 m 1,0,-1
 141 743 l 1,1,-1
 631 743 l 1,2,-1
 611 551 l 1,3,-1
 121 551 l 1,0,-1
EndSplineSet
EndChar

StartChar: period
Encoding: 46 46 17
Width: 432
GlyphClass: 2
Flags: W
LayerCount: 2
UndoRedoHistory
Layer: 1
Undoes
EndUndoes
Redoes
EndRedoes
EndUndoRedoHistory
Fore
SplineSet
44 0 m 1,0,-1
 73 274 l 1,1,-1
 340 274 l 1,2,-1
 311 0 l 1,3,-1
 44 0 l 1,0,-1
EndSplineSet
EndChar

StartChar: slash
Encoding: 47 47 18
Width: 806
GlyphClass: 2
Flags: W
LayerCount: 2
UndoRedoHistory
Layer: 1
Undoes
EndUndoes
Redoes
EndRedoes
EndUndoRedoHistory
Fore
SplineSet
22 0 m 1,0,-1
 661 1658 l 1,1,-1
 857 1658 l 1,2,-1
 217 0 l 1,3,-1
 22 0 l 1,0,-1
EndSplineSet
EndChar

StartChar: zero
Encoding: 48 48 19
Width: 1054
GlyphClass: 2
Flags: W
LayerCount: 2
UndoRedoHistory
Layer: 1
Undoes
EndUndoes
Redoes
EndRedoes
EndUndoRedoHistory
Fore
SplineSet
500 216 m 0,0,1
 649 216 649 216 674 466 c 1,2,-1
 749 1185 l 1,3,4
 754 1219 754 1219 754 1254 c 0,5,6
 754 1264 754 1264 754 1274 c 0,7,8
 752 1320 752 1320 743 1357 c 128,-1,9
 734 1394 734 1394 705 1417 c 128,-1,10
 676 1440 676 1440 629 1440 c 128,-1,11
 582 1440 582 1440 548 1418 c 128,-1,12
 514 1396 514 1396 496 1355 c 128,-1,13
 478 1314 478 1314 469 1276 c 128,-1,14
 460 1238 460 1238 454 1185 c 2,15,-1
 379 466 l 2,16,17
 375 427 375 427 375 395 c 0,18,19
 375 216 375 216 500 216 c 0,0,1
475 -22 m 0,20,21
 266 -22 266 -22 170 110 c 0,22,23
 92 217 92 217 93 381 c 0,24,25
 93 420 93 420 97 462 c 2,26,-1
 173 1189 l 2,27,28
 197 1417 197 1417 318 1547 c 128,-1,29
 439 1677 439 1677 654 1677 c 0,30,31
 867 1677 867 1677 961 1546 c 0,32,33
 1036 1442 1036 1442 1036 1277 c 0,34,35
 1036 1235 1036 1235 1031 1189 c 2,36,-1
 955 462 l 2,37,38
 932 242 932 242 807.5 110 c 128,-1,39
 683 -22 683 -22 475 -22 c 0,20,21
EndSplineSet
EndChar

StartChar: one
Encoding: 49 49 20
Width: 1055
GlyphClass: 2
Flags: W
LayerCount: 2
UndoRedoHistory
Layer: 1
Undoes
EndUndoes
Redoes
EndRedoes
EndUndoRedoHistory
Fore
SplineSet
403 0 m 1,0,-1
 543 1339 l 1,1,-1
 265 1270 l 1,2,-1
 287 1479 l 1,3,4
 550 1559 550 1559 642 1658 c 1,5,-1
 855 1658 l 1,6,-1
 681 0 l 1,7,-1
 403 0 l 1,0,-1
EndSplineSet
EndChar

StartChar: two
Encoding: 50 50 21
Width: 1055
GlyphClass: 2
Flags: W
LayerCount: 2
UndoRedoHistory
Layer: 1
Undoes
EndUndoes
Redoes
EndRedoes
EndUndoRedoHistory
Fore
SplineSet
49 0 m 1,0,-1
 70 196 l 1,1,-1
 543 832 l 2,2,3
 559 854 559 854 591.5 897 c 128,-1,4
 624 940 624 940 641 962.5 c 128,-1,5
 658 985 658 985 683 1024 c 128,-1,6
 708 1063 708 1063 721.5 1093 c 128,-1,7
 735 1123 735 1123 747.5 1163.5 c 128,-1,8
 760 1204 760 1204 764 1245 c 0,9,10
 767 1273 767 1273 767 1296 c 0,11,12
 767 1359 767 1359 746 1397 c 0,13,14
 719 1446 719 1446 651 1446 c 0,15,16
 647 1446 647 1446 643 1446 c 0,17,18
 487 1439 487 1439 458 1176 c 1,19,-1
 451 1108 l 1,20,-1
 177 1108 l 1,21,-1
 185 1178 l 1,22,23
 210 1413 210 1413 326.5 1545.5 c 128,-1,24
 443 1678 443 1678 665 1678 c 0,25,26
 874 1678 874 1678 968 1564 c 0,27,28
 1045 1472 1045 1472 1045 1318 c 0,29,30
 1045 1282 1045 1282 1041 1243 c 0,31,32
 1038 1212 1038 1212 1031.5 1181 c 128,-1,33
 1025 1150 1025 1150 1019 1125.5 c 128,-1,34
 1013 1101 1013 1101 999.5 1070.5 c 128,-1,35
 986 1040 986 1040 979 1022.5 c 128,-1,36
 972 1005 972 1005 952.5 973.5 c 128,-1,37
 933 942 933 942 925.5 929.5 c 128,-1,38
 918 917 918 917 893.5 883.5 c 128,-1,39
 869 850 869 850 862.5 841 c 128,-1,40
 856 832 856 832 827.5 795 c 128,-1,41
 799 758 799 758 794 751 c 2,42,-1
 393 225 l 1,43,-1
 892 225 l 1,44,-1
 868 0 l 1,45,-1
 49 0 l 1,0,-1
EndSplineSet
EndChar

StartChar: three
Encoding: 51 51 22
Width: 1055
GlyphClass: 2
Flags: W
LayerCount: 2
UndoRedoHistory
Layer: 1
Undoes
EndUndoes
Redoes
EndRedoes
EndUndoRedoHistory
Fore
SplineSet
474 -22 m 0,0,1
 255 -22 255 -22 162 100 c 0,2,3
 87 197 87 197 87 359 c 0,4,5
 87 399 87 399 92 443 c 2,6,-1
 98 502 l 1,7,-1
 376 502 l 1,8,9
 372 466 372 466 372 457 c 0,10,11
 369 415 369 415 369 380 c 0,12,13
 369 350 369 350 371 325 c 0,14,15
 376 270 376 270 407.5 239.5 c 128,-1,16
 439 209 439 209 501 209 c 0,17,18
 541 209 541 209 570 222.5 c 128,-1,19
 599 236 599 236 617.5 257 c 128,-1,20
 636 278 636 278 648.5 314.5 c 128,-1,21
 661 351 661 351 667.5 386.5 c 128,-1,22
 674 422 674 422 680 475 c 0,23,24
 684 515 684 515 684 548 c 0,25,26
 684 588 684 588 678 620 c 0,27,28
 667 678 667 678 627 714 c 128,-1,29
 587 750 587 750 514 754 c 0,30,31
 508 755 508 755 473 755 c 1,32,-1
 499 993 l 1,33,-1
 535 993 l 1,34,35
 645 997 645 997 695.5 1051 c 128,-1,36
 746 1105 746 1105 760 1231 c 1,37,38
 763 1262 763 1262 763 1289 c 0,39,40
 763 1358 763 1358 743 1398 c 0,41,42
 715 1454 715 1454 629 1453 c 0,43,44
 541 1453 541 1453 503.5 1392 c 128,-1,45
 466 1331 466 1331 451 1213 c 1,46,-1
 445 1159 l 1,47,-1
 167 1159 l 1,48,-1
 175 1234 l 2,49,50
 197 1445 197 1445 321 1561.5 c 128,-1,51
 445 1678 445 1678 651 1678 c 0,52,53
 860 1678 860 1678 960 1564 c 0,54,55
 1041 1471 1041 1471 1041 1312 c 0,56,57
 1041 1277 1041 1277 1037 1239 c 0,58,59
 1022 1099 1022 1099 951 1005.5 c 128,-1,60
 880 912 880 912 775 882 c 1,61,62
 878 844 878 844 926 743 c 0,63,64
 961 669 961 669 961 561 c 0,65,66
 961 522 961 522 957 479 c 0,67,68
 945 363 945 363 911.5 273.5 c 128,-1,69
 878 184 878 184 820.5 116.5 c 128,-1,70
 763 49 763 49 675.5 13.5 c 128,-1,71
 588 -22 588 -22 474 -22 c 0,0,1
EndSplineSet
EndChar

StartChar: four
Encoding: 52 52 23
Width: 1055
GlyphClass: 2
Flags: W
LayerCount: 2
UndoRedoHistory
Layer: 1
Undoes
EndUndoes
Redoes
EndRedoes
EndUndoRedoHistory
Fore
SplineSet
509 0 m 1,0,-1
 552 408 l 1,1,-1
 66 408 l 1,2,-1
 94 670 l 1,3,-1
 618 1659 l 1,4,-1
 947 1659 l 1,5,-1
 840 642 l 1,6,-1
 1013 642 l 1,7,-1
 989 408 l 1,8,-1
 816 408 l 1,9,-1
 773 0 l 1,10,-1
 509 0 l 1,0,-1
336 642 m 1,11,-1
 576 642 l 1,12,-1
 650 1347 l 1,13,-1
 336 642 l 1,11,-1
EndSplineSet
EndChar

StartChar: five
Encoding: 53 53 24
Width: 1055
GlyphClass: 2
Flags: W
LayerCount: 2
UndoRedoHistory
Layer: 1
Undoes
EndUndoes
Redoes
EndRedoes
EndUndoRedoHistory
Fore
SplineSet
481 -22 m 0,0,1
 360 -22 360 -22 280 13 c 128,-1,2
 200 48 200 48 162 113.5 c 0,3,4
 124 180 124 180 112 272 c 0,5,6
 106 314 106 314 106 360 c 0,7,8
 106 416 106 416 114 479 c 1,9,-1
 388 479 l 1,10,11
 382 426 382 426 380 388 c 0,12,13
 380 380 380 380 380 372 c 0,14,15
 380 342 380 342 384 311 c 0,16,17
 390 271 390 271 404 247 c 128,-1,18
 418 223 418 223 445.5 207.5 c 128,-1,19
 473 192 473 192 514 192 c 0,20,21
 546 192 546 192 571 203 c 128,-1,22
 596 214 596 214 613.5 229 c 128,-1,23
 631 244 631 244 645 273.5 c 128,-1,24
 659 303 659 303 667.5 328 c 128,-1,25
 676 353 676 353 683.5 398.5 c 128,-1,26
 691 444 691 444 695 475.5 c 128,-1,27
 699 507 699 507 705 563 c 1,28,29
 714 664 714 664 714 732 c 0,30,31
 714 802 714 802 682 842 c 0,32,33
 650 883 650 883 581 883 c 0,34,35
 522 883 522 883 476.5 843 c 128,-1,36
 431 803 431 803 407 741 c 1,37,-1
 168 741 l 1,38,-1
 276 1658 l 1,39,-1
 1026 1658 l 1,40,-1
 999 1401 l 1,41,-1
 488 1401 l 1,42,-1
 430 1006 l 1,43,44
 468 1043 468 1043 528.5 1065 c 128,-1,45
 589 1087 589 1087 661 1090 c 0,46,47
 671 1090 671 1090 680 1090 c 0,48,49
 857 1090 857 1090 928 964 c 0,50,51
 984 864 984 864 984 702 c 0,52,53
 984 648 984 648 978 588 c 0,54,55
 966 478 966 478 946.5 392.5 c 128,-1,56
 927 307 927 307 890 226.5 c 128,-1,57
 853 146 853 146 800 93.5 c 128,-1,58
 747 41 747 41 666 9.5 c 128,-1,59
 585 -22 585 -22 481 -22 c 0,0,1
EndSplineSet
EndChar

StartChar: six
Encoding: 54 54 25
Width: 1055
GlyphClass: 2
Flags: W
LayerCount: 2
UndoRedoHistory
Layer: 1
Undoes
EndUndoes
Redoes
EndRedoes
EndUndoRedoHistory
Fore
SplineSet
488 -20 m 0,0,1
 377 -20 377 -20 297.5 22.5 c 128,-1,2
 218 65 218 65 175 140.5 c 128,-1,3
 132 216 132 216 118 314 c 0,4,5
 110 368 110 368 110 427 c 0,6,7
 110 476 110 476 115 529 c 2,8,-1
 173 1085 l 2,9,10
 184 1188 184 1188 204.5 1272 c 128,-1,11
 225 1356 225 1356 263.5 1433 c 128,-1,12
 302 1510 302 1510 355.5 1562.5 c 128,-1,13
 409 1615 409 1615 488 1646 c 128,-1,14
 567 1677 567 1677 666 1677 c 0,15,16
 1044 1677 1044 1677 1044 1324 c 0,17,18
 1044 1294 1044 1294 1041 1261 c 0,19,20
 1041 1258 1041 1258 1040 1248.5 c 128,-1,21
 1039 1239 1039 1239 1039 1237 c 1,22,-1
 769 1237 l 1,23,24
 772 1272 772 1272 772 1302 c 0,25,26
 772 1368 772 1368 756 1404 c 0,27,28
 732 1458 732 1458 644 1458 c 0,29,30
 563 1458 563 1458 519 1376.5 c 128,-1,31
 475 1295 475 1295 455 1112 c 2,32,-1
 434 910 l 1,33,34
 508 1017 508 1017 670 1019 c 0,35,36
 673 1019 673 1019 676 1019 c 0,37,38
 983 1019 983 1019 983 656 c 0,39,40
 983 604 983 604 977 544 c 0,41,42
 964 420 964 420 931 321 c 128,-1,43
 898 222 898 222 840.5 143.5 c 128,-1,44
 783 65 783 65 693.5 22.5 c 128,-1,45
 604 -20 604 -20 488 -20 c 0,0,1
513 198 m 0,46,47
 557 198 557 198 590 220 c 128,-1,48
 623 242 623 242 643 284 c 128,-1,49
 663 326 663 326 675 374.5 c 128,-1,50
 687 423 687 423 693 487 c 0,51,52
 697 523 697 523 699 543 c 0,53,54
 701 564 701 564 703 596 c 0,55,56
 704 618 704 618 704 633 c 0,57,58
 704 640 704 640 704 646 c 0,59,60
 703 664 703 664 700.5 690 c 128,-1,61
 698 716 698 716 692.5 731 c 128,-1,62
 687 746 687 746 677 763 c 128,-1,63
 667 780 667 780 653.5 788.5 c 128,-1,64
 640 797 640 797 620.5 803 c 128,-1,65
 601 809 601 809 576 809 c 0,66,67
 524 809 524 809 482 780 c 128,-1,68
 440 751 440 751 414 710 c 1,69,-1
 387 460 l 1,70,71
 384 424 384 424 384 391 c 0,72,73
 384 361 384 361 386 334 c 0,74,75
 390 276 390 276 422.5 237 c 128,-1,76
 455 198 455 198 513 198 c 0,46,47
EndSplineSet
EndChar

StartChar: seven
Encoding: 55 55 26
Width: 1055
GlyphClass: 2
Flags: W
LayerCount: 2
UndoRedoHistory
Layer: 1
Undoes
EndUndoes
Redoes
EndRedoes
EndUndoRedoHistory
Fore
SplineSet
255 0 m 1,0,-1
 726 1444 l 1,1,-1
 246 1444 l 1,2,-1
 268 1658 l 1,3,-1
 1021 1658 l 1,4,-1
 1005 1475 l 1,5,-1
 524 0 l 1,6,-1
 255 0 l 1,0,-1
EndSplineSet
EndChar

StartChar: eight
Encoding: 56 56 27
Width: 1054
GlyphClass: 2
Flags: W
LayerCount: 2
UndoRedoHistory
Layer: 1
Undoes
EndUndoes
Redoes
EndRedoes
EndUndoRedoHistory
Fore
SplineSet
483 -21 m 0,0,1
 367 -21 367 -21 286.5 14 c 128,-1,2
 206 49 206 49 163 116.5 c 128,-1,3
 120 184 120 184 106 274 c 0,4,5
 99 320 99 320 100 373 c 0,6,7
 100 424 100 424 106 481 c 0,8,9
 137 762 137 762 342 874 c 1,10,11
 207 983 207 983 207 1179 c 0,12,13
 207 1208 207 1208 210 1239 c 1,14,15
 231 1447 231 1447 346 1562 c 128,-1,16
 461 1677 461 1677 662 1677 c 0,17,18
 862 1677 862 1677 952 1562 c 0,19,20
 1023 1471 1023 1471 1024 1320 c 0,21,22
 1024 1281 1024 1281 1019 1239 c 1,23,24
 991 997 991 997 811 874 c 1,25,26
 969 773 969 773 969 552 c 0,27,28
 969 518 969 518 965 481 c 1,29,30
 917 -21 917 -21 483 -21 c 0,0,1
506 192 m 128,-1,32
 556 192 556 192 592 215.5 c 128,-1,33
 628 239 628 239 648 282.5 c 128,-1,34
 668 326 668 326 678 368.5 c 128,-1,35
 688 411 688 411 694 468 c 0,36,37
 698 510 698 510 698 545 c 0,38,39
 698 744 698 744 564 744 c 0,40,41
 403 744 403 744 373 468 c 1,42,43
 367 432 367 432 367 396 c 0,44,45
 367 382 367 382 368 368 c 0,46,47
 371 318 371 318 381.5 279.5 c 128,-1,48
 392 241 392 241 424 216.5 c 128,-1,31
 456 192 456 192 506 192 c 128,-1,32
589 988 m 0,49,50
 727 988 727 988 753 1252 c 0,51,52
 756 1278 756 1278 756 1301 c 0,53,54
 756 1363 756 1363 736 1406 c 0,55,56
 710 1465 710 1465 640 1465 c 0,57,58
 567 1465 567 1465 528 1406.5 c 128,-1,59
 489 1348 489 1348 479 1252 c 0,60,61
 474 1207 474 1207 474 1170 c 0,62,63
 474 988 474 988 589 988 c 0,49,50
EndSplineSet
EndChar

StartChar: nine
Encoding: 57 57 28
Width: 1055
GlyphClass: 2
Flags: W
LayerCount: 2
UndoRedoHistory
Layer: 1
Undoes
EndUndoes
Redoes
EndRedoes
EndUndoRedoHistory
Fore
SplineSet
471 -20 m 0,0,1
 94 -20 94 -20 94 333 c 0,2,3
 94 366 94 366 97 401 c 0,4,5
 97 403 97 403 98 410.5 c 128,-1,6
 99 418 99 418 100 420 c 1,7,-1
 370 420 l 1,8,9
 366 383 366 383 366 353 c 0,10,11
 366 290 366 290 383 254 c 0,12,13
 408 200 408 200 495 200 c 0,14,15
 576 200 576 200 618.5 280.5 c 128,-1,16
 661 361 661 361 681 546 c 2,17,-1
 702 747 l 1,18,19
 629 641 629 641 467 639 c 0,20,21
 464 639 464 639 461 639 c 0,22,23
 156 639 156 639 156 1008 c 0,24,25
 156 1061 156 1061 162 1121 c 0,26,27
 175 1244 175 1244 209 1342.5 c 128,-1,28
 243 1441 243 1441 300.5 1517.5 c 128,-1,29
 358 1594 358 1594 447 1635.5 c 128,-1,30
 536 1677 536 1677 650 1677 c 0,31,32
 761 1677 761 1677 841 1635.5 c 128,-1,33
 921 1594 921 1594 963.5 1520 c 128,-1,34
 1006 1446 1006 1446 1021 1350 c 0,35,36
 1029 1296 1029 1296 1029 1236 c 0,37,38
 1029 1188 1029 1188 1024 1136 c 2,39,-1
 965 573 l 2,40,41
 954 471 954 471 933 386.5 c 128,-1,42
 912 302 912 302 873.5 224.5 c 128,-1,43
 835 147 835 147 781.5 94.5 c 128,-1,44
 728 42 728 42 649 11 c 128,-1,45
 570 -20 570 -20 471 -20 c 0,0,1
564 849 m 0,46,47
 659 849 659 849 723 948 c 1,48,-1
 749 1197 l 2,49,50
 753 1238 753 1238 753 1273 c 0,51,52
 753 1460 753 1460 627 1460 c 0,53,54
 543 1460 543 1460 503 1383 c 128,-1,55
 463 1306 463 1306 447 1170 c 1,56,57
 443 1127 443 1127 441 1107 c 0,58,59
 439 1088 439 1088 437 1050 c 0,60,61
 436 1031 436 1031 436 1017 c 0,62,63
 436 1004 436 1004 437 994 c 0,64,65
 439 976 439 976 443 947.5 c 128,-1,66
 447 919 447 919 456.5 905 c 128,-1,67
 466 891 466 891 480 876 c 128,-1,68
 494 861 494 861 515 855 c 128,-1,69
 536 849 536 849 564 849 c 0,46,47
EndSplineSet
EndChar

StartChar: colon
Encoding: 58 58 29
Width: 467
GlyphClass: 2
Flags: W
LayerCount: 2
UndoRedoHistory
Layer: 1
Undoes
EndUndoes
Redoes
EndRedoes
EndUndoRedoHistory
Fore
SplineSet
92 171 m 1,0,-1
 120 436 l 1,1,-1
 387 436 l 1,2,-1
 359 171 l 1,3,-1
 92 171 l 1,0,-1
163 843 m 1,4,-1
 192 1109 l 1,5,-1
 458 1109 l 1,6,-1
 430 843 l 1,7,-1
 163 843 l 1,4,-1
EndSplineSet
EndChar

StartChar: semicolon
Encoding: 59 59 30
Width: 497
GlyphClass: 2
Flags: W
LayerCount: 2
UndoRedoHistory
Layer: 1
Undoes
EndUndoes
Redoes
EndRedoes
EndUndoRedoHistory
Fore
SplineSet
99 -156 m 1,0,-1
 79 -50 l 1,1,2
 212 -44 212 -44 228 96 c 1,3,-1
 84 96 l 1,4,-1
 112 363 l 1,5,-1
 383 363 l 1,6,-1
 356 113 l 1,7,8
 329 -155 329 -155 99 -156 c 1,0,-1
167 896 m 1,9,-1
 196 1170 l 1,10,-1
 462 1170 l 1,11,-1
 434 896 l 1,12,-1
 167 896 l 1,9,-1
EndSplineSet
EndChar

StartChar: less
Encoding: 60 60 31
Width: 787
GlyphClass: 2
Flags: W
LayerCount: 2
UndoRedoHistory
Layer: 1
Undoes
EndUndoes
Redoes
EndRedoes
EndUndoRedoHistory
Fore
SplineSet
631 114 m 1,0,-1
 68 538 l 1,1,-1
 94 785 l 1,2,-1
 746 1210 l 1,3,-1
 719 952 l 1,4,-1
 282 663 l 1,5,-1
 658 371 l 1,6,-1
 631 114 l 1,0,-1
EndSplineSet
EndChar

StartChar: equal
Encoding: 61 61 32
Width: 877
GlyphClass: 2
Flags: W
LayerCount: 2
UndoRedoHistory
Layer: 1
Undoes
EndUndoes
Redoes
EndRedoes
EndUndoRedoHistory
Fore
SplineSet
126 545 m 1,0,-1
 145 733 l 1,1,-1
 786 733 l 1,2,-1
 766 545 l 1,3,-1
 126 545 l 1,0,-1
165 921 m 1,4,-1
 185 1109 l 1,5,-1
 825 1109 l 1,6,-1
 805 921 l 1,7,-1
 165 921 l 1,4,-1
EndSplineSet
EndChar

StartChar: greater
Encoding: 62 62 33
Width: 787
GlyphClass: 2
Flags: W
LayerCount: 2
UndoRedoHistory
Layer: 1
Undoes
EndUndoes
Redoes
EndRedoes
EndUndoRedoHistory
Fore
SplineSet
77 114 m 1,0,-1
 104 371 l 1,1,-1
 542 663 l 1,2,-1
 165 952 l 1,3,-1
 192 1210 l 1,4,-1
 757 785 l 1,5,-1
 731 538 l 1,6,-1
 77 114 l 1,0,-1
EndSplineSet
EndChar

StartChar: question
Encoding: 63 63 34
Width: 999
GlyphClass: 2
Flags: W
LayerCount: 2
UndoRedoHistory
Layer: 1
Undoes
EndUndoes
Redoes
EndRedoes
EndUndoRedoHistory
Fore
SplineSet
297 424 m 1,0,-1
 324 682 l 1,1,2
 408 751 408 751 470 810.5 c 128,-1,3
 532 870 532 870 594 945 c 128,-1,4
 656 1020 656 1020 692.5 1102 c 128,-1,5
 729 1184 729 1184 736 1268 c 0,6,7
 737 1280 737 1280 737 1291 c 0,8,9
 738 1355 738 1355 704 1396 c 0,10,11
 664 1444 664 1444 593 1444 c 0,12,13
 521 1444 521 1444 480.5 1399 c 128,-1,14
 440 1354 440 1354 441 1281 c 1,15,16
 440 1269 440 1269 442 1238 c 128,-1,17
 444 1207 444 1207 446 1195 c 1,18,-1
 189 1144 l 1,19,20
 181 1216 181 1216 181 1244 c 0,21,22
 181 1250 181 1250 181 1254 c 1,23,24
 180 1266 180 1266 180 1278 c 0,25,26
 180 1453 180 1453 290 1564 c 0,27,28
 408 1682 408 1682 616 1682 c 0,29,30
 826 1682 826 1682 926 1571 c 0,31,32
 1009 1479 1009 1479 1009 1325 c 0,33,34
 1009 1293 1009 1293 1005 1258 c 0,35,36
 997 1181 997 1181 968 1106 c 128,-1,37
 939 1031 939 1031 900 970.5 c 128,-1,38
 861 910 861 910 802 844.5 c 128,-1,39
 743 779 743 779 690 730.5 c 128,-1,40
 637 682 637 682 564 621 c 1,41,-1
 544 424 l 1,42,-1
 297 424 l 1,0,-1
242 0 m 1,43,-1
 270 268 l 1,44,-1
 542 268 l 1,45,-1
 513 0 l 1,46,-1
 242 0 l 1,43,-1
EndSplineSet
EndChar

StartChar: at
Encoding: 64 64 35
Width: 1910
GlyphClass: 2
Flags: W
LayerCount: 2
UndoRedoHistory
Layer: 1
Undoes
EndUndoes
Redoes
EndRedoes
EndUndoRedoHistory
Fore
SplineSet
890 -276 m 0,0,1
 482 -276 482 -276 276 -42 c 0,2,3
 119 137 119 137 119 430 c 0,4,5
 119 519 119 519 134 619 c 1,6,7
 168 870 168 870 261.5 1067.5 c 128,-1,8
 355 1265 355 1265 495 1394 c 128,-1,9
 635 1523 635 1523 817 1590.5 c 128,-1,10
 999 1658 999 1658 1212 1658 c 0,11,12
 1323 1658 1323 1658 1418.5 1635 c 128,-1,13
 1514 1612 1514 1612 1585 1570 c 128,-1,14
 1656 1528 1656 1528 1712.5 1469.5 c 128,-1,15
 1769 1411 1769 1411 1802.5 1340 c 128,-1,16
 1836 1269 1836 1269 1857 1187.5 c 128,-1,17
 1878 1106 1878 1106 1878 1018.5 c 128,-1,18
 1878 931 1878 931 1867 839 c 0,19,20
 1852 719 1852 719 1805.5 606 c 128,-1,21
 1759 493 1759 493 1687.5 400.5 c 128,-1,22
 1616 308 1616 308 1511 251.5 c 128,-1,23
 1406 195 1406 195 1286 195 c 0,24,25
 1196 195 1196 195 1137 241.5 c 128,-1,26
 1078 288 1078 288 1074 369 c 1,27,28
 1047 304 1047 304 994.5 258 c 128,-1,29
 942 212 942 212 867 205 c 0,30,31
 850 203 850 203 834 203 c 0,32,33
 748 203 748 203 688 249 c 0,34,35
 616 303 616 303 592 393 c 0,36,37
 575 453 575 453 575 521 c 0,38,39
 575 556 575 556 579 594 c 0,40,41
 589 677 589 677 618.5 766 c 128,-1,42
 648 855 648 855 697.5 940.5 c 128,-1,43
 747 1026 747 1026 810 1093.5 c 128,-1,44
 873 1161 873 1161 956 1202.5 c 128,-1,45
 1039 1244 1039 1244 1128 1244 c 0,46,47
 1194 1244 1194 1244 1257 1158 c 1,48,-1
 1285 1228 l 1,49,-1
 1492 1228 l 1,50,-1
 1308 499 l 2,51,52
 1303 477 1303 477 1300.5 466.5 c 128,-1,53
 1298 456 1298 456 1294 434.5 c 128,-1,54
 1290 413 1290 413 1290.5 401.5 c 128,-1,55
 1291 390 1291 390 1293.5 376 c 128,-1,56
 1296 362 1296 362 1304.5 355 c 128,-1,57
 1313 348 1313 348 1326 347 c 0,58,59
 1332 347 1332 347 1338 347 c 0,60,61
 1448 347 1448 347 1544 482 c 0,62,63
 1646 625 1646 625 1672 823 c 1,64,65
 1683 887 1683 887 1683 948 c 0,66,67
 1683 968 1683 968 1682 989 c 0,68,69
 1677 1070 1677 1070 1659.5 1141.5 c 128,-1,70
 1642 1213 1642 1213 1601 1273 c 128,-1,71
 1560 1333 1560 1333 1502.5 1376.5 c 128,-1,72
 1445 1420 1445 1420 1361 1444 c 128,-1,73
 1277 1468 1277 1468 1173 1468 c 0,74,75
 953 1468 953 1468 779.5 1360 c 128,-1,76
 606 1252 606 1252 500.5 1063.5 c 128,-1,77
 395 875 395 875 361 626 c 1,78,79
 347 537 347 537 347 459 c 0,80,81
 347 238 347 238 456 100 c 0,82,83
 603 -86 603 -86 936 -85 c 0,84,85
 1125 -85 1125 -85 1326 -24 c 1,86,-1
 1346 -209 l 1,87,88
 1099 -276 1099 -276 890 -276 c 0,0,1
945 403 m 0,89,90
 985 410 985 410 1027 447.5 c 128,-1,91
 1069 485 1069 485 1091 556 c 1,92,-1
 1208 1028 l 1,93,94
 1197 1043 1197 1043 1160 1043 c 0,95,96
 1081 1043 1081 1043 1007.5 978.5 c 128,-1,97
 934 914 934 914 886 811 c 128,-1,98
 838 708 838 708 826 593 c 0,99,100
 823 570 823 570 823 550 c 0,101,102
 823 490 823 490 845 448 c 0,103,104
 869 401 869 401 923 401 c 0,105,106
 933 401 933 401 945 403 c 0,89,90
EndSplineSet
EndChar

StartChar: A
Encoding: 65 65 36
Width: 1058
GlyphClass: 2
Flags: W
AnchorPoint: "Anchor-0" 880 0 basechar 0
LayerCount: 2
UndoRedoHistory
Layer: 1
Undoes
EndUndoes
Redoes
EndRedoes
EndUndoRedoHistory
Fore
SplineSet
-12 0 m 1,0,-1
 501 1658 l 1,1,-1
 806 1658 l 1,2,-1
 971 0 l 1,3,-1
 695 0 l 1,4,-1
 667 388 l 1,5,-1
 376 388 l 1,6,-1
 266 0 l 1,7,-1
 -12 0 l 1,0,-1
429 583 m 1,8,-1
 656 583 l 1,9,-1
 614 1268 l 1,10,-1
 429 583 l 1,8,-1
EndSplineSet
EndChar

StartChar: B
Encoding: 66 66 37
Width: 1131
GlyphClass: 2
Flags: W
LayerCount: 2
UndoRedoHistory
Layer: 1
Undoes
EndUndoes
Redoes
EndRedoes
EndUndoRedoHistory
Fore
SplineSet
74 0 m 1,0,-1
 248 1658 l 1,1,-1
 652 1658 l 2,2,3
 767 1658 767 1658 850 1637 c 128,-1,4
 933 1616 933 1616 993.5 1568.5 c 0,5,6
 1054 1522 1054 1522 1078 1438 c 0,7,8
 1094 1383 1094 1383 1095 1314 c 0,9,10
 1095 1277 1095 1277 1090 1236 c 0,11,12
 1055 926 1055 926 810 892 c 1,13,14
 954 862 954 862 1016 762 c 0,15,16
 1063 685 1063 685 1062 561 c 0,17,18
 1062 523 1062 523 1058 480 c 1,19,20
 1035 246 1035 246 904 123 c 128,-1,21
 773 0 773 0 547 0 c 2,22,-1
 74 0 l 1,0,-1
392 209 m 1,23,-1
 506 209 l 2,24,25
 600 209 600 209 656 239 c 128,-1,26
 712 269 712 269 739 326.5 c 128,-1,27
 766 384 766 384 776 482 c 0,28,29
 779 516 779 516 779 546 c 0,30,31
 779 648 779 648 739 702 c 0,32,33
 687 770 687 770 548 771 c 2,34,-1
 451 771 l 1,35,-1
 392 209 l 1,23,-1
473 980 m 1,36,-1
 569 980 l 2,37,38
 704 980 704 980 761 1038 c 128,-1,39
 818 1096 818 1096 832 1233 c 0,40,41
 835 1258 835 1258 835 1279 c 0,42,43
 835 1308 835 1308 830 1330 c 0,44,45
 822 1370 822 1370 804 1393.5 c 128,-1,46
 786 1417 786 1417 748 1429.5 c 128,-1,47
 710 1442 710 1442 669 1446 c 128,-1,48
 628 1450 628 1450 563 1450 c 2,49,-1
 522 1450 l 1,50,-1
 473 980 l 1,36,-1
EndSplineSet
EndChar

StartChar: C
Encoding: 67 67 38
Width: 1097
GlyphClass: 2
Flags: W
AnchorPoint: "Anchor-1" 480 0 basechar 0
LayerCount: 2
UndoRedoHistory
Layer: 1
Undoes
EndUndoes
Redoes
EndRedoes
EndUndoRedoHistory
Fore
SplineSet
514 -20 m 0,0,1
 407 -20 407 -20 328 7 c 128,-1,2
 249 34 249 34 202 83 c 128,-1,3
 155 132 155 132 128.5 201.5 c 0,4,5
 102 272 102 272 98 356 c 0,6,7
 97 380 97 380 98 404 c 0,8,9
 98 468 98 468 104 538 c 1,10,-1
 165 1115 l 2,11,12
 179 1250 179 1250 212 1349 c 128,-1,13
 245 1448 245 1448 305 1524 c 128,-1,14
 365 1600 365 1600 462 1638.5 c 128,-1,15
 559 1677 559 1677 693 1677 c 0,16,17
 816 1677 816 1677 900 1644 c 128,-1,18
 984 1611 984 1611 1028 1547 c 0,19,20
 1072 1484 1072 1484 1086 1398 c 0,21,22
 1094 1352 1094 1352 1094 1297 c 0,23,24
 1094 1250 1094 1250 1088 1198 c 2,25,-1
 1073 1056 l 1,26,-1
 788 1056 l 1,27,-1
 803 1195 l 2,28,29
 811 1273 811 1273 811 1319 c 0,30,31
 811 1347 811 1347 808 1364 c 0,32,33
 792 1445 792 1445 704 1456 c 0,34,35
 689 1458 689 1458 671 1458 c 0,36,37
 624 1458 624 1458 590 1443 c 128,-1,38
 556 1428 556 1428 536 1405.5 c 128,-1,39
 516 1383 516 1383 502 1342.5 c 128,-1,40
 488 1302 488 1302 481.5 1266 c 128,-1,41
 475 1230 475 1230 469 1172 c 2,42,-1
 397 478 l 1,43,44
 391 424 391 424 391 381 c 0,45,46
 391 303 391 303 411 263 c 0,47,48
 442 200 442 200 539 200 c 0,49,50
 568 200 568 200 591 205 c 128,-1,51
 614 210 614 210 632 222 c 128,-1,52
 650 234 650 234 663 246 c 128,-1,53
 676 258 676 258 685.5 280.5 c 128,-1,54
 695 303 695 303 701.5 320.5 c 128,-1,55
 708 338 708 338 713.5 368.5 c 128,-1,56
 719 399 719 399 721.5 420 c 128,-1,57
 724 441 724 441 728 478 c 2,58,-1
 743 622 l 1,59,-1
 1027 622 l 1,60,-1
 1013 487 l 2,61,62
 1003 394 1003 394 982.5 319.5 c 128,-1,63
 962 245 962 245 923.5 180 c 128,-1,64
 885 115 885 115 830.5 72 c 128,-1,65
 776 29 776 29 696 4.5 c 128,-1,66
 616 -20 616 -20 514 -20 c 0,0,1
EndSplineSet
EndChar

StartChar: D
Encoding: 68 68 39
Width: 1126
GlyphClass: 2
Flags: W
LayerCount: 2
UndoRedoHistory
Layer: 1
Undoes
EndUndoes
Redoes
EndRedoes
EndUndoRedoHistory
Fore
SplineSet
392 208 m 1,0,-1
 481 208 l 2,1,2
 545 208 545 208 589 224 c 128,-1,3
 633 240 633 240 658 261.5 c 128,-1,4
 683 283 683 283 699.5 335 c 128,-1,5
 716 387 716 387 722 427 c 128,-1,6
 728 467 728 467 737 552 c 2,7,-1
 800 1148 l 2,8,9
 808 1217 808 1217 808 1269 c 0,10,11
 808 1296 808 1296 806 1320 c 0,12,13
 800 1386 800 1386 754.5 1416 c 128,-1,14
 709 1446 709 1446 607 1446 c 2,15,-1
 522 1446 l 1,16,-1
 392 208 l 1,0,-1
74 0 m 1,17,-1
 248 1658 l 1,18,-1
 631 1658 l 2,19,20
 780 1658 780 1658 877 1628 c 128,-1,21
 974 1598 974 1598 1028 1533 c 128,-1,22
 1082 1468 1082 1468 1098 1374 c 0,23,24
 1107 1324 1107 1324 1107 1261 c 0,25,26
 1107 1206 1107 1206 1100 1142 c 2,27,-1
 1037 544 l 2,28,29
 1022 402 1022 402 985.5 303 c 128,-1,30
 949 204 949 204 882.5 134.5 c 128,-1,31
 816 65 816 65 714.5 32.5 c 128,-1,32
 613 0 613 0 470 0 c 2,33,-1
 74 0 l 1,17,-1
EndSplineSet
EndChar

StartChar: E
Encoding: 69 69 40
Width: 869
GlyphClass: 2
Flags: W
AnchorPoint: "Anchor-0" 511 0 basechar 0
LayerCount: 2
UndoRedoHistory
Layer: 1
Undoes
EndUndoes
Redoes
EndRedoes
EndUndoRedoHistory
Fore
SplineSet
74 0 m 1,0,-1
 248 1658 l 1,1,-1
 937 1658 l 1,2,-1
 915 1448 l 1,3,-1
 522 1448 l 1,4,-1
 471 966 l 1,5,-1
 783 966 l 1,6,-1
 762 757 l 1,7,-1
 450 757 l 1,8,-1
 391 205 l 1,9,-1
 790 205 l 1,10,-1
 768 0 l 1,11,-1
 74 0 l 1,0,-1
EndSplineSet
EndChar

StartChar: F
Encoding: 70 70 41
Width: 835
GlyphClass: 2
Flags: W
LayerCount: 2
UndoRedoHistory
Layer: 1
Undoes
EndUndoes
Redoes
EndRedoes
EndUndoRedoHistory
Fore
SplineSet
74 0 m 1,0,-1
 248 1658 l 1,1,-1
 926 1658 l 1,2,-1
 905 1453 l 1,3,-1
 523 1453 l 1,4,-1
 471 964 l 1,5,-1
 775 964 l 1,6,-1
 753 756 l 1,7,-1
 449 756 l 1,8,-1
 370 0 l 1,9,-1
 74 0 l 1,0,-1
EndSplineSet
EndChar

StartChar: G
Encoding: 71 71 42
Width: 1136
GlyphClass: 2
Flags: W
LayerCount: 2
UndoRedoHistory
Layer: 1
Undoes
EndUndoes
Redoes
EndRedoes
EndUndoRedoHistory
Fore
SplineSet
484 -22 m 0,0,1
 365 -22 365 -22 283 17 c 128,-1,2
 201 56 201 56 158.5 130.5 c 0,3,4
 116 206 116 206 102 312 c 0,5,6
 95 362 95 362 95 417 c 0,7,8
 95 481 95 481 104 553 c 1,9,-1
 161 1092 l 2,10,11
 173 1207 173 1207 196 1295 c 128,-1,12
 219 1383 219 1383 259.5 1456.5 c 128,-1,13
 300 1530 300 1530 358.5 1577.5 c 128,-1,14
 417 1625 417 1625 500 1651 c 128,-1,15
 583 1677 583 1677 691 1677 c 0,16,17
 936 1676 936 1676 1030 1556 c 0,18,19
 1104 1462 1104 1462 1104 1291 c 0,20,21
 1104 1244 1104 1244 1098 1190 c 1,22,-1
 1089 1112 l 1,23,-1
 807 1112 l 1,24,-1
 815 1193 l 2,25,26
 822 1257 822 1257 822 1306 c 0,27,28
 822 1322 822 1322 821 1337 c 0,29,30
 818 1396 818 1396 783 1427 c 128,-1,31
 748 1458 748 1458 673 1458 c 0,32,33
 632 1458 632 1458 600.5 1448 c 128,-1,34
 569 1438 569 1438 548 1415.5 c 128,-1,35
 527 1393 527 1393 513 1369.5 c 128,-1,36
 499 1346 499 1346 489.5 1307 c 128,-1,37
 480 1268 480 1268 475.5 1237 c 128,-1,38
 471 1206 471 1206 466 1157 c 2,39,-1
 397 497 l 2,40,41
 391 444 391 444 391 401 c 0,42,43
 392 319 392 319 412 272 c 0,44,45
 442 201 442 201 548 201 c 0,46,47
 655 201 655 201 704 278.5 c 128,-1,48
 753 356 753 356 770 517 c 2,49,-1
 784 648 l 1,50,-1
 602 648 l 1,51,-1
 622 840 l 1,52,-1
 1071 840 l 1,53,-1
 982 0 l 1,54,-1
 791 0 l 1,55,-1
 787 171 l 1,56,57
 691 -22 691 -22 484 -22 c 0,0,1
EndSplineSet
EndChar

StartChar: H
Encoding: 72 72 43
Width: 1185
GlyphClass: 2
Flags: W
LayerCount: 2
UndoRedoHistory
Layer: 1
Undoes
EndUndoes
Redoes
EndRedoes
EndUndoRedoHistory
Fore
SplineSet
74 0 m 1,0,-1
 248 1658 l 1,1,-1
 544 1658 l 1,2,-1
 471 963 l 1,3,-1
 817 963 l 1,4,-1
 890 1658 l 1,5,-1
 1185 1658 l 1,6,-1
 1011 0 l 1,7,-1
 716 0 l 1,8,-1
 795 752 l 1,9,-1
 449 752 l 1,10,-1
 370 0 l 1,11,-1
 74 0 l 1,0,-1
EndSplineSet
EndChar

StartChar: I
Encoding: 73 73 44
Width: 557
GlyphClass: 2
Flags: W
AnchorPoint: "Anchor-0" 220 0 basechar 0
LayerCount: 2
UndoRedoHistory
Layer: 1
Undoes
EndUndoes
Redoes
EndRedoes
EndUndoRedoHistory
Fore
SplineSet
84 0 m 1,0,-1
 258 1658 l 1,1,-1
 549 1658 l 1,2,-1
 375 0 l 1,3,-1
 84 0 l 1,0,-1
EndSplineSet
EndChar

StartChar: J
Encoding: 74 74 45
Width: 662
GlyphClass: 2
Flags: W
AnchorPoint: "Anchor-2" 338 1800 basechar 0
LayerCount: 2
UndoRedoHistory
Layer: 1
Undoes
EndUndoes
Redoes
EndRedoes
EndUndoRedoHistory
Fore
SplineSet
-35 -35 m 1,0,-1
 -14 174 l 1,1,2
 -11 174 -11 174 -8 174 c 0,3,4
 121 174 121 174 169 214 c 0,5,6
 218 256 218 256 232 387 c 2,7,-1
 365 1658 l 1,8,-1
 660 1658 l 1,9,-1
 526 379 l 1,10,11
 513 270 513 270 487.5 195.5 c 128,-1,12
 462 121 462 121 414 67.5 c 128,-1,13
 366 14 366 14 290.5 -10.5 c 128,-1,14
 215 -35 215 -35 106 -35 c 2,15,-1
 -35 -35 l 1,0,-1
EndSplineSet
EndChar

StartChar: K
Encoding: 75 75 46
Width: 1077
GlyphClass: 2
Flags: W
LayerCount: 2
UndoRedoHistory
Layer: 1
Undoes
EndUndoes
Redoes
EndRedoes
EndUndoRedoHistory
Fore
SplineSet
74 0 m 1,0,-1
 248 1658 l 1,1,-1
 544 1658 l 1,2,-1
 468 933 l 1,3,-1
 875 1658 l 1,4,-1
 1156 1658 l 1,5,-1
 760 917 l 1,6,-1
 1017 0 l 1,7,-1
 723 0 l 1,8,-1
 514 784 l 1,9,-1
 441 671 l 1,10,-1
 370 0 l 1,11,-1
 74 0 l 1,0,-1
EndSplineSet
EndChar

StartChar: L
Encoding: 76 76 47
Width: 851
GlyphClass: 2
Flags: W
LayerCount: 2
UndoRedoHistory
Layer: 1
Undoes
EndUndoes
Redoes
EndRedoes
EndUndoRedoHistory
Fore
SplineSet
74 0 m 1,0,-1
 248 1658 l 1,1,-1
 544 1658 l 1,2,-1
 391 205 l 1,3,-1
 790 205 l 1,4,-1
 768 0 l 1,5,-1
 74 0 l 1,0,-1
EndSplineSet
EndChar

StartChar: M
Encoding: 77 77 48
Width: 1390
GlyphClass: 2
Flags: W
LayerCount: 2
UndoRedoHistory
Layer: 1
Undoes
EndUndoes
Redoes
EndRedoes
EndUndoRedoHistory
Fore
SplineSet
70 0 m 1,0,-1
 272 1658 l 1,1,-1
 574 1658 l 1,2,-1
 694 473 l 1,3,-1
 1070 1658 l 1,4,-1
 1366 1658 l 1,5,-1
 1220 0 l 1,6,-1
 995 0 l 1,7,-1
 1097 1147 l 1,8,-1
 733 0 l 1,9,-1
 561 0 l 1,10,-1
 437 1149 l 1,11,-1
 298 0 l 1,12,-1
 70 0 l 1,0,-1
EndSplineSet
EndChar

StartChar: N
Encoding: 78 78 49
Width: 1109
GlyphClass: 2
Flags: W
LayerCount: 2
UndoRedoHistory
Layer: 1
Undoes
EndUndoes
Redoes
EndRedoes
EndUndoRedoHistory
Fore
SplineSet
74 0 m 1,0,-1
 248 1658 l 1,1,-1
 451 1658 l 1,2,-1
 763 704 l 1,3,-1
 863 1658 l 1,4,-1
 1108 1658 l 1,5,-1
 934 0 l 1,6,-1
 742 0 l 1,7,-1
 430 1000 l 1,8,-1
 325 0 l 1,9,-1
 74 0 l 1,0,-1
EndSplineSet
EndChar

StartChar: O
Encoding: 79 79 50
Width: 1146
GlyphClass: 2
Flags: W
AnchorPoint: "Anchor-0" 581 0 basechar 0
LayerCount: 2
UndoRedoHistory
Layer: 1
Undoes
EndUndoes
Redoes
EndRedoes
EndUndoRedoHistory
Fore
SplineSet
543 200 m 0,0,1
 588 200 588 200 622 213.5 c 128,-1,2
 656 227 656 227 677 248 c 128,-1,3
 698 269 698 269 712.5 304 c 128,-1,4
 727 339 727 339 734.5 374 c 128,-1,5
 742 409 742 409 747 458 c 2,6,-1
 825 1206 l 1,7,8
 829 1251 829 1251 829 1289 c 0,9,10
 829 1314 829 1314 827 1337 c 0,11,12
 823 1393 823 1393 786 1425.5 c 128,-1,13
 749 1458 749 1458 676 1458 c 0,14,15
 620 1458 620 1458 582 1440.5 c 128,-1,16
 544 1423 544 1423 522.5 1386 c 128,-1,17
 501 1349 501 1349 490.5 1308 c 128,-1,18
 480 1267 480 1267 474 1206 c 2,19,-1
 396 458 l 2,20,21
 392 410 392 410 392 370 c 0,22,23
 392 348 392 348 393 326 c 0,24,25
 397 268 397 268 433.5 234 c 128,-1,26
 470 200 470 200 543 200 c 0,0,1
520 -20 m 0,27,28
 390 -20 390 -20 301.5 17 c 128,-1,29
 213 54 213 54 165.5 126.5 c 128,-1,30
 118 199 118 199 103 297 c 0,31,32
 95 348 95 348 95 407 c 0,33,34
 95 463 95 463 102 526 c 2,35,-1
 167 1139 l 1,36,37
 194 1405 194 1405 319 1541 c 128,-1,38
 444 1677 444 1677 699 1677 c 0,39,40
 954 1677 954 1677 1050 1540 c 0,41,42
 1125 1434 1125 1434 1124 1251 c 0,43,44
 1124 1198 1124 1198 1118 1139 c 2,45,-1
 1053 526 l 2,46,47
 1025 260 1025 260 899 120 c 128,-1,48
 773 -20 773 -20 520 -20 c 0,27,28
EndSplineSet
EndChar

StartChar: P
Encoding: 80 80 51
Width: 1049
GlyphClass: 2
Flags: W
LayerCount: 2
UndoRedoHistory
Layer: 1
Undoes
EndUndoes
Redoes
EndRedoes
EndUndoRedoHistory
Fore
SplineSet
74 0 m 1,0,-1
 248 1658 l 1,1,-1
 717 1658 l 2,2,3
 936 1658 936 1658 1026 1538 c 0,4,5
 1097 1444 1097 1444 1096 1283 c 0,6,7
 1096 1238 1096 1238 1091 1188 c 0,8,9
 1067 960 1067 960 940.5 852.5 c 128,-1,10
 814 745 814 745 605 745 c 2,11,-1
 448 745 l 1,12,-1
 370 0 l 1,13,-1
 74 0 l 1,0,-1
470 953 m 1,14,-1
 565 953 l 2,15,16
 696 953 696 953 747.5 1003.5 c 128,-1,17
 799 1054 799 1054 813 1190 c 1,18,19
 820 1246 820 1246 820 1290 c 0,20,21
 820 1320 820 1320 817 1342 c 0,22,23
 809 1400 809 1400 764 1424.5 c 128,-1,24
 719 1449 719 1449 619 1449 c 2,25,-1
 522 1449 l 1,26,-1
 470 953 l 1,14,-1
EndSplineSet
EndChar

StartChar: Q
Encoding: 81 81 52
Width: 1146
GlyphClass: 2
Flags: W
LayerCount: 2
UndoRedoHistory
Layer: 1
Undoes
EndUndoes
Redoes
EndRedoes
EndUndoRedoHistory
Fore
SplineSet
836 -343 m 1,0,1
 771 -300 771 -300 688 -204 c 128,-1,2
 605 -108 605 -108 555 -19 c 1,3,4
 544 -20 544 -20 520 -20 c 0,5,6
 390 -20 390 -20 301.5 17 c 128,-1,7
 213 54 213 54 165.5 126.5 c 128,-1,8
 118 199 118 199 103 297 c 0,9,10
 95 348 95 348 95 407 c 0,11,12
 95 463 95 463 102 526 c 2,13,-1
 167 1139 l 1,14,15
 194 1405 194 1405 319 1541 c 128,-1,16
 444 1677 444 1677 699 1677 c 0,17,18
 954 1677 954 1677 1050 1540 c 0,19,20
 1125 1434 1125 1434 1124 1251 c 0,21,22
 1124 1198 1124 1198 1118 1139 c 2,23,-1
 1053 526 l 1,24,25
 1013 139 1013 139 770 28 c 1,26,27
 806 -33 806 -33 871 -106 c 128,-1,28
 936 -179 936 -179 978 -212 c 1,29,-1
 836 -343 l 1,0,1
543 200 m 0,30,31
 588 200 588 200 622 213.5 c 128,-1,32
 656 227 656 227 677 248 c 128,-1,33
 698 269 698 269 712.5 304 c 128,-1,34
 727 339 727 339 734.5 374 c 128,-1,35
 742 409 742 409 747 458 c 2,36,-1
 825 1206 l 1,37,38
 829 1251 829 1251 829 1289 c 0,39,40
 829 1314 829 1314 827 1337 c 0,41,42
 823 1393 823 1393 786 1425.5 c 128,-1,43
 749 1458 749 1458 676 1458 c 0,44,45
 620 1458 620 1458 582 1440.5 c 128,-1,46
 544 1423 544 1423 522.5 1386 c 128,-1,47
 501 1349 501 1349 490.5 1308 c 128,-1,48
 480 1267 480 1267 474 1206 c 2,49,-1
 396 458 l 2,50,51
 392 410 392 410 392 370 c 0,52,53
 392 348 392 348 393 326 c 0,54,55
 397 268 397 268 433.5 234 c 128,-1,56
 470 200 470 200 543 200 c 0,30,31
EndSplineSet
EndChar

StartChar: R
Encoding: 82 82 53
Width: 1121
GlyphClass: 2
Flags: W
LayerCount: 2
UndoRedoHistory
Layer: 1
Undoes
EndUndoes
Redoes
EndRedoes
EndUndoRedoHistory
Fore
SplineSet
74 0 m 1,0,-1
 248 1658 l 1,1,-1
 621 1658 l 2,2,3
 752 1658 752 1658 843.5 1636 c 128,-1,4
 935 1614 935 1614 999 1563.5 c 128,-1,5
 1063 1513 1063 1513 1088 1427 c 0,6,7
 1104 1370 1104 1370 1104 1297 c 0,8,9
 1104 1259 1104 1259 1100 1216 c 0,10,11
 1067 902 1067 902 852 818 c 1,12,-1
 1005 0 l 1,13,-1
 714 0 l 1,14,-1
 587 758 l 1,15,-1
 450 758 l 1,16,-1
 370 0 l 1,17,-1
 74 0 l 1,0,-1
470 950 m 1,18,-1
 540 950 l 2,19,20
 676 950 676 950 740 1006.5 c 128,-1,21
 804 1063 804 1063 819 1203 c 0,22,23
 822 1236 822 1236 822 1264 c 0,24,25
 822 1352 822 1352 789 1396 c 0,26,27
 745 1454 745 1454 611 1454 c 2,28,-1
 523 1454 l 1,29,-1
 470 950 l 1,18,-1
EndSplineSet
EndChar

StartChar: S
Encoding: 83 83 54
Width: 1003
GlyphClass: 2
Flags: W
AnchorPoint: "Anchor-1" 470 0 basechar 0
LayerCount: 2
UndoRedoHistory
Layer: 1
Undoes
EndUndoes
Redoes
EndRedoes
EndUndoRedoHistory
Fore
SplineSet
486 -20 m 0,0,1
 79 -20 79 -20 79 419 c 0,2,3
 79 450 79 450 81 484 c 1,4,-1
 345 540 l 1,5,6
 342 500 342 500 342 465 c 0,7,8
 342 208 342 208 503 208 c 0,9,10
 574 208 574 208 612.5 250.5 c 128,-1,11
 651 293 651 293 659 367 c 0,12,13
 661 386 661 386 661 403 c 0,14,15
 661 452 661 452 647 494 c 0,16,17
 628 552 628 552 599 587.5 c 128,-1,18
 570 623 570 623 514 677 c 2,19,-1
 311 872 l 2,20,21
 226 955 226 955 189 1045 c 0,22,23
 162 1110 162 1110 162 1199 c 0,24,25
 162 1233 162 1233 166 1270 c 0,26,27
 186 1462 186 1462 310 1568.5 c 128,-1,28
 434 1675 434 1675 630 1677 c 0,29,30
 634 1677 634 1677 638 1677 c 0,31,32
 723 1678 723 1678 787 1656 c 0,33,34
 854 1634 854 1634 895.5 1594.5 c 128,-1,35
 937 1555 937 1555 962 1496.5 c 0,36,37
 988 1438 988 1438 996 1374 c 0,38,39
 1003 1322 1003 1322 1002 1260 c 0,40,41
 1002 1245 1002 1245 1002 1230 c 1,42,-1
 744 1178 l 1,43,44
 747 1211 747 1211 747 1241 c 0,45,46
 748 1264 748 1264 746 1286 c 0,47,48
 742 1337 742 1337 729.5 1376 c 128,-1,49
 717 1415 717 1415 685 1436 c 0,50,51
 657 1454 657 1454 615 1454 c 0,52,53
 609 1454 609 1454 603 1454 c 0,54,55
 533 1450 533 1450 492 1409 c 128,-1,56
 451 1368 451 1368 443 1298 c 0,57,58
 441 1279 441 1279 441 1262 c 0,59,60
 440 1208 440 1208 460 1168 c 0,61,62
 486 1116 486 1116 545 1059 c 2,63,-1
 748 865 l 1,64,65
 850 764 850 764 904 650 c 0,66,67
 945 563 945 563 946 454 c 0,68,69
 946 421 946 421 942 386 c 0,70,71
 923 205 923 205 797 92.5 c 128,-1,72
 671 -20 671 -20 486 -20 c 0,0,1
EndSplineSet
EndChar

StartChar: T
Encoding: 84 84 55
Width: 860
GlyphClass: 2
Flags: W
AnchorPoint: "Anchor-1" 380 0 basechar 0
LayerCount: 2
UndoRedoHistory
Layer: 1
Undoes
EndUndoes
Redoes
EndRedoes
EndUndoRedoHistory
Fore
SplineSet
237 0 m 1,0,-1
 388 1440 l 1,1,-1
 108 1440 l 1,2,-1
 131 1658 l 1,3,-1
 978 1658 l 1,4,-1
 955 1440 l 1,5,-1
 683 1440 l 1,6,-1
 532 0 l 1,7,-1
 237 0 l 1,0,-1
EndSplineSet
EndChar

StartChar: U
Encoding: 85 85 56
Width: 1149
GlyphClass: 2
Flags: W
AnchorPoint: "Anchor-0" 581 0 basechar 0
LayerCount: 2
UndoRedoHistory
Layer: 1
Undoes
EndUndoes
Redoes
EndRedoes
EndUndoRedoHistory
Fore
SplineSet
523 -20 m 0,0,1
 386 -20 386 -20 297.5 20 c 128,-1,2
 209 60 209 60 167.5 135 c 128,-1,3
 126 210 126 210 114 318 c 0,4,5
 109 361 109 361 110 409 c 0,6,7
 110 480 110 480 120 560 c 1,8,-1
 235 1658 l 1,9,-1
 521 1658 l 1,10,-1
 403 532 l 2,11,12
 397 472 397 472 395 430 c 0,13,14
 394 419 394 419 394 408 c 0,15,16
 394 375 394 375 399 341 c 0,17,18
 405 295 405 295 420.5 267 c 128,-1,19
 436 239 436 239 468 221 c 128,-1,20
 500 203 500 203 547 203 c 128,-1,21
 594 203 594 203 629 221.5 c 128,-1,22
 664 240 664 240 685.5 267.5 c 128,-1,23
 707 295 707 295 722 341 c 128,-1,24
 737 387 737 387 744 429 c 128,-1,25
 751 471 751 471 758 532 c 2,26,-1
 876 1658 l 1,27,-1
 1162 1658 l 1,28,-1
 1046 560 l 2,29,30
 1034 446 1034 446 1013 360.5 c 128,-1,31
 992 275 992 275 953 201 c 128,-1,32
 914 127 914 127 857.5 80 c 128,-1,33
 801 33 801 33 717 6.5 c 128,-1,34
 633 -20 633 -20 523 -20 c 0,0,1
EndSplineSet
EndChar

StartChar: V
Encoding: 86 86 57
Width: 1053
GlyphClass: 2
Flags: W
LayerCount: 2
UndoRedoHistory
Layer: 1
Undoes
EndUndoes
Redoes
EndRedoes
EndUndoRedoHistory
Fore
SplineSet
335 0 m 1,0,-1
 169 1658 l 1,1,-1
 433 1658 l 1,2,-1
 534 500 l 1,3,-1
 865 1658 l 1,4,-1
 1133 1658 l 1,5,-1
 618 0 l 1,6,-1
 335 0 l 1,0,-1
EndSplineSet
EndChar

StartChar: W
Encoding: 87 87 58
Width: 1473
GlyphClass: 2
Flags: W
LayerCount: 2
UndoRedoHistory
Layer: 1
Undoes
EndUndoes
Redoes
EndRedoes
EndUndoRedoHistory
Fore
SplineSet
259 0 m 1,0,-1
 191 1658 l 1,1,-1
 440 1658 l 1,2,-1
 466 578 l 1,3,-1
 762 1658 l 1,4,-1
 961 1658 l 1,5,-1
 1033 577 l 1,6,-1
 1286 1658 l 1,7,-1
 1530 1658 l 1,8,-1
 1115 0 l 1,9,-1
 882 0 l 1,10,-1
 807 1118 l 1,11,-1
 499 0 l 1,12,-1
 259 0 l 1,0,-1
EndSplineSet
EndChar

StartChar: X
Encoding: 88 88 59
Width: 1018
GlyphClass: 2
Flags: W
LayerCount: 2
UndoRedoHistory
Layer: 1
Undoes
EndUndoes
Redoes
EndRedoes
EndUndoRedoHistory
Fore
SplineSet
-29 0 m 1,0,-1
 398 879 l 1,1,-1
 154 1658 l 1,2,-1
 431 1658 l 1,3,-1
 595 1138 l 1,4,-1
 838 1658 l 1,5,-1
 1099 1658 l 1,6,-1
 689 830 l 1,7,-1
 948 0 l 1,8,-1
 672 0 l 1,9,-1
 496 562 l 1,10,-1
 231 0 l 1,11,-1
 -29 0 l 1,0,-1
EndSplineSet
EndChar

StartChar: Y
Encoding: 89 89 60
AltUni2: 0004ae.ffffffff.0
Width: 998
GlyphClass: 2
Flags: W
LayerCount: 2
UndoRedoHistory
Layer: 1
Undoes
EndUndoes
Redoes
EndRedoes
EndUndoRedoHistory
Fore
SplineSet
309 0 m 1,0,-1
 375 626 l 1,1,-1
 144 1658 l 1,2,-1
 419 1658 l 1,3,-1
 558 984 l 1,4,-1
 830 1658 l 1,5,-1
 1104 1658 l 1,6,-1
 657 626 l 1,7,-1
 592 0 l 1,8,-1
 309 0 l 1,0,-1
EndSplineSet
EndChar

StartChar: Z
Encoding: 90 90 61
Width: 869
GlyphClass: 2
Flags: W
LayerCount: 2
UndoRedoHistory
Layer: 1
Undoes
EndUndoes
Redoes
EndRedoes
EndUndoRedoHistory
Fore
SplineSet
25 0 m 1,0,-1
 45 195 l 1,1,-1
 621 1453 l 1,2,-1
 200 1453 l 1,3,-1
 221 1658 l 1,4,-1
 946 1658 l 1,5,-1
 931 1515 l 1,6,-1
 328 205 l 1,7,-1
 795 205 l 1,8,-1
 773 0 l 1,9,-1
 25 0 l 1,0,-1
EndSplineSet
EndChar

StartChar: bracketleft
Encoding: 91 91 62
Width: 705
GlyphClass: 2
Flags: W
LayerCount: 2
UndoRedoHistory
Layer: 1
Undoes
EndUndoes
Redoes
EndRedoes
EndUndoRedoHistory
Fore
SplineSet
27 -387 m 1,0,-1
 243 1658 l 1,1,-1
 733 1658 l 1,2,-1
 721 1535 l 1,3,-1
 477 1535 l 1,4,-1
 288 -263 l 1,5,-1
 531 -263 l 1,6,-1
 518 -387 l 1,7,-1
 27 -387 l 1,0,-1
EndSplineSet
EndChar

StartChar: backslash
Encoding: 92 92 63
Width: 806
GlyphClass: 2
Flags: W
LayerCount: 2
UndoRedoHistory
Layer: 1
Undoes
EndUndoes
Redoes
EndRedoes
EndUndoRedoHistory
Fore
SplineSet
488 0 m 1,0,-1
 196 1658 l 1,1,-1
 392 1658 l 1,2,-1
 683 0 l 1,3,-1
 488 0 l 1,0,-1
EndSplineSet
EndChar

StartChar: bracketright
Encoding: 93 93 64
Width: 654
GlyphClass: 2
Flags: W
LayerCount: 2
UndoRedoHistory
Layer: 1
Undoes
EndUndoes
Redoes
EndRedoes
EndUndoRedoHistory
Fore
SplineSet
-45 -387 m 1,0,-1
 -32 -263 l 1,1,-1
 212 -263 l 1,2,-1
 400 1534 l 1,3,-1
 156 1534 l 1,4,-1
 169 1658 l 1,5,-1
 660 1658 l 1,6,-1
 445 -387 l 1,7,-1
 -45 -387 l 1,0,-1
EndSplineSet
EndChar

StartChar: asciicircum
Encoding: 94 94 65
Width: 951
GlyphClass: 2
Flags: W
LayerCount: 2
UndoRedoHistory
Layer: 1
Undoes
EndUndoes
Redoes
EndRedoes
EndUndoRedoHistory
Fore
SplineSet
121 980 m 1,0,-1
 475 1658 l 1,1,-1
 723 1658 l 1,2,-1
 936 980 l 1,3,-1
 687 980 l 1,4,-1
 576 1439 l 1,5,-1
 369 980 l 1,6,-1
 121 980 l 1,0,-1
EndSplineSet
EndChar

StartChar: underscore
Encoding: 95 95 66
Width: 727
GlyphClass: 2
Flags: W
LayerCount: 2
UndoRedoHistory
Layer: 1
Undoes
EndUndoes
Redoes
EndRedoes
EndUndoRedoHistory
Fore
SplineSet
-82 -310 m 1,0,-1
 -62 -114 l 1,1,-1
 665 -114 l 1,2,-1
 645 -310 l 1,3,-1
 -82 -310 l 1,0,-1
EndSplineSet
EndChar

StartChar: grave
Encoding: 96 96 67
Width: 608
GlyphClass: 2
Flags: W
LayerCount: 2
UndoRedoHistory
Layer: 1
Undoes
EndUndoes
Redoes
EndRedoes
EndUndoRedoHistory
Fore
SplineSet
432 1249 m 1,0,-1
 229 1658 l 1,1,-1
 507 1658 l 1,2,-1
 585 1249 l 1,3,-1
 432 1249 l 1,0,-1
EndSplineSet
EndChar

StartChar: a
Encoding: 97 97 68
Width: 922
GlyphClass: 2
Flags: W
AnchorPoint: "Anchor-0" 714 0 basechar 0
LayerCount: 2
UndoRedoHistory
Layer: 1
Undoes
EndUndoes
Redoes
EndRedoes
EndUndoRedoHistory
Fore
SplineSet
282 -18 m 0,0,1
 171 -17 171 -17 109 69 c 0,2,3
 56 142 56 142 56 232 c 0,4,5
 56 248 56 248 58 264 c 0,6,7
 65 325 65 325 84 377.5 c 128,-1,8
 103 430 103 430 130.5 469.5 c 128,-1,9
 158 509 158 509 195.5 543.5 c 128,-1,10
 233 578 233 578 272 602.5 c 128,-1,11
 311 627 311 627 359 650 c 128,-1,12
 407 673 407 673 449.5 690 c 128,-1,13
 492 707 492 707 542 725 c 0,14,15
 569 735 569 735 583 740 c 1,16,-1
 593 838 l 2,17,18
 596 871 596 871 596 898 c 0,19,20
 596 912 596 912 596 924 c 0,21,22
 594 960 594 960 574 978.5 c 128,-1,23
 554 997 554 997 515 997 c 0,24,25
 417 997 417 997 403 863 c 1,26,-1
 392 790 l 1,27,-1
 128 801 l 1,28,29
 129 807 129 807 131.5 823 c 128,-1,30
 134 839 134 839 135 844 c 0,31,32
 166 1029 166 1029 272 1115.5 c 128,-1,33
 378 1202 378 1202 558 1202 c 0,34,35
 733 1202 733 1202 807 1107 c 0,36,37
 866 1031 866 1031 866 905 c 0,38,39
 866 873 866 873 862 837 c 2,40,-1
 805 297 l 2,41,42
 795 203 795 203 795 86 c 0,43,44
 795 44 795 44 796 0 c 1,45,-1
 548 0 l 1,46,47
 536 113 536 113 536 174 c 1,48,49
 504 93 504 93 439 37.5 c 128,-1,50
 374 -18 374 -18 282 -18 c 0,0,1
410 197 m 0,51,52
 442 197 442 197 477.5 222 c 128,-1,53
 513 247 513 247 534 272 c 1,54,-1
 568 597 l 1,55,56
 346 482 346 482 330 336 c 0,57,58
 328 320 328 320 328 305 c 0,59,60
 328 261 328 261 344 234 c 0,61,62
 365 197 365 197 410 197 c 0,51,52
EndSplineSet
EndChar

StartChar: b
Encoding: 98 98 69
Width: 973
GlyphClass: 2
Flags: W
LayerCount: 2
UndoRedoHistory
Layer: 1
Undoes
EndUndoes
Redoes
EndRedoes
EndUndoRedoHistory
Fore
SplineSet
551 -18 m 0,0,1
 440 -18 440 -18 344 87 c 1,2,-1
 335 0 l 1,3,-1
 61 0 l 1,4,-1
 235 1658 l 1,5,-1
 509 1658 l 1,6,-1
 450 1093 l 1,7,8
 570 1202 570 1202 696 1202 c 0,9,10
 697 1202 697 1202 698 1202 c 0,11,12
 744 1202 744 1202 781 1186.5 c 128,-1,13
 818 1171 818 1171 842.5 1146 c 128,-1,14
 867 1121 867 1121 884 1086.5 c 128,-1,15
 901 1052 901 1052 909 1016.5 c 0,16,17
 916 981 916 981 920 940 c 0,18,19
 923 904 923 904 924 874 c 0,20,21
 924 870 924 870 924 865 c 0,22,23
 924 831 924 831 919 797 c 2,24,-1
 879 420 l 2,25,26
 870 329 870 329 847 253.5 c 128,-1,27
 824 178 824 178 785.5 115.5 c 128,-1,28
 747 53 747 53 687 17.5 c 128,-1,29
 627 -18 627 -18 551 -18 c 0,0,1
481 180 m 0,30,31
 513 180 513 180 536 198 c 128,-1,32
 559 216 559 216 572 251.5 c 128,-1,33
 585 287 585 287 592 323.5 c 128,-1,34
 599 360 599 360 604 413 c 2,35,-1
 646 807 l 1,36,37
 649 846 649 846 649 881 c 0,38,39
 648 894 648 894 648 906 c 0,40,41
 646 950 646 950 625 980 c 0,42,43
 604 1009 604 1009 564 1009 c 0,44,45
 563 1009 563 1009 561 1009 c 0,46,47
 502 1008 502 1008 436 961 c 1,48,-1
 357 218 l 1,49,50
 412 181 412 181 481 180 c 0,30,31
EndSplineSet
EndChar

StartChar: c
Encoding: 99 99 70
Width: 893
GlyphClass: 2
Flags: W
AnchorPoint: "Anchor-1" 380 0 basechar 0
LayerCount: 2
UndoRedoHistory
Layer: 1
Undoes
EndUndoes
Redoes
EndRedoes
EndUndoRedoHistory
Fore
SplineSet
407 -18 m 0,0,1
 303 -18 303 -18 233 13 c 128,-1,2
 163 44 163 44 127.5 101.5 c 128,-1,3
 92 159 92 159 80 241 c 0,4,5
 74 281 74 281 73 326 c 0,6,7
 73 373 73 373 80 425 c 1,8,-1
 115 759 l 2,9,10
 138 977 138 977 236 1089.5 c 128,-1,11
 334 1202 334 1202 536 1202 c 0,12,13
 725 1202 725 1202 799 1113 c 0,14,15
 857 1043 857 1043 857 912 c 0,16,17
 857 876 857 876 853 836 c 2,18,-1
 843 742 l 1,19,-1
 588 742 l 1,20,-1
 598 840 l 2,21,22
 602 873 602 873 602 900 c 0,23,24
 602 946 602 946 590 969 c 0,25,26
 572 1006 572 1006 518 1006 c 0,27,28
 457 1006 457 1006 431.5 962.5 c 128,-1,29
 406 919 406 919 394 801 c 2,30,-1
 350 376 l 2,31,32
 345 330 345 330 345 296 c 0,33,34
 344 242 344 242 356 218 c 0,35,36
 374 178 374 178 431.5 178 c 128,-1,37
 489 178 489 178 513 217 c 128,-1,38
 537 256 537 256 546 337 c 2,39,-1
 559 461 l 1,40,-1
 814 461 l 1,41,-1
 803 352 l 1,42,43
 783 167 783 167 687.5 74.5 c 128,-1,44
 592 -18 592 -18 407 -18 c 0,0,1
EndSplineSet
EndChar

StartChar: d
Encoding: 100 100 71
Width: 963
GlyphClass: 2
Flags: W
LayerCount: 2
UndoRedoHistory
Layer: 1
Undoes
EndUndoes
Redoes
EndRedoes
EndUndoRedoHistory
Fore
SplineSet
326 -18 m 0,0,1
 325 -18 325 -18 323 -18 c 0,2,3
 178 -18 178 -18 118 85 c 0,4,5
 75 159 75 159 75 297 c 0,6,7
 75 352 75 352 82 417 c 2,8,-1
 116 747 l 2,9,10
 126 844 126 844 148 922 c 128,-1,11
 170 1000 170 1000 208.5 1065 c 128,-1,12
 247 1130 247 1130 308 1166 c 128,-1,13
 369 1202 369 1202 449 1202 c 0,14,15
 560 1202 560 1202 648 1111 c 1,16,-1
 705 1658 l 1,17,-1
 979 1658 l 1,18,-1
 805 0 l 1,19,-1
 531 0 l 1,20,-1
 540 80 l 1,21,22
 434 -18 434 -18 326 -18 c 0,0,1
440 180 m 0,23,24
 491 180 491 180 554 212 c 1,25,-1
 633 969 l 1,26,27
 579 1006 579 1006 526 1006 c 0,28,29
 418 1006 418 1006 398 820 c 2,30,-1
 354 396 l 1,31,32
 350 346 350 346 350 304 c 0,33,34
 350 296 350 296 350 288 c 0,35,36
 351 240 351 240 373.5 210 c 128,-1,37
 396 180 396 180 440 180 c 0,23,24
EndSplineSet
EndChar

StartChar: e
Encoding: 101 101 72
Width: 909
GlyphClass: 2
Flags: W
AnchorPoint: "Anchor-0" 518 0 basechar 0
LayerCount: 2
UndoRedoHistory
Layer: 1
Undoes
EndUndoes
Redoes
EndRedoes
EndUndoRedoHistory
Fore
SplineSet
412 -18 m 0,0,1
 208 -18 208 -18 132 94 c 0,2,3
 74 180 74 180 75 330 c 0,4,5
 75 376 75 376 80 428 c 2,6,-1
 115 754 l 2,7,8
 138 977 138 977 238 1089.5 c 128,-1,9
 338 1202 338 1202 538 1202 c 0,10,11
 645 1202 645 1202 714.5 1169.5 c 128,-1,12
 784 1137 784 1137 816.5 1075.5 c 0,13,14
 850 1014 850 1014 858 926 c 0,15,16
 861 893 861 893 861 856 c 0,17,18
 861 796 861 796 852 726 c 1,19,-1
 836 578 l 1,20,-1
 369 578 l 1,21,-1
 350 404 l 1,22,23
 344 344 344 344 342 294 c 0,24,25
 342 289 342 289 342 283 c 0,26,27
 342 240 342 240 361 212 c 0,28,29
 382 180 382 180 431 181 c 0,30,31
 490 181 490 181 516 221.5 c 128,-1,32
 542 262 542 262 549 340 c 1,33,-1
 559 431 l 1,34,-1
 820 431 l 1,35,-1
 812 361 l 1,36,37
 793 177 793 177 692.5 79.5 c 128,-1,38
 592 -18 592 -18 412 -18 c 0,0,1
384 717 m 1,39,-1
 589 717 l 1,40,-1
 601 830 l 2,41,42
 604 861 604 861 604 886 c 0,43,44
 604 936 604 936 592 962 c 0,45,46
 574 1002 574 1002 516 1003 c 0,47,48
 456 1003 456 1003 430 958 c 128,-1,49
 404 913 404 913 391 792 c 1,50,-1
 384 717 l 1,39,-1
EndSplineSet
EndChar

StartChar: f
Encoding: 102 102 73
Width: 621
GlyphClass: 2
Flags: W
LayerCount: 2
UndoRedoHistory
Layer: 1
Undoes
EndUndoes
Redoes
EndRedoes
EndUndoRedoHistory
Fore
SplineSet
117 0 m 1,0,-1
 221 988 l 1,1,-1
 91 988 l 1,2,-1
 111 1184 l 1,3,-1
 241 1184 l 1,4,-1
 248 1245 l 2,5,6
 256 1318 256 1318 267 1368.5 c 128,-1,7
 278 1419 278 1419 300.5 1467 c 128,-1,8
 323 1515 323 1515 357.5 1543.5 c 128,-1,9
 392 1572 392 1572 446.5 1589 c 128,-1,10
 501 1606 501 1606 575 1606 c 0,11,12
 632 1606 632 1606 726 1595 c 1,13,-1
 704 1391 l 1,14,15
 697 1392 697 1392 669.5 1396.5 c 128,-1,16
 642 1401 642 1401 628 1401 c 0,17,18
 578 1401 578 1401 554 1368.5 c 128,-1,19
 530 1336 530 1336 524 1274 c 2,20,-1
 514 1184 l 1,21,-1
 682 1184 l 1,22,-1
 662 988 l 1,23,-1
 494 988 l 1,24,-1
 390 0 l 1,25,-1
 117 0 l 1,0,-1
EndSplineSet
EndChar

StartChar: g
Encoding: 103 103 74
Width: 943
GlyphClass: 2
Flags: W
LayerCount: 2
UndoRedoHistory
Layer: 1
Undoes
EndUndoes
Redoes
EndRedoes
EndUndoRedoHistory
Fore
SplineSet
425 -359 m 0,0,1
 372 -359 372 -359 332.5 -358 c 128,-1,2
 293 -357 293 -357 241.5 -352.5 c 128,-1,3
 190 -348 190 -348 154 -340 c 128,-1,4
 118 -332 118 -332 80.5 -317.5 c 128,-1,5
 43 -303 43 -303 20.5 -282.5 c 128,-1,6
 -2 -262 -2 -262 -14 -231 c 0,7,8
 -23 -208 -23 -208 -23 -180 c 0,9,10
 -23 -171 -23 -171 -22 -161 c 0,11,12
 -5 -7 -5 -7 171 91 c 1,13,14
 60 131 60 131 60 220 c 0,15,16
 60 286 60 286 99 335 c 0,17,18
 136 381 136 381 218 443 c 1,19,20
 157 493 157 493 132 569 c 0,21,22
 116 618 116 618 116 688 c 0,23,24
 116 727 116 727 121 773 c 0,25,26
 166 1202 166 1202 529 1202 c 0,27,28
 714 1202 714 1202 769 1085 c 1,29,30
 793 1111 793 1111 841.5 1148 c 128,-1,31
 890 1185 890 1185 942 1209 c 1,32,-1
 983 1227 l 1,33,-1
 1031 1071 l 1,34,35
 995 1062 995 1062 920.5 1035 c 128,-1,36
 846 1008 846 1008 822 994 c 1,37,38
 836 959 836 959 843 895 c 0,39,40
 847 861 847 861 847 827 c 0,41,42
 847 798 847 798 844 769 c 0,43,44
 800 362 800 362 450 362 c 0,45,46
 422 362 422 362 373 370 c 128,-1,47
 324 378 324 378 311 384 c 1,48,49
 272 334 272 334 271 307 c 0,50,51
 270 285 270 285 293.5 273 c 128,-1,52
 317 261 317 261 370 256 c 0,53,54
 378 255 378 255 469.5 246 c 128,-1,55
 561 237 561 237 579 234 c 1,56,57
 724 218 724 218 786 148 c 0,58,59
 836 91 836 91 837 -7 c 0,60,61
 837 -29 837 -29 834 -54 c 1,62,63
 816 -212 816 -212 721.5 -285.5 c 128,-1,64
 627 -359 627 -359 425 -359 c 0,0,1
444 -164 m 0,65,66
 530 -164 530 -164 571 -141.5 c 128,-1,67
 612 -119 612 -119 620 -69 c 0,68,69
 622 -57 622 -57 622 -47 c 0,70,71
 622 -11 622 -11 600 9 c 0,72,73
 572 34 572 34 494 41 c 2,74,-1
 307 58 l 1,75,76
 236 -16 236 -16 231 -74 c 0,77,78
 230 -80 230 -80 230 -86 c 0,79,80
 230 -111 230 -111 241 -125 c 0,81,82
 254 -143 254 -143 302.5 -153.5 c 128,-1,83
 351 -164 351 -164 444 -164 c 0,65,66
462 542 m 0,84,85
 533 542 533 542 560 594 c 128,-1,86
 587 646 587 646 602 779 c 0,87,88
 610 854 610 854 610 905 c 0,89,90
 610 910 610 910 610 916 c 0,91,92
 609 970 609 970 587 997 c 128,-1,93
 565 1024 565 1024 515 1024 c 0,94,95
 443 1024 443 1024 416 970 c 128,-1,96
 389 916 389 916 375 779 c 0,97,98
 368 717 368 717 368 670 c 0,99,100
 368 660 368 660 368 652 c 0,101,102
 370 600 370 600 392.5 571 c 128,-1,103
 415 542 415 542 462 542 c 0,84,85
EndSplineSet
EndChar

StartChar: h
Encoding: 104 104 75
Width: 973
GlyphClass: 2
Flags: W
LayerCount: 2
UndoRedoHistory
Layer: 1
Undoes
EndUndoes
Redoes
EndRedoes
EndUndoRedoHistory
Fore
SplineSet
62 0 m 1,0,-1
 236 1658 l 1,1,-1
 510 1658 l 1,2,-1
 449 1068 l 1,3,4
 605 1202 605 1202 758 1202 c 0,5,6
 827 1202 827 1202 867.5 1163 c 128,-1,7
 908 1124 908 1124 919 1070 c 0,8,9
 925 1038 925 1038 925 1002 c 0,10,11
 925 976 925 976 922 948 c 2,12,-1
 823 0 l 1,13,-1
 549 0 l 1,14,-1
 641 885 l 1,15,16
 643 904 643 904 643 920 c 0,17,18
 642 950 642 950 634 968 c 0,19,20
 620 996 620 996 574 996 c 0,21,22
 519 995 519 995 434 936 c 1,23,-1
 336 0 l 1,24,-1
 62 0 l 1,0,-1
EndSplineSet
EndChar

StartChar: i
Encoding: 105 105 76
Width: 505
GlyphClass: 2
Flags: W
AnchorPoint: "Anchor-0" 196 0 basechar 0
LayerCount: 2
UndoRedoHistory
Layer: 1
Undoes
EndUndoes
Redoes
EndRedoes
EndUndoRedoHistory
Fore
SplineSet
67 0 m 1,0,-1
 191 1184 l 1,1,-1
 465 1184 l 1,2,-1
 341 0 l 1,3,-1
 67 0 l 1,0,-1
211 1370 m 1,4,-1
 236 1606 l 1,5,-1
 511 1606 l 1,6,-1
 486 1370 l 1,7,-1
 211 1370 l 1,4,-1
EndSplineSet
EndChar

StartChar: j
Encoding: 106 106 77
Width: 513
GlyphClass: 2
Flags: W
LayerCount: 2
UndoRedoHistory
Layer: 1
Undoes
EndUndoes
Redoes
EndRedoes
EndUndoRedoHistory
Fore
SplineSet
-113 -304 m 1,0,-1
 -93 -107 l 1,1,2
 -65 -114 -65 -114 -34 -114 c 0,3,4
 73 -114 73 -114 86 8 c 2,5,-1
 209 1184 l 1,6,-1
 483 1184 l 1,7,-1
 357 -23 l 2,8,9
 342 -163 342 -163 255 -243 c 128,-1,10
 168 -323 168 -323 27 -323 c 0,11,12
 -57 -323 -57 -323 -113 -304 c 1,0,-1
228 1370 m 1,13,-1
 253 1606 l 1,14,-1
 530 1606 l 1,15,-1
 505 1370 l 1,16,-1
 228 1370 l 1,13,-1
EndSplineSet
EndChar

StartChar: k
Encoding: 107 107 78
Width: 975
GlyphClass: 2
Flags: W
LayerCount: 2
UndoRedoHistory
Layer: 1
Undoes
EndUndoes
Redoes
EndRedoes
EndUndoRedoHistory
Fore
SplineSet
61 2 m 1,0,-1
 235 1660 l 1,1,-1
 508 1660 l 1,2,-1
 408 708 l 1,3,-1
 754 1183 l 1,4,-1
 1050 1184 l 1,5,-1
 712 711 l 1,6,-1
 921 0 l 1,7,-1
 635 0 l 1,8,-1
 486 584 l 1,9,-1
 381 454 l 1,10,-1
 334 2 l 1,11,-1
 61 2 l 1,0,-1
EndSplineSet
EndChar

StartChar: l
Encoding: 108 108 79
Width: 514
GlyphClass: 2
Flags: W
LayerCount: 2
UndoRedoHistory
Layer: 1
Undoes
EndUndoes
Redoes
EndRedoes
EndUndoRedoHistory
Fore
SplineSet
75 0 m 1,0,-1
 249 1658 l 1,1,-1
 524 1658 l 1,2,-1
 350 0 l 1,3,-1
 75 0 l 1,0,-1
EndSplineSet
EndChar

StartChar: m
Encoding: 109 109 80
Width: 1440
GlyphClass: 2
Flags: W
LayerCount: 2
UndoRedoHistory
Layer: 1
Undoes
EndUndoes
Redoes
EndRedoes
EndUndoRedoHistory
Fore
SplineSet
58 0 m 1,0,-1
 182 1184 l 1,1,-1
 455 1184 l 1,2,-1
 445 1077 l 1,3,4
 592 1202 592 1202 745 1202 c 0,5,6
 879 1202 879 1202 906 1061 c 1,7,8
 1064 1202 1064 1202 1224 1202 c 0,9,10
 1276 1202 1276 1202 1313 1180 c 128,-1,11
 1350 1158 1350 1158 1366 1122 c 128,-1,12
 1382 1086 1382 1086 1389 1040 c 0,13,14
 1393 1017 1393 1017 1392.5 994 c 128,-1,15
 1392 971 1392 971 1389 948 c 1,16,-1
 1289 0 l 1,17,-1
 1016 0 l 1,18,-1
 1108 885 l 1,19,20
 1110 904 1110 904 1110 920 c 0,21,22
 1110 950 1110 950 1102 968 c 0,23,24
 1088 996 1088 996 1040 996 c 0,25,26
 987 995 987 995 908 942 c 1,27,28
 908 931 908 931 907 930 c 2,29,-1
 809 0 l 1,30,-1
 537 0 l 1,31,-1
 629 885 l 2,32,33
 631 902 631 902 631 917 c 0,34,35
 632 950 632 950 622 968 c 0,36,37
 608 996 608 996 560 996 c 0,38,39
 509 995 509 995 430 943 c 1,40,-1
 331 0 l 1,41,-1
 58 0 l 1,0,-1
EndSplineSet
EndChar

StartChar: n
Encoding: 110 110 81
Width: 963
GlyphClass: 2
Flags: W
LayerCount: 2
UndoRedoHistory
Layer: 1
Undoes
EndUndoes
Redoes
EndRedoes
EndUndoRedoHistory
Fore
SplineSet
58 0 m 1,0,-1
 182 1184 l 1,1,-1
 456 1184 l 1,2,-1
 444 1068 l 1,3,4
 602 1202 602 1202 747 1202 c 0,5,6
 799 1202 799 1202 836 1180 c 128,-1,7
 873 1158 873 1158 889.5 1122 c 128,-1,8
 906 1086 906 1086 913 1040 c 0,9,10
 916 1019 916 1019 916 997 c 0,11,12
 916 972 916 972 912 948 c 1,13,-1
 813 0 l 1,14,-1
 539 0 l 1,15,-1
 631 885 l 2,16,17
 633 903 633 903 633 918 c 0,18,19
 633 950 633 950 624 968 c 0,20,21
 611 996 611 996 564 996 c 0,22,23
 509 995 509 995 431 940 c 1,24,-1
 332 0 l 1,25,-1
 58 0 l 1,0,-1
EndSplineSet
EndChar

StartChar: o
Encoding: 111 111 82
Width: 923
GlyphClass: 2
Flags: W
AnchorPoint: "Anchor-0" 421 0 basechar 0
LayerCount: 2
UndoRedoHistory
Layer: 1
Undoes
EndUndoes
Redoes
EndRedoes
EndUndoRedoHistory
Fore
SplineSet
429 176 m 0,0,1
 458 176 458 176 479 187.5 c 128,-1,2
 500 199 500 199 512.5 216 c 128,-1,3
 525 233 525 233 534 262.5 c 128,-1,4
 543 292 543 292 546.5 317 c 128,-1,5
 550 342 550 342 554 380 c 2,6,-1
 599 803 l 1,7,8
 602 858 602 858 604 904 c 0,9,10
 604 907 604 907 605 909 c 0,11,12
 604 950 604 950 584 978 c 0,13,14
 562 1008 562 1008 517 1008 c 0,15,16
 489 1008 489 1008 467.5 996 c 128,-1,17
 446 984 446 984 433.5 967 c 128,-1,18
 421 950 421 950 412.5 920 c 128,-1,19
 404 890 404 890 400 865.5 c 128,-1,20
 396 841 396 841 392 803 c 2,21,-1
 347 380 l 1,22,23
 342 311 342 311 342 276 c 0,24,25
 342 234 342 234 362 206 c 0,26,27
 383 176 383 176 429 176 c 0,0,1
408 -18 m 0,28,29
 216 -18 216 -18 136 90 c 0,30,31
 72 176 72 176 73 320 c 0,32,33
 73 358 73 358 77 399 c 2,34,-1
 117 785 l 1,35,36
 139 985 139 985 242.5 1093.5 c 128,-1,37
 346 1202 346 1202 537 1202 c 128,-1,38
 728 1202 728 1202 810 1094 c 0,39,40
 875 1008 875 1008 875 866 c 0,41,42
 875 828 875 828 870 785 c 1,43,-1
 830 399 l 1,44,45
 808 198 808 198 704 90 c 128,-1,46
 600 -18 600 -18 408 -18 c 0,28,29
EndSplineSet
EndChar

StartChar: p
Encoding: 112 112 83
Width: 970
GlyphClass: 2
Flags: W
LayerCount: 2
UndoRedoHistory
Layer: 1
Undoes
EndUndoes
Redoes
EndRedoes
EndUndoRedoHistory
Fore
SplineSet
17 -390 m 1,0,-1
 182 1184 l 1,1,-1
 456 1184 l 1,2,-1
 447 1093 l 1,3,4
 567 1202 567 1202 693 1202 c 0,5,6
 694 1202 694 1202 695 1202 c 0,7,8
 741 1202 741 1202 778 1186.5 c 128,-1,9
 815 1171 815 1171 839.5 1146 c 128,-1,10
 864 1121 864 1121 881 1086.5 c 128,-1,11
 898 1052 898 1052 906 1016.5 c 128,-1,12
 914 981 914 981 918 940 c 0,13,14
 921 904 921 904 921 874 c 0,15,16
 920 870 920 870 920 865 c 0,17,18
 920 831 920 831 916 797 c 2,19,-1
 877 420 l 2,20,21
 868 329 868 329 845 253.5 c 128,-1,22
 822 178 822 178 783.5 115.5 c 128,-1,23
 745 53 745 53 684.5 17.5 c 128,-1,24
 624 -18 624 -18 548 -18 c 0,25,26
 437 -18 437 -18 341 88 c 1,27,-1
 291 -390 l 1,28,-1
 17 -390 l 1,0,-1
477 180 m 0,29,30
 509 180 509 180 532 198 c 128,-1,31
 555 216 555 216 568.5 251.5 c 128,-1,32
 582 287 582 287 589 323.5 c 128,-1,33
 596 360 596 360 601 413 c 2,34,-1
 643 807 l 1,35,36
 646 846 646 846 646 881 c 0,37,38
 646 894 646 894 646 906 c 0,39,40
 644 950 644 950 622 980 c 0,41,42
 601 1009 601 1009 561 1009 c 0,43,44
 560 1009 560 1009 558 1009 c 0,45,46
 503 1008 503 1008 433 962 c 1,47,-1
 354 219 l 1,48,49
 411 181 411 181 477 180 c 0,29,30
EndSplineSet
EndChar

StartChar: q
Encoding: 113 113 84
Width: 965
GlyphClass: 2
Flags: W
LayerCount: 2
UndoRedoHistory
Layer: 1
Undoes
EndUndoes
Redoes
EndRedoes
EndUndoRedoHistory
Fore
SplineSet
493 -390 m 1,0,-1
 543 82 l 1,1,2
 435 -18 435 -18 327 -18 c 0,3,4
 326 -18 326 -18 324 -18 c 0,5,6
 180 -18 180 -18 120 85 c 0,7,8
 77 159 77 159 76 297 c 0,9,10
 76 352 76 352 83 417 c 2,11,-1
 117 747 l 2,12,13
 164 1202 164 1202 450 1202 c 0,14,15
 561 1202 561 1202 651 1109 c 1,16,-1
 658 1184 l 1,17,-1
 932 1184 l 1,18,-1
 767 -390 l 1,19,-1
 493 -390 l 1,0,-1
442 180 m 0,20,21
 491 180 491 180 557 213 c 1,22,-1
 636 968 l 1,23,24
 581 1006 581 1006 527 1006 c 0,25,26
 469 1006 469 1006 438.5 953.5 c 128,-1,27
 408 901 408 901 399 820 c 2,28,-1
 354 396 l 1,29,30
 350 350 350 350 350 311 c 0,31,32
 350 299 350 299 350 288 c 0,33,34
 352 240 352 240 375 210 c 128,-1,35
 398 180 398 180 442 180 c 0,20,21
EndSplineSet
EndChar

StartChar: r
Encoding: 114 114 85
Width: 705
GlyphClass: 2
Flags: W
LayerCount: 2
UndoRedoHistory
Layer: 1
Undoes
EndUndoes
Redoes
EndRedoes
EndUndoRedoHistory
Fore
SplineSet
62 0 m 1,0,-1
 186 1184 l 1,1,-1
 460 1184 l 1,2,-1
 442 1004 l 1,3,4
 573 1199 573 1199 712 1199 c 0,5,6
 733 1199 733 1199 754 1194 c 1,7,-1
 724 920 l 1,8,9
 677 938 677 938 625 938 c 1,10,11
 566 936 566 936 518.5 909.5 c 128,-1,12
 471 883 471 883 422 818 c 1,13,-1
 336 0 l 1,14,-1
 62 0 l 1,0,-1
EndSplineSet
EndChar

StartChar: s
Encoding: 115 115 86
Width: 807
GlyphClass: 2
Flags: W
AnchorPoint: "Anchor-1" 370 0 basechar 0
LayerCount: 2
UndoRedoHistory
Layer: 1
Undoes
EndUndoes
Redoes
EndRedoes
EndUndoRedoHistory
Fore
SplineSet
359 -18 m 0,0,1
 212 -18 212 -18 127 64.5 c 128,-1,2
 42 147 42 147 26 301 c 1,3,-1
 244 376 l 1,4,5
 266 176 266 176 381 176 c 0,6,7
 383 176 383 176 384 176 c 0,8,9
 430 178 430 178 462 209 c 128,-1,10
 494 240 494 240 496 286 c 0,11,12
 496 289 496 289 496 291 c 0,13,14
 496 355 496 355 401 445 c 2,15,-1
 251 586 l 2,16,17
 115 713 115 713 115 853 c 0,18,19
 115 872 115 872 118 892 c 0,20,21
 136 1034 136 1034 236.5 1118 c 128,-1,22
 337 1202 337 1202 482 1202 c 0,23,24
 620 1202 620 1202 697.5 1117.5 c 128,-1,25
 775 1033 775 1033 784 893 c 1,26,-1
 595 818 l 1,27,28
 578 1003 578 1003 474 1004 c 0,29,30
 472 1004 472 1004 471 1004 c 0,31,32
 428 1004 428 1004 399 976 c 0,33,34
 369 948 369 948 365 908 c 0,35,36
 365 904 365 904 365 901 c 0,37,38
 365 849 365 849 443 771 c 1,39,-1
 596 617 l 1,40,41
 673 544 673 544 713 470 c 0,42,43
 745 411 745 411 745 334 c 0,44,45
 745 315 745 315 743 295 c 0,46,47
 727 145 727 145 620 63.5 c 128,-1,48
 513 -18 513 -18 359 -18 c 0,0,1
EndSplineSet
EndChar

StartChar: t
Encoding: 116 116 87
Width: 676
GlyphClass: 2
Flags: W
AnchorPoint: "Anchor-1" 340 0 basechar 0
LayerCount: 2
UndoRedoHistory
Layer: 1
Undoes
EndUndoes
Redoes
EndRedoes
EndUndoRedoHistory
Fore
SplineSet
385 -16 m 0,0,1
 305 -15 305 -15 251.5 11 c 128,-1,2
 198 37 198 37 173 81.5 c 128,-1,3
 148 126 148 126 140 188 c 0,4,5
 136 218 136 218 135 252 c 0,6,7
 135 287 135 287 140 326 c 1,8,-1
 212 1002 l 1,9,-1
 95 1002 l 1,10,-1
 114 1184 l 1,11,-1
 230 1184 l 1,12,-1
 267 1531 l 1,13,-1
 542 1531 l 1,14,-1
 506 1184 l 1,15,-1
 687 1184 l 1,16,-1
 668 1002 l 1,17,-1
 487 1002 l 1,18,-1
 414 313 l 2,19,20
 413 301 413 301 413 290 c 0,21,22
 412 250 412 250 430 228 c 0,23,24
 452 202 452 202 510 200 c 0,25,26
 548 200 548 200 595 207 c 1,27,-1
 573 -3 l 1,28,29
 452 -16 452 -16 393 -16 c 0,30,31
 389 -16 389 -16 385 -16 c 0,0,1
EndSplineSet
EndChar

StartChar: u
Encoding: 117 117 88
Width: 960
GlyphClass: 2
Flags: W
AnchorPoint: "Anchor-0" 672 0 basechar 0
LayerCount: 2
UndoRedoHistory
Layer: 1
Undoes
EndUndoes
Redoes
EndRedoes
EndUndoRedoHistory
Fore
SplineSet
239 -18 m 0,0,1
 187 -18 187 -18 150.5 3.5 c 128,-1,2
 114 25 114 25 97 63 c 0,3,4
 80 102 80 102 74 144 c 0,5,6
 71 166 71 166 72 190 c 0,7,8
 72 212 72 212 74 236 c 2,9,-1
 173 1184 l 1,10,-1
 447 1184 l 1,11,-1
 354 295 l 2,12,13
 352 279 352 279 352 265 c 0,14,15
 352 232 352 232 362 212 c 0,16,17
 376 185 376 185 421 185 c 0,18,19
 423 185 423 185 424 185 c 1,20,21
 475 185 475 185 551 237 c 1,22,-1
 651 1184 l 1,23,-1
 925 1184 l 1,24,-1
 801 0 l 1,25,-1
 527 0 l 1,26,-1
 538 111 l 1,27,28
 383 -18 383 -18 239 -18 c 0,0,1
EndSplineSet
EndChar

StartChar: v
Encoding: 118 118 89
Width: 822
GlyphClass: 2
Flags: W
LayerCount: 2
UndoRedoHistory
Layer: 1
Undoes
EndUndoes
Redoes
EndRedoes
EndUndoRedoHistory
Fore
SplineSet
207 0 m 1,0,-1
 101 1184 l 1,1,-1
 370 1184 l 1,2,-1
 399 315 l 1,3,-1
 608 1184 l 1,4,-1
 872 1184 l 1,5,-1
 521 0 l 1,6,-1
 207 0 l 1,0,-1
EndSplineSet
EndChar

StartChar: w
Encoding: 119 119 90
Width: 1216
GlyphClass: 2
Flags: W
LayerCount: 2
UndoRedoHistory
Layer: 1
Undoes
EndUndoes
Redoes
EndRedoes
EndUndoRedoHistory
Fore
SplineSet
184 0 m 1,0,-1
 126 1184 l 1,1,-1
 352 1184 l 1,2,-1
 375 407 l 1,3,-1
 585 1184 l 1,4,-1
 787 1184 l 1,5,-1
 828 404 l 1,6,-1
 1020 1184 l 1,7,-1
 1239 1184 l 1,8,-1
 925 0 l 1,9,-1
 694 0 l 1,10,-1
 639 748 l 1,11,-1
 422 0 l 1,12,-1
 184 0 l 1,0,-1
EndSplineSet
EndChar

StartChar: x
Encoding: 120 120 91
Width: 841
GlyphClass: 2
Flags: W
LayerCount: 2
UndoRedoHistory
Layer: 1
Undoes
EndUndoes
Redoes
EndRedoes
EndUndoRedoHistory
Fore
SplineSet
-32 0 m 1,0,-1
 291 633 l 1,1,-1
 98 1184 l 1,2,-1
 366 1184 l 1,3,-1
 483 853 l 1,4,-1
 648 1184 l 1,5,-1
 890 1184 l 1,6,-1
 573 595 l 1,7,-1
 782 0 l 1,8,-1
 513 0 l 1,9,-1
 386 362 l 1,10,-1
 212 0 l 1,11,-1
 -32 0 l 1,0,-1
EndSplineSet
EndChar

StartChar: y
Encoding: 121 121 92
Width: 849
GlyphClass: 2
Flags: W
LayerCount: 2
UndoRedoHistory
Layer: 1
Undoes
EndUndoes
Redoes
EndRedoes
EndUndoRedoHistory
Fore
SplineSet
28 -314 m 1,0,-1
 49 -115 l 1,1,2
 179 -114 179 -114 222 -90 c 0,3,4
 259 -69 259 -69 259 -7 c 0,5,6
 259 3 259 3 258 14 c 0,7,8
 254 57 254 57 236 186 c 1,9,-1
 88 1184 l 1,10,-1
 358 1184 l 1,11,-1
 423 397 l 1,12,-1
 635 1184 l 1,13,-1
 905 1184 l 1,14,-1
 493 -61 l 2,15,16
 447 -200 447 -200 339 -258 c 0,17,18
 233 -315 233 -315 67 -314 c 0,19,20
 64 -314 64 -314 61 -314 c 1,21,-1
 28 -314 l 1,0,-1
EndSplineSet
EndChar

StartChar: z
Encoding: 122 122 93
Width: 750
GlyphClass: 2
Flags: W
LayerCount: 2
UndoRedoHistory
Layer: 1
Undoes
EndUndoes
Redoes
EndRedoes
EndUndoRedoHistory
Fore
SplineSet
17 0 m 1,0,-1
 36 180 l 1,1,-1
 463 981 l 1,2,-1
 152 981 l 1,3,-1
 173 1184 l 1,4,-1
 774 1184 l 1,5,-1
 758 1028 l 1,6,-1
 329 204 l 1,7,-1
 668 204 l 1,8,-1
 647 0 l 1,9,-1
 17 0 l 1,0,-1
EndSplineSet
EndChar

StartChar: braceleft
Encoding: 123 123 94
Width: 687
GlyphClass: 2
Flags: W
LayerCount: 2
UndoRedoHistory
Layer: 1
Undoes
EndUndoes
Redoes
EndRedoes
EndUndoRedoHistory
Fore
SplineSet
540 -403 m 1,0,1
 464 -403 464 -403 410 -399.5 c 128,-1,2
 356 -396 356 -396 312 -385.5 c 128,-1,3
 268 -375 268 -375 240 -362 c 128,-1,4
 212 -349 212 -349 192.5 -322.5 c 128,-1,5
 173 -296 173 -296 164 -268.5 c 0,6,7
 154 -242 154 -242 152 -194 c 0,8,9
 151 -172 151 -172 151 -151 c 0,10,11
 151 -126 151 -126 153 -100 c 0,12,13
 156 -54 156 -54 164 20 c 2,14,-1
 190 265 l 2,15,16
 197 332 197 332 200 373 c 0,17,18
 202 398 202 398 202 420 c 0,19,20
 202 435 202 435 201 448 c 0,21,22
 199 482 199 482 193.5 498.5 c 128,-1,23
 188 515 188 515 174 526.5 c 128,-1,24
 160 538 160 538 142.5 541 c 128,-1,25
 125 544 125 544 95 544 c 1,26,-1
 115 735 l 1,27,28
 159 735 159 735 182 742.5 c 128,-1,29
 205 750 205 750 223 782 c 128,-1,30
 241 814 241 814 249.5 864 c 128,-1,31
 258 914 258 914 269 1014 c 2,32,-1
 295 1259 l 2,33,34
 302 1331 302 1331 309 1378 c 128,-1,35
 316 1425 316 1425 328 1472.5 c 128,-1,36
 340 1520 340 1520 355 1547.5 c 128,-1,37
 370 1575 370 1575 395 1601.5 c 128,-1,38
 420 1628 420 1628 451 1641 c 128,-1,39
 482 1654 482 1654 528 1664.5 c 128,-1,40
 574 1675 574 1675 629 1678.5 c 128,-1,41
 684 1682 684 1682 760 1682 c 1,42,-1
 739 1488 l 1,43,44
 702 1488 702 1488 679.5 1486 c 128,-1,45
 657 1484 657 1484 638 1473 c 128,-1,46
 619 1462 619 1462 609.5 1449.5 c 128,-1,47
 600 1437 600 1437 591 1406 c 128,-1,48
 582 1375 582 1375 578 1343 c 128,-1,49
 574 1311 574 1311 568 1252 c 2,50,-1
 538 979 l 1,51,52
 522 819 522 819 476 738.5 c 128,-1,53
 430 658 430 658 348 639 c 1,54,55
 426 620 426 620 455 540 c 0,56,57
 473 489 473 489 473 407 c 0,58,59
 473 359 473 359 467 300 c 2,60,-1
 439 27 l 2,61,62
 434 -17 434 -17 431.5 -44 c 128,-1,63
 429 -71 429 -71 429 -98.5 c 128,-1,64
 429 -126 429 -126 431 -140.5 c 128,-1,65
 433 -155 433 -155 439.5 -169.5 c 128,-1,66
 446 -184 446 -184 455 -190 c 128,-1,67
 464 -196 464 -196 480 -201.5 c 128,-1,68
 496 -207 496 -207 514.5 -208 c 128,-1,69
 533 -209 533 -209 561 -209 c 1,70,-1
 540 -403 l 1,0,1
EndSplineSet
EndChar

StartChar: bar
Encoding: 124 124 95
Width: 516
GlyphClass: 2
Flags: W
LayerCount: 2
UndoRedoHistory
Layer: 1
Undoes
EndUndoes
Redoes
EndRedoes
EndUndoRedoHistory
Fore
SplineSet
52 -330 m 1,0,-1
 262 1659 l 1,1,-1
 503 1659 l 1,2,-1
 293 -330 l 1,3,-1
 52 -330 l 1,0,-1
EndSplineSet
EndChar

StartChar: braceright
Encoding: 125 125 96
Width: 722
GlyphClass: 2
Flags: W
LayerCount: 2
UndoRedoHistory
Layer: 1
Undoes
EndUndoes
Redoes
EndRedoes
EndUndoRedoHistory
Fore
SplineSet
-4 -403 m 1,0,-1
 17 -209 l 1,1,2
 54 -209 54 -209 76.5 -207 c 128,-1,3
 99 -205 99 -205 118 -194 c 128,-1,4
 137 -183 137 -183 146.5 -170.5 c 128,-1,5
 156 -158 156 -158 165 -127 c 128,-1,6
 174 -96 174 -96 178 -64.5 c 128,-1,7
 182 -33 182 -33 189 27 c 2,8,-1
 217 300 l 2,9,10
 234 459 234 459 280.5 540 c 128,-1,11
 327 621 327 621 409 639 c 1,12,13
 332 658 332 658 302 739 c 0,14,15
 283 790 283 790 283 873 c 0,16,17
 283 921 283 921 289 979 c 2,18,-1
 318 1252 l 2,19,20
 324 1312 324 1312 326 1343 c 128,-1,21
 328 1374 328 1374 326 1405.5 c 128,-1,22
 324 1437 324 1437 317 1449.5 c 128,-1,23
 310 1462 310 1462 293.5 1473 c 128,-1,24
 277 1484 277 1484 254.5 1486 c 128,-1,25
 232 1488 232 1488 195 1488 c 1,26,-1
 216 1682 l 1,27,28
 276 1682 276 1682 322 1680 c 128,-1,29
 368 1678 368 1678 407.5 1671.5 c 128,-1,30
 447 1665 447 1665 475.5 1657 c 128,-1,31
 504 1649 504 1649 526.5 1633.5 c 128,-1,32
 549 1618 549 1618 563.5 1602 c 128,-1,33
 578 1586 578 1586 587.5 1559 c 128,-1,34
 597 1532 597 1532 600.5 1505 c 128,-1,35
 604 1478 604 1478 604 1437 c 128,-1,36
 604 1396 604 1396 601 1356.5 c 128,-1,37
 598 1317 598 1317 592 1259 c 2,38,-1
 566 1014 l 2,39,40
 559 947 559 947 556 906 c 0,41,42
 554 881 554 881 554 859 c 0,43,44
 554 844 554 844 555 831 c 0,45,46
 557 797 557 797 562.5 780.5 c 128,-1,47
 568 764 568 764 582 752.5 c 128,-1,48
 596 741 596 741 613.5 738 c 128,-1,49
 631 735 631 735 661 735 c 1,50,-1
 641 544 l 1,51,52
 605 544 605 544 584.5 538 c 128,-1,53
 564 532 564 532 547 518.5 c 128,-1,54
 530 505 530 505 520 470.5 c 128,-1,55
 510 436 510 436 502.5 391 c 128,-1,56
 495 346 495 346 487 265 c 2,57,-1
 461 20 l 2,58,59
 453 -53 453 -53 446.5 -99.5 c 128,-1,60
 440 -146 440 -146 427.5 -193.5 c 128,-1,61
 415 -241 415 -241 400.5 -268.5 c 128,-1,62
 386 -296 386 -296 361 -322.5 c 128,-1,63
 336 -349 336 -349 305 -362 c 128,-1,64
 274 -375 274 -375 227.5 -385.5 c 128,-1,65
 181 -396 181 -396 126.5 -399.5 c 128,-1,66
 72 -403 72 -403 -4 -403 c 1,0,-1
EndSplineSet
EndChar

StartChar: asciitilde
Encoding: 126 126 97
Width: 956
GlyphClass: 2
Flags: W
LayerCount: 2
UndoRedoHistory
Layer: 1
Undoes
EndUndoes
Redoes
EndRedoes
EndUndoRedoHistory
Fore
SplineSet
664 715 m 0,0,1
 618 715 618 715 558 745 c 128,-1,2
 498 775 498 775 443 805 c 128,-1,3
 388 835 388 835 352 835 c 0,4,5
 326 835 326 835 281 810.5 c 128,-1,6
 236 786 236 786 196 749 c 1,7,-1
 117 874 l 1,8,9
 171 935 171 935 250 988.5 c 128,-1,10
 329 1042 329 1042 383 1042 c 0,11,12
 429 1042 429 1042 488 1012.5 c 128,-1,13
 547 983 547 983 602 953.5 c 128,-1,14
 657 924 657 924 692 924 c 0,15,16
 738 924 738 924 846 1013 c 1,17,-1
 931 900 l 1,18,19
 881 832 881 832 802.5 773.5 c 128,-1,20
 724 715 724 715 664 715 c 0,0,1
EndSplineSet
EndChar

StartChar: exclamdown
Encoding: 161 161 99
Width: 450
GlyphClass: 2
Flags: W
LayerCount: 2
UndoRedoHistory
Layer: 1
Undoes
EndUndoes
Redoes
EndRedoes
EndUndoRedoHistory
Fore
SplineSet
2 -341 m 1,0,-1
 230 935 l 1,1,-1
 326 935 l 1,2,-1
 276 -341 l 1,3,-1
 2 -341 l 1,0,-1
157 1049 m 1,4,-1
 185 1315 l 1,5,-1
 452 1315 l 1,6,-1
 424 1049 l 1,7,-1
 157 1049 l 1,4,-1
EndSplineSet
EndChar

StartChar: cent
Encoding: 162 162 100
Width: 849
GlyphClass: 2
Flags: W
LayerCount: 2
UndoRedoHistory
Layer: 1
Undoes
EndUndoes
Redoes
EndRedoes
EndUndoRedoHistory
Fore
SplineSet
323 -195 m 1,0,-1
 342 -15 l 1,1,2
 258 -6 258 -6 201 29 c 128,-1,3
 144 64 144 64 115 120.5 c 128,-1,4
 86 177 86 177 76 254 c 0,5,6
 72 290 72 290 72 329 c 0,7,8
 72 375 72 375 78 425 c 2,9,-1
 114 759 l 1,10,11
 134 957 134 957 218 1068.5 c 128,-1,12
 302 1180 302 1180 469 1199 c 1,13,-1
 488 1376 l 1,14,-1
 565 1376 l 1,15,-1
 547 1201 l 1,16,17
 730 1198 730 1198 800 1110 c 0,18,19
 856 1040 856 1040 856 910 c 0,20,21
 856 875 856 875 852 836 c 2,22,-1
 842 742 l 1,23,-1
 586 742 l 1,24,-1
 596 838 l 2,25,26
 600 871 600 871 600 898 c 0,27,28
 600 944 600 944 588 966 c 0,29,30
 570 1002 570 1002 516 1003 c 0,31,32
 455 1003 455 1003 429.5 959.5 c 128,-1,33
 404 916 404 916 392 799 c 2,34,-1
 348 379 l 2,35,36
 343 333 343 333 343 299 c 0,37,38
 342 246 342 246 354 222 c 0,39,40
 372 182 372 182 429.5 181.5 c 128,-1,41
 487 181 487 181 511.5 220 c 128,-1,42
 536 259 536 259 544 340 c 2,43,-1
 557 461 l 1,44,-1
 812 461 l 1,45,-1
 801 352 l 2,46,47
 782 170 782 170 690.5 77.5 c 128,-1,48
 599 -15 599 -15 419 -18 c 1,49,-1
 400 -195 l 1,50,-1
 323 -195 l 1,0,-1
EndSplineSet
EndChar

StartChar: sterling
Encoding: 163 163 101
Width: 895
GlyphClass: 2
Flags: W
LayerCount: 2
UndoRedoHistory
Layer: 1
Undoes
EndUndoes
Redoes
EndRedoes
EndUndoRedoHistory
Fore
SplineSet
-34 0 m 1,0,-1
 -19 145 l 1,1,-1
 107 204 l 1,2,-1
 158 690 l 1,3,-1
 39 690 l 1,4,-1
 60 899 l 1,5,-1
 180 899 l 1,6,-1
 199 1079 l 2,7,8
 207 1155 207 1155 216 1213.5 c 128,-1,9
 225 1272 225 1272 241.5 1337 c 128,-1,10
 258 1402 258 1402 279 1449 c 128,-1,11
 300 1496 300 1496 332.5 1541.5 c 128,-1,12
 365 1587 365 1587 407 1615 c 128,-1,13
 449 1643 449 1643 506.5 1660 c 128,-1,14
 564 1677 564 1677 635 1677 c 0,15,16
 726 1677 726 1677 788 1647.5 c 128,-1,17
 850 1618 850 1618 879.5 1565.5 c 0,18,19
 909 1512 909 1512 920 1440 c 0,20,21
 926 1404 926 1404 926 1365 c 128,-1,22
 926 1326 926 1326 920 1283 c 1,23,-1
 914 1219 l 1,24,-1
 692 1219 l 1,25,26
 696 1278 696 1278 698 1329 c 0,27,28
 698 1332 698 1332 699 1336 c 0,29,30
 698 1382 698 1382 678 1414 c 0,31,32
 656 1448 656 1448 612 1449 c 0,33,34
 585 1449 585 1449 564 1434 c 128,-1,35
 543 1419 543 1419 530 1397.5 c 128,-1,36
 517 1376 517 1376 507 1338.5 c 128,-1,37
 497 1301 497 1301 492 1271 c 128,-1,38
 487 1241 487 1241 481 1194 c 1,39,-1
 450 898 l 1,40,-1
 688 898 l 1,41,-1
 667 690 l 1,42,-1
 428 690 l 1,43,-1
 379 218 l 1,44,-1
 805 218 l 1,45,-1
 782 0 l 1,46,-1
 -34 0 l 1,0,-1
EndSplineSet
EndChar

StartChar: currency
Encoding: 164 164 102
Width: 1138
GlyphClass: 2
Flags: W
LayerCount: 2
UndoRedoHistory
Layer: 1
Undoes
EndUndoes
Redoes
EndRedoes
EndUndoRedoHistory
Fore
SplineSet
104 381 m 1,0,-1
 77 411 l 1,1,-1
 257 573 l 1,2,3
 174 678 174 678 174 815 c 0,4,5
 174 840 174 840 177 866 c 0,6,7
 195 1035 195 1035 319 1159 c 1,8,-1
 173 1321 l 1,9,-1
 206 1351 l 1,10,-1
 351 1189 l 1,11,12
 486 1304 486 1304 653 1304 c 0,13,14
 654 1304 654 1304 655.5 1304 c 129,-1,15
 657 1304 657 1304 659 1304 c 0,16,17
 828 1304 828 1304 937 1189 c 1,18,-1
 1116 1351 l 1,19,-1
 1143 1321 l 1,20,-1
 964 1159 l 1,21,22
 1046 1054 1046 1054 1046 918 c 0,23,24
 1046 893 1046 893 1043 866 c 0,25,26
 1025 697 1025 697 901 573 c 1,27,-1
 1047 411 l 1,28,-1
 1014 381 l 1,29,-1
 869 543 l 1,30,31
 736 428 736 428 567 428 c 0,32,33
 566 428 566 428 564.5 428 c 129,-1,34
 563 428 563 428 561 428 c 0,35,36
 394 428 394 428 283 543 c 1,37,-1
 104 381 l 1,0,-1
574 521 m 128,-1,39
 715 521 715 521 822.5 622 c 128,-1,40
 930 723 930 723 945 866 c 0,41,42
 947 887 947 887 947 908 c 0,43,44
 947 1024 947 1024 874 1110 c 0,45,46
 788 1211 788 1211 646 1211 c 0,47,48
 505 1211 505 1211 398 1110 c 128,-1,49
 291 1009 291 1009 276 866 c 0,50,51
 274 845 274 845 274 824 c 0,52,53
 274 708 274 708 347 622 c 0,54,38
 433 521 433 521 574 521 c 128,-1,39
EndSplineSet
EndChar

StartChar: yen
Encoding: 165 165 103
Width: 958
GlyphClass: 2
Flags: W
LayerCount: 2
UndoRedoHistory
Layer: 1
Undoes
EndUndoes
Redoes
EndRedoes
EndUndoRedoHistory
Fore
SplineSet
304 0 m 1,0,-1
 329 240 l 1,1,-1
 155 240 l 1,2,-1
 172 399 l 1,3,-1
 346 399 l 1,4,-1
 359 525 l 1,5,-1
 186 525 l 1,6,-1
 202 685 l 1,7,-1
 345 685 l 1,8,-1
 138 1658 l 1,9,-1
 414 1658 l 1,10,-1
 549 942 l 1,11,-1
 825 1658 l 1,12,-1
 1098 1658 l 1,13,-1
 689 685 l 1,14,-1
 832 685 l 1,15,-1
 815 525 l 1,16,-1
 642 525 l 1,17,-1
 628 399 l 1,18,-1
 802 399 l 1,19,-1
 785 240 l 1,20,-1
 612 240 l 1,21,-1
 586 0 l 1,22,-1
 304 0 l 1,0,-1
EndSplineSet
EndChar

StartChar: brokenbar
Encoding: 166 166 104
Width: 442
GlyphClass: 2
Flags: W
LayerCount: 2
UndoRedoHistory
Layer: 1
Undoes
EndUndoes
Redoes
EndRedoes
EndUndoRedoHistory
Fore
SplineSet
34 -330 m 1,0,-1
 122 505 l 1,1,-1
 327 505 l 1,2,-1
 239 -330 l 1,3,-1
 34 -330 l 1,0,-1
155 823 m 1,4,-1
 242 1658 l 1,5,-1
 448 1658 l 1,6,-1
 361 823 l 1,7,-1
 155 823 l 1,4,-1
EndSplineSet
EndChar

StartChar: section
Encoding: 167 167 105
Width: 919
GlyphClass: 2
Flags: W
LayerCount: 2
UndoRedoHistory
Layer: 1
Undoes
EndUndoes
Redoes
EndRedoes
EndUndoRedoHistory
Fore
SplineSet
405 -15 m 0,0,1
 328 -15 328 -15 267.5 10 c 128,-1,2
 207 35 207 35 168.5 80.5 c 128,-1,3
 130 126 130 126 106.5 182 c 128,-1,4
 83 238 83 238 74 307 c 1,5,-1
 276 366 l 1,6,7
 321 196 321 196 430 196 c 0,8,9
 486 196 486 196 521.5 222.5 c 128,-1,10
 557 249 557 249 566 300 c 0,11,12
 569 315 569 315 569 328 c 0,13,14
 569 360 569 360 554 388 c 0,15,16
 533 426 533 426 479 462 c 2,17,-1
 277 593 l 2,18,19
 198 642 198 642 160 706 c 0,20,21
 131 754 131 754 131 822 c 0,22,23
 131 843 131 843 134 866 c 0,24,25
 147 963 147 963 201 1030.5 c 128,-1,26
 255 1098 255 1098 335 1128 c 1,27,28
 267 1170 267 1170 222 1238 c 0,29,30
 184 1296 184 1296 184 1365 c 0,31,32
 184 1377 184 1377 185 1389 c 1,33,34
 196 1529 196 1529 308.5 1609.5 c 128,-1,35
 421 1690 421 1690 585 1690 c 0,36,37
 737 1690 737 1690 819.5 1600.5 c 128,-1,38
 902 1511 902 1511 921 1366 c 1,39,-1
 722 1308 l 1,40,41
 714 1342 714 1342 704 1368.5 c 128,-1,42
 694 1395 694 1395 676.5 1423 c 128,-1,43
 659 1451 659 1451 631 1466 c 128,-1,44
 603 1481 603 1481 567 1481 c 0,45,46
 514 1481 514 1481 481 1453 c 128,-1,47
 448 1425 448 1425 442 1373 c 0,48,49
 441 1368 441 1368 441 1363 c 0,50,51
 441 1304 441 1304 516 1255 c 2,52,-1
 730 1112 l 2,53,54
 800 1066 800 1066 834 994 c 0,55,56
 861 937 861 937 862 868 c 0,57,58
 862 850 862 850 860 832 c 1,59,60
 841 668 841 668 679 575 c 1,61,62
 749 515 749 515 783 453 c 0,63,64
 810 404 810 404 810 342 c 0,65,66
 810 326 810 326 808 308 c 0,67,68
 792 156 792 156 683.5 70.5 c 128,-1,69
 575 -15 575 -15 405 -15 c 0,0,1
528 705 m 1,70,71
 566 723 566 723 595.5 753.5 c 128,-1,72
 625 784 625 784 629 824 c 0,73,74
 630 830 630 830 630 836 c 0,75,76
 630 860 630 860 620 886 c 0,77,78
 608 918 608 918 576 938 c 2,79,-1
 483 1000 l 1,80,81
 443 981 443 981 413.5 946 c 128,-1,82
 384 911 384 911 379 868 c 0,83,84
 378 862 378 862 378 857 c 0,85,86
 378 836 378 836 388 814 c 0,87,88
 400 788 400 788 420 774 c 2,89,-1
 528 705 l 1,70,71
EndSplineSet
EndChar

StartChar: dieresis
Encoding: 168 168 106
Width: 844
GlyphClass: 2
Flags: W
LayerCount: 2
UndoRedoHistory
Layer: 1
Undoes
EndUndoes
Redoes
EndRedoes
EndUndoRedoHistory
Fore
SplineSet
200 1396 m 1,0,-1
 227 1658 l 1,1,-1
 476 1658 l 1,2,-1
 449 1396 l 1,3,-1
 200 1396 l 1,0,-1
588 1396 m 1,4,-1
 616 1658 l 1,5,-1
 866 1658 l 1,6,-1
 838 1396 l 1,7,-1
 588 1396 l 1,4,-1
EndSplineSet
EndChar

StartChar: copyright
Encoding: 169 169 107
Width: 1782
GlyphClass: 2
Flags: W
LayerCount: 2
UndoRedoHistory
Layer: 1
Undoes
EndUndoes
Redoes
EndRedoes
EndUndoRedoHistory
Fore
SplineSet
871 254 m 0,0,1
 648 254 648 254 566 370 c 0,2,3
 502 459 502 459 503 612 c 0,4,5
 503 656 503 656 508 706 c 2,6,-1
 538 991 l 2,7,8
 561 1212 561 1212 667.5 1327 c 128,-1,9
 774 1442 774 1442 996 1442 c 0,10,11
 1204 1442 1204 1442 1286 1352 c 0,12,13
 1352 1279 1352 1279 1352 1141 c 0,14,15
 1352 1107 1352 1107 1348 1070 c 2,16,-1
 1340 992 l 1,17,-1
 1064 992 l 1,18,-1
 1072 1072 l 2,19,20
 1075 1102 1075 1102 1075 1126 c 0,21,22
 1074 1178 1074 1178 1060 1204 c 0,23,24
 1038 1242 1038 1242 978 1242 c 0,25,26
 910 1242 910 1242 880 1196.5 c 128,-1,27
 850 1151 850 1151 838 1032 c 2,28,-1
 798 658 l 2,29,30
 794 617 794 617 794 585 c 0,31,32
 794 525 794 525 808 497 c 0,33,34
 830 455 830 455 896 455 c 0,35,36
 960 455 960 455 988.5 496 c 128,-1,37
 1017 537 1017 537 1025 618 c 2,38,-1
 1034 711 l 1,39,-1
 1310 711 l 1,40,-1
 1302 631 l 2,41,42
 1283 443 1283 443 1179 348.5 c 128,-1,43
 1075 254 1075 254 871 254 c 0,0,1
853 65 m 0,44,45
 998 65 998 65 1123.5 108.5 c 128,-1,46
 1249 152 1249 152 1339.5 226 c 128,-1,47
 1430 300 1430 300 1497.5 399.5 c 128,-1,48
 1565 499 1565 499 1603 609.5 c 128,-1,49
 1641 720 1641 720 1654 839 c 0,50,51
 1659 893 1659 893 1659 945 c 0,52,53
 1660 1008 1660 1008 1652 1068 c 0,54,55
 1638 1178 1638 1178 1590.5 1277.5 c 128,-1,56
 1543 1377 1543 1377 1468 1450 c 128,-1,57
 1393 1523 1393 1523 1277 1566 c 128,-1,58
 1161 1609 1161 1609 1016 1609 c 0,59,60
 870 1609 870 1609 744.5 1566 c 128,-1,61
 619 1523 619 1523 528.5 1450 c 128,-1,62
 438 1377 438 1377 370.5 1278 c 128,-1,63
 303 1179 303 1179 265 1068.5 c 128,-1,64
 227 958 227 958 215 839 c 0,65,66
 209 783 209 783 209 728 c 0,67,68
 208 668 208 668 216 610 c 0,69,70
 230 500 230 500 277.5 400 c 128,-1,71
 325 300 325 300 399.5 226 c 128,-1,72
 474 152 474 152 590.5 108.5 c 128,-1,73
 707 65 707 65 853 65 c 0,44,45
839 -24 m 0,74,75
 732 -24 732 -24 638.5 -4 c 128,-1,76
 545 16 545 16 473 52.5 c 128,-1,77
 401 89 401 89 340.5 139.5 c 128,-1,78
 280 190 280 190 239 251.5 c 128,-1,79
 198 313 198 313 167 383.5 c 128,-1,80
 136 454 136 454 122.5 529 c 0,81,82
 110 604 110 604 104 682 c 0,83,84
 102 708 102 708 102 735 c 0,85,86
 102 787 102 787 109 839 c 1,87,88
 122 967 122 967 163.5 1088.5 c 128,-1,89
 205 1210 205 1210 281 1322 c 128,-1,90
 357 1434 357 1434 459.5 1517.5 c 128,-1,91
 562 1601 562 1601 707 1651 c 128,-1,92
 852 1701 852 1701 1021 1701 c 128,-1,93
 1190 1701 1190 1701 1323.5 1651 c 128,-1,94
 1457 1601 1457 1601 1541.5 1517.5 c 128,-1,95
 1626 1434 1626 1434 1678 1322 c 128,-1,96
 1730 1210 1730 1210 1746 1089 c 0,97,98
 1755 1022 1755 1022 1755 953 c 0,99,100
 1755 897 1755 897 1749 839 c 0,101,102
 1736 710 1736 710 1694.5 589 c 128,-1,103
 1653 468 1653 468 1577.5 355.5 c 128,-1,104
 1502 243 1502 243 1400 159.5 c 128,-1,105
 1298 76 1298 76 1153 26 c 128,-1,106
 1008 -24 1008 -24 839 -24 c 0,74,75
EndSplineSet
EndChar

StartChar: ordfeminine
Encoding: 170 170 108
Width: 950
GlyphClass: 2
Flags: W
LayerCount: 2
UndoRedoHistory
Layer: 1
Undoes
EndUndoes
Redoes
EndRedoes
EndUndoRedoHistory
Fore
SplineSet
387 645 m 0,0,1
 286 646 286 646 230 714 c 0,2,3
 183 771 183 771 183 851 c 0,4,5
 183 865 183 865 185 880 c 0,6,7
 189 917 189 917 200.5 950 c 128,-1,8
 212 983 212 983 226 1009 c 128,-1,9
 240 1035 240 1035 263.5 1059.5 c 128,-1,10
 287 1084 287 1084 308 1101 c 128,-1,11
 329 1118 329 1118 361 1136 c 128,-1,12
 393 1154 393 1154 416 1165 c 128,-1,13
 439 1176 439 1176 475.5 1189.5 c 128,-1,14
 512 1203 512 1203 534 1210 c 128,-1,15
 556 1217 556 1217 593.5 1229 c 128,-1,16
 631 1241 631 1241 648 1247 c 1,17,-1
 660 1358 l 1,18,19
 662 1378 662 1378 662 1394 c 0,20,21
 662 1494 662 1494 601 1494 c 0,22,23
 553 1494 553 1494 530.5 1452 c 128,-1,24
 508 1410 508 1410 495 1326 c 1,25,-1
 266 1329 l 1,26,27
 286 1496 286 1496 382 1589.5 c 128,-1,28
 478 1683 478 1683 633 1683 c 0,29,30
 800 1684 800 1684 858 1588 c 0,31,32
 902 1516 902 1516 902 1393 c 0,33,34
 902 1353 902 1353 897 1308 c 2,35,-1
 829 659 l 1,36,-1
 609 659 l 1,37,-1
 617 793 l 1,38,39
 581 728 581 728 520.5 686.5 c 128,-1,40
 460 645 460 645 387 645 c 0,0,1
498 833 m 0,41,42
 530 833 530 833 561.5 855 c 128,-1,43
 593 877 593 877 612 908 c 1,44,-1
 637 1146 l 1,45,46
 442 1050 442 1050 431 933 c 0,47,48
 430 923 430 923 430 914 c 0,49,50
 430 881 430 881 444 860 c 0,51,52
 462 833 462 833 498 833 c 0,41,42
EndSplineSet
EndChar

StartChar: guillemotleft
Encoding: 171 171 109
Width: 967
GlyphClass: 2
Flags: W
LayerCount: 2
UndoRedoHistory
Layer: 1
Undoes
EndUndoes
Redoes
EndRedoes
EndUndoRedoHistory
Fore
SplineSet
381 64 m 1,0,-1
 72 540 l 1,1,-1
 84 657 l 1,2,-1
 494 1134 l 1,3,-1
 462 827 l 1,4,-1
 263 599 l 1,5,-1
 413 370 l 1,6,-1
 381 64 l 1,0,-1
808 64 m 1,7,-1
 498 540 l 1,8,-1
 510 657 l 1,9,-1
 921 1134 l 1,10,-1
 889 827 l 1,11,-1
 689 599 l 1,12,-1
 840 370 l 1,13,-1
 808 64 l 1,7,-1
EndSplineSet
EndChar

StartChar: logicalnot
Encoding: 172 172 110
Width: 887
GlyphClass: 2
Flags: W
LayerCount: 2
UndoRedoHistory
Layer: 1
Undoes
EndUndoes
Redoes
EndRedoes
EndUndoRedoHistory
Fore
SplineSet
681 478 m 1,0,-1
 708 743 l 1,1,-1
 115 743 l 1,2,-1
 136 939 l 1,3,-1
 866 939 l 1,4,-1
 817 478 l 1,5,-1
 681 478 l 1,0,-1
EndSplineSet
EndChar

StartChar: uni00AD
Encoding: 173 173 111
Width: 729
GlyphClass: 2
Flags: W
LayerCount: 2
UndoRedoHistory
Layer: 1
Undoes
EndUndoes
Redoes
EndRedoes
EndUndoRedoHistory
Fore
SplineSet
161 832 m 1,0,-1
 181 1024 l 1,1,-1
 669 1024 l 1,2,-1
 650 832 l 1,3,-1
 161 832 l 1,0,-1
EndSplineSet
EndChar

StartChar: registered
Encoding: 174 174 112
Width: 1824
GlyphClass: 2
Flags: W
LayerCount: 2
UndoRedoHistory
Layer: 1
Undoes
EndUndoes
Redoes
EndRedoes
EndUndoRedoHistory
Fore
SplineSet
566 309 m 1,0,-1
 677 1359 l 1,1,-1
 1003 1359 l 2,2,3
 1186 1358 1186 1358 1268 1286 c 0,4,5
 1337 1225 1337 1225 1337 1105 c 0,6,7
 1337 1081 1337 1081 1334 1056 c 0,8,9
 1324 959 1324 959 1277.5 898.5 c 128,-1,10
 1231 838 1231 838 1146 799 c 1,11,-1
 1283 309 l 1,12,-1
 1041 309 l 1,13,-1
 931 753 l 1,14,-1
 844 753 l 1,15,-1
 797 309 l 1,16,-1
 566 309 l 1,0,-1
856 873 m 1,17,-1
 898 873 l 2,18,19
 1006 873 1006 873 1051 913.5 c 128,-1,20
 1096 954 1096 954 1106 1052 c 0,21,22
 1108 1070 1108 1070 1108 1086 c 0,23,24
 1108 1141 1108 1141 1084 1173 c 0,25,26
 1053 1214 1053 1214 974 1214 c 2,27,-1
 892 1214 l 1,28,-1
 856 873 l 1,17,-1
871 81 m 0,29,30
 1010 81 1010 81 1130 123 c 128,-1,31
 1250 165 1250 165 1336.5 236 c 128,-1,32
 1423 307 1423 307 1487.5 403 c 128,-1,33
 1552 499 1552 499 1588.5 606 c 128,-1,34
 1625 713 1625 713 1637 827 c 0,35,36
 1643 880 1643 880 1643 931 c 0,37,38
 1643 990 1643 990 1635 1048 c 0,39,40
 1621 1154 1621 1154 1576.5 1250 c 128,-1,41
 1532 1346 1532 1346 1460 1417 c 128,-1,42
 1388 1488 1388 1488 1277 1529.5 c 128,-1,43
 1166 1571 1166 1571 1027 1571 c 0,44,45
 887 1571 887 1571 766.5 1529.5 c 128,-1,46
 646 1488 646 1488 559 1417 c 128,-1,47
 472 1346 472 1346 407 1250.5 c 128,-1,48
 342 1155 342 1155 306 1048.5 c 128,-1,49
 270 942 270 942 258 827 c 0,50,51
 252 774 252 774 252 723 c 0,52,53
 252 662 252 662 260 606 c 0,54,55
 274 500 274 500 318.5 403.5 c 128,-1,56
 363 307 363 307 435 236 c 128,-1,57
 507 165 507 165 619 123 c 128,-1,58
 731 81 731 81 871 81 c 0,29,30
860 -28 m 0,59,60
 692 -28 692 -28 558.5 22 c 128,-1,61
 425 72 425 72 341 155 c 128,-1,62
 257 238 257 238 205 349.5 c 0,63,64
 154 461 154 461 138 581 c 0,65,66
 130 646 130 646 129 714 c 0,67,68
 129 770 129 770 135 828 c 0,69,70
 148 956 148 956 189 1076 c 128,-1,71
 230 1196 230 1196 305.5 1307.5 c 128,-1,72
 381 1419 381 1419 482.5 1502 c 128,-1,73
 584 1585 584 1585 728 1634.5 c 128,-1,74
 872 1684 872 1684 1040 1684 c 0,75,76
 1146 1684 1146 1684 1238.5 1664 c 128,-1,77
 1331 1644 1331 1644 1402.5 1608 c 128,-1,78
 1474 1572 1474 1572 1534 1522 c 128,-1,79
 1594 1472 1594 1472 1634.5 1411 c 128,-1,80
 1675 1350 1675 1350 1705.5 1280.5 c 128,-1,81
 1736 1211 1736 1211 1749.5 1136 c 128,-1,82
 1763 1061 1763 1061 1768 983 c 0,83,84
 1770 957 1770 957 1770 931 c 0,85,86
 1770 879 1770 879 1763 828 c 1,87,88
 1752 722 1752 722 1721 621 c 128,-1,89
 1690 520 1690 520 1639 423 c 128,-1,90
 1588 326 1588 326 1512.5 245 c 128,-1,91
 1437 164 1437 164 1343 102.5 c 128,-1,92
 1249 41 1249 41 1125 6.5 c 128,-1,93
 1001 -28 1001 -28 860 -28 c 0,59,60
EndSplineSet
EndChar

StartChar: macron
Encoding: 175 175 113
Width: 503
GlyphClass: 2
Flags: W
LayerCount: 2
UndoRedoHistory
Layer: 1
Undoes
EndUndoes
Redoes
EndRedoes
EndUndoRedoHistory
Fore
SplineSet
152 1511 m 1,0,-1
 167 1658 l 1,1,-1
 614 1658 l 1,2,-1
 598 1511 l 1,3,-1
 152 1511 l 1,0,-1
EndSplineSet
EndChar

StartChar: degree
Encoding: 176 176 114
Width: 1009
GlyphClass: 2
Flags: W
LayerCount: 2
UndoRedoHistory
Layer: 1
Undoes
EndUndoes
Redoes
EndRedoes
EndUndoRedoHistory
Fore
SplineSet
569 1094 m 0,0,1
 658 1094 658 1094 713 1151.5 c 128,-1,2
 768 1209 768 1209 778 1302 c 0,3,4
 780 1318 780 1318 780 1333 c 0,5,6
 780 1405 780 1405 744 1452 c 0,7,8
 701 1509 701 1509 612 1509 c 128,-1,9
 523 1509 523 1509 468.5 1452.5 c 128,-1,10
 414 1396 414 1396 404 1303 c 1,11,12
 402 1287 402 1287 402 1272 c 0,13,14
 402 1200 402 1200 438 1152 c 0,15,16
 481 1094 481 1094 569 1094 c 0,0,1
551 927 m 128,-1,18
 376 927 376 927 286 1029 c 0,19,20
 211 1114 211 1114 210 1248 c 0,21,22
 210 1275 210 1275 213 1303 c 0,23,24
 232 1475 232 1475 344 1576 c 128,-1,25
 456 1677 456 1677 630 1677 c 128,-1,26
 804 1677 804 1677 896 1576 c 0,27,28
 972 1492 972 1492 972 1358 c 0,29,30
 972 1332 972 1332 969 1303 c 0,31,32
 951 1130 951 1130 838.5 1028.5 c 128,-1,17
 726 927 726 927 551 927 c 128,-1,18
EndSplineSet
EndChar

StartChar: plusminus
Encoding: 177 177 115
Width: 853
GlyphClass: 2
Flags: W
LayerCount: 2
UndoRedoHistory
Layer: 1
Undoes
EndUndoes
Redoes
EndRedoes
EndUndoRedoHistory
Fore
SplineSet
320 364 m 1,0,-1
 342 575 l 1,1,-1
 134 575 l 1,2,-1
 154 760 l 1,3,-1
 362 760 l 1,4,-1
 383 971 l 1,5,-1
 573 971 l 1,6,-1
 551 760 l 1,7,-1
 759 760 l 1,8,-1
 740 575 l 1,9,-1
 532 575 l 1,10,-1
 510 364 l 1,11,-1
 320 364 l 1,0,-1
74 0 m 1,12,-1
 93 188 l 1,13,-1
 699 188 l 1,14,-1
 679 0 l 1,15,-1
 74 0 l 1,12,-1
EndSplineSet
EndChar

StartChar: twosuperior
Encoding: 178 178 116
Width: 847
GlyphClass: 2
Flags: W
LayerCount: 2
UndoRedoHistory
Layer: 1
Undoes
EndUndoes
Redoes
EndRedoes
EndUndoRedoHistory
Fore
SplineSet
166 673 m 1,0,-1
 182 833 l 1,1,-1
 501 1249 l 2,2,3
 511 1263 511 1263 538.5 1297.5 c 128,-1,4
 566 1332 566 1332 579 1351 c 128,-1,5
 592 1370 592 1370 611 1400 c 128,-1,6
 630 1430 630 1430 639.5 1458.5 c 128,-1,7
 649 1487 649 1487 652 1517 c 0,8,9
 653 1531 653 1531 653 1543 c 0,10,11
 653 1588 653 1588 633 1612 c 0,12,13
 611 1637 611 1637 571 1637 c 0,14,15
 563 1637 563 1637 555 1636 c 0,16,17
 499 1630 499 1630 472.5 1584 c 128,-1,18
 446 1538 446 1538 434 1423 c 1,19,-1
 241 1423 l 1,20,-1
 246 1472 l 2,21,22
 263 1630 263 1630 346 1720 c 128,-1,23
 429 1810 429 1810 582 1810 c 0,24,25
 720 1810 720 1810 792 1732 c 0,26,27
 852 1668 852 1668 852 1563 c 0,28,29
 852 1541 852 1541 849 1517 c 0,30,31
 846 1492 846 1492 839.5 1465.5 c 128,-1,32
 833 1439 833 1439 826.5 1420 c 128,-1,33
 820 1401 820 1401 804.5 1372 c 128,-1,34
 789 1343 789 1343 782 1329.5 c 128,-1,35
 775 1316 775 1316 752 1283.5 c 128,-1,36
 729 1251 729 1251 723.5 1242.5 c 128,-1,37
 718 1234 718 1234 689.5 1196.5 c 128,-1,38
 661 1159 661 1159 657 1154 c 2,39,-1
 413 834 l 1,40,-1
 743 834 l 1,41,-1
 727 673 l 1,42,-1
 166 673 l 1,0,-1
EndSplineSet
EndChar

StartChar: threesuperior
Encoding: 179 179 117
Width: 847
GlyphClass: 2
Flags: W
LayerCount: 2
UndoRedoHistory
Layer: 1
Undoes
EndUndoes
Redoes
EndRedoes
EndUndoRedoHistory
Fore
SplineSet
447 654 m 0,0,1
 365 654 365 654 309 678.5 c 128,-1,2
 253 703 253 703 226 747.5 c 128,-1,3
 199 792 199 792 189 853 c 0,4,5
 184 883 184 883 184 917 c 128,-1,6
 184 951 184 951 189 988 c 1,7,-1
 192 1020 l 1,8,-1
 393 1020 l 1,9,-1
 389 983 l 2,10,11
 386 954 386 954 386 931 c 0,12,13
 386 884 386 884 398 860 c 0,14,15
 416 824 416 824 470 824 c 0,16,17
 520 824 520 824 548 862.5 c 128,-1,18
 576 901 576 901 585 989 c 0,19,20
 588 1018 588 1018 588 1043 c 0,21,22
 588 1099 588 1099 572 1131 c 0,23,24
 549 1177 549 1177 481 1177 c 2,25,-1
 420 1177 l 1,26,-1
 434 1309 l 1,27,-1
 491 1309 l 2,28,29
 562 1309 562 1309 593.5 1353 c 128,-1,30
 625 1397 625 1397 636 1500 c 0,31,32
 638 1523 638 1523 638 1542 c 0,33,34
 638 1586 638 1586 626 1612 c 0,35,36
 608 1648 608 1648 557 1648 c 0,37,38
 505 1648 505 1648 479.5 1612.5 c 128,-1,39
 454 1577 454 1577 446 1507 c 1,40,-1
 441 1454 l 1,41,-1
 240 1454 l 1,42,-1
 246 1510 l 2,43,44
 261 1653 261 1653 346 1731.5 c 128,-1,45
 431 1810 431 1810 573 1810 c 0,46,47
 714 1810 714 1810 782 1732 c 0,48,49
 838 1668 838 1668 838 1562 c 0,50,51
 838 1539 838 1539 835 1513 c 0,52,53
 824 1408 824 1408 778 1338.5 c 128,-1,54
 732 1269 732 1269 675 1256 c 1,55,56
 786 1212 786 1212 786 1053 c 0,57,58
 786 1026 786 1026 783 996 c 0,59,60
 767 839 767 839 684 746.5 c 128,-1,61
 601 654 601 654 447 654 c 0,0,1
EndSplineSet
EndChar

StartChar: acute
Encoding: 180 180 118
Width: 608
GlyphClass: 2
Flags: W
LayerCount: 2
UndoRedoHistory
Layer: 1
Undoes
EndUndoes
Redoes
EndRedoes
EndUndoRedoHistory
Fore
SplineSet
197 1249 m 1,0,-1
 361 1658 l 1,1,-1
 638 1658 l 1,2,-1
 351 1249 l 1,3,-1
 197 1249 l 1,0,-1
EndSplineSet
EndChar

StartChar: mu
Encoding: 181 181 119
Width: 951
GlyphClass: 2
Flags: W
LayerCount: 2
UndoRedoHistory
Layer: 1
Undoes
EndUndoes
Redoes
EndRedoes
EndUndoRedoHistory
Fore
SplineSet
9 -369 m 1,0,-1
 170 1184 l 1,1,-1
 444 1184 l 1,2,-1
 351 299 l 2,3,4
 349 282 349 282 349 268 c 0,5,6
 349 236 349 236 359 216 c 0,7,8
 373 188 373 188 420 188 c 0,9,10
 470 189 470 189 547 241 c 1,11,-1
 646 1184 l 1,12,-1
 920 1184 l 1,13,-1
 796 0 l 1,14,-1
 522 0 l 1,15,-1
 533 106 l 1,16,17
 440 28 440 28 349 1 c 0,18,19
 334 -4 334 -4 322 -7 c 1,20,-1
 284 -369 l 1,21,-1
 9 -369 l 1,0,-1
EndSplineSet
EndChar

StartChar: paragraph
Encoding: 182 182 120
Width: 1033
GlyphClass: 2
Flags: W
LayerCount: 2
UndoRedoHistory
Layer: 1
Undoes
EndUndoes
Redoes
EndRedoes
EndUndoRedoHistory
Fore
SplineSet
327 -196 m 1,0,-1
 456 1031 l 1,1,2
 308 1032 308 1032 226 1114 c 0,3,4
 158 1182 158 1182 158 1297 c 0,5,6
 158 1319 158 1319 161 1343 c 0,7,8
 178 1506 178 1506 289.5 1582 c 128,-1,9
 401 1658 401 1658 579 1658 c 2,10,-1
 1026 1658 l 1,11,-1
 831 -196 l 1,12,-1
 657 -196 l 1,13,-1
 838 1518 l 1,14,-1
 686 1518 l 1,15,-1
 506 -196 l 1,16,-1
 327 -196 l 1,0,-1
EndSplineSet
EndChar

StartChar: periodcentered
Encoding: 183 183 121
Width: 394
GlyphClass: 2
Flags: W
LayerCount: 2
UndoRedoHistory
Layer: 1
Undoes
EndUndoes
Redoes
EndRedoes
EndUndoRedoHistory
Fore
SplineSet
82 638 m 1,0,-1
 109 903 l 1,1,-1
 376 903 l 1,2,-1
 349 638 l 1,3,-1
 82 638 l 1,0,-1
EndSplineSet
EndChar

StartChar: cedilla
Encoding: 184 184 122
Width: 545
GlyphClass: 4
Flags: W
AnchorPoint: "Anchor-1" 120 0 mark 0
LayerCount: 2
UndoRedoHistory
Layer: 1
Undoes
EndUndoes
Redoes
EndRedoes
EndUndoRedoHistory
Fore
SplineSet
-24 -500 m 1,0,-1
 -10 -372 l 1,1,2
 36 -386 36 -386 90 -388 c 0,3,4
 97 -388 97 -388 103 -389 c 0,5,6
 148 -388 148 -388 186 -374 c 0,7,8
 230 -358 230 -358 234 -322 c 0,9,10
 237 -298 237 -298 228 -279.5 c 128,-1,11
 219 -261 219 -261 204.5 -249 c 128,-1,12
 190 -237 190 -237 163 -227 c 128,-1,13
 136 -217 136 -217 116.5 -212 c 128,-1,14
 97 -207 97 -207 65 -201 c 1,15,-1
 86 0 l 1,16,-1
 207 0 l 1,17,-1
 194 -125 l 1,18,19
 296 -136 296 -136 364 -185 c 0,20,21
 428 -231 428 -231 428 -303 c 0,22,23
 428 -308 428 -308 428 -314 c 0,24,25
 423 -385 423 -385 379.5 -434.5 c 128,-1,26
 336 -484 336 -484 271 -504 c 0,27,28
 209 -524 209 -524 136 -524 c 0,29,30
 132 -524 132 -524 128 -524 c 0,31,32
 50 -523 50 -523 -24 -500 c 1,0,-1
EndSplineSet
EndChar

StartChar: onesuperior
Encoding: 185 185 123
Width: 840
GlyphClass: 2
Flags: W
LayerCount: 2
UndoRedoHistory
Layer: 1
Undoes
EndUndoes
Redoes
EndRedoes
EndUndoRedoHistory
Fore
SplineSet
390 673 m 1,0,-1
 485 1580 l 1,1,2
 472 1564 472 1564 394.5 1537 c 128,-1,3
 317 1510 317 1510 287 1504 c 1,4,-1
 303 1657 l 1,5,6
 305 1658 305 1658 321.5 1664.5 c 128,-1,7
 338 1671 338 1671 346.5 1674.5 c 128,-1,8
 355 1678 355 1678 374 1685.5 c 128,-1,9
 393 1693 393 1693 405.5 1699.5 c 128,-1,10
 418 1706 418 1706 436 1715 c 128,-1,11
 454 1724 454 1724 468 1732.5 c 128,-1,12
 482 1741 482 1741 497 1751.5 c 128,-1,13
 512 1762 512 1762 524 1773 c 128,-1,14
 536 1784 536 1784 545 1795 c 1,15,-1
 710 1795 l 1,16,-1
 592 673 l 1,17,-1
 390 673 l 1,0,-1
EndSplineSet
EndChar

StartChar: ordmasculine
Encoding: 186 186 124
Width: 950
GlyphClass: 2
Flags: W
LayerCount: 2
UndoRedoHistory
Layer: 1
Undoes
EndUndoes
Redoes
EndRedoes
EndUndoRedoHistory
Fore
SplineSet
509 829 m 0,0,1
 537 829 537 829 558 840 c 128,-1,2
 579 851 579 851 591.5 867 c 128,-1,3
 604 883 604 883 613 911.5 c 128,-1,4
 622 940 622 940 626.5 965 c 128,-1,5
 631 990 631 990 635 1028 c 2,6,-1
 663 1298 l 2,7,8
 669 1361 669 1361 669 1401 c 0,9,10
 670 1444 670 1444 648 1470 c 0,11,12
 626 1497 626 1497 579 1497 c 0,13,14
 551 1497 551 1497 529.5 1486 c 128,-1,15
 508 1475 508 1475 495.5 1458.5 c 128,-1,16
 483 1442 483 1442 473.5 1414.5 c 128,-1,17
 464 1387 464 1387 460 1361 c 128,-1,18
 456 1335 456 1335 452 1298 c 2,19,-1
 423 1028 l 1,20,21
 419 973 419 973 419 928.5 c 128,-1,22
 419 884 419 884 441 856.5 c 128,-1,23
 463 829 463 829 509 829 c 0,0,1
492 643 m 0,24,25
 191 643 191 643 191 939 c 0,26,27
 191 973 191 973 195 1010 c 1,28,-1
 228 1317 l 1,29,30
 246 1495 246 1495 338.5 1589.5 c 128,-1,31
 431 1684 431 1684 601 1684 c 0,32,33
 765 1684 765 1684 841 1586 c 0,34,35
 902 1507 902 1507 902 1380 c 0,36,37
 902 1350 902 1350 899 1317 c 2,38,-1
 867 1010 l 2,39,40
 849 838 849 838 752.5 740.5 c 128,-1,41
 656 643 656 643 492 643 c 0,24,25
EndSplineSet
EndChar

StartChar: guillemotright
Encoding: 187 187 125
Width: 1010
GlyphClass: 2
Flags: W
LayerCount: 2
UndoRedoHistory
Layer: 1
Undoes
EndUndoes
Redoes
EndRedoes
EndUndoRedoHistory
Fore
SplineSet
65 64 m 1,0,-1
 97 370 l 1,1,-1
 311 600 l 1,2,-1
 146 827 l 1,3,-1
 178 1134 l 1,4,-1
 503 657 l 1,5,-1
 491 540 l 1,6,-1
 65 64 l 1,0,-1
492 64 m 1,7,-1
 524 370 l 1,8,-1
 737 600 l 1,9,-1
 573 827 l 1,10,-1
 605 1134 l 1,11,-1
 928 657 l 1,12,-1
 916 540 l 1,13,-1
 492 64 l 1,7,-1
EndSplineSet
EndChar

StartChar: onequarter
Encoding: 188 188 126
Width: 1565
GlyphClass: 2
Flags: W
LayerCount: 2
UndoRedoHistory
Layer: 1
Undoes
EndUndoes
Redoes
EndRedoes
EndUndoRedoHistory
Fore
SplineSet
1118 1 m 1,0,-1
 1142 235 l 1,1,-1
 856 235 l 1,2,-1
 870 363 l 1,3,-1
 1228 877 l 1,4,-1
 1384 877 l 1,5,-1
 1331 367 l 1,6,-1
 1445 367 l 1,7,-1
 1431 235 l 1,8,-1
 1317 235 l 1,9,-1
 1292 1 l 1,10,-1
 1118 1 l 1,0,-1
271 829 m 1,11,-1
 328 1374 l 1,12,-1
 206 1352 l 1,13,-1
 220 1485 l 1,14,15
 376 1561 376 1561 465 1658 c 1,16,-1
 543 1658 l 1,17,-1
 456 829 l 1,18,-1
 271 829 l 1,11,-1
283 0 m 1,19,-1
 1080 1658 l 1,20,-1
 1266 1658 l 1,21,-1
 468 0 l 1,22,-1
 283 0 l 1,19,-1
1004 367 m 1,23,-1
 1157 367 l 1,24,-1
 1186 644 l 1,25,-1
 1004 367 l 1,23,-1
EndSplineSet
EndChar

StartChar: onehalf
Encoding: 189 189 127
Width: 1565
GlyphClass: 2
Flags: W
LayerCount: 2
UndoRedoHistory
Layer: 1
Undoes
EndUndoes
Redoes
EndRedoes
EndUndoRedoHistory
Fore
SplineSet
915 2 m 1,0,-1
 929 132 l 1,1,-1
 1138 383 l 2,2,3
 1141 386 1141 386 1166.5 415.5 c 128,-1,4
 1192 445 1192 445 1198 453 c 128,-1,5
 1204 461 1204 461 1223.5 487 c 128,-1,6
 1243 513 1243 513 1250 528.5 c 128,-1,7
 1257 544 1257 544 1265.5 567.5 c 128,-1,8
 1274 591 1274 591 1276 613 c 0,9,10
 1278 641 1278 641 1277.5 664 c 128,-1,11
 1277 687 1277 687 1263.5 702 c 128,-1,12
 1250 717 1250 717 1224 717 c 0,13,14
 1153 717 1153 717 1149 586 c 1,15,-1
 971 586 l 1,16,17
 971 609 971 609 973 621 c 0,18,19
 987 727 987 727 1055.5 787.5 c 128,-1,20
 1124 848 1124 848 1236 848 c 0,21,22
 1350 848 1350 848 1408 786 c 0,23,24
 1456 734 1456 734 1457 648 c 0,25,26
 1457 631 1457 631 1455 614 c 0,27,28
 1446 532 1446 532 1396 457.5 c 128,-1,29
 1346 383 1346 383 1256 284 c 1,30,31
 1182 210 1182 210 1117 132 c 1,32,-1
 1398 132 l 1,33,-1
 1384 2 l 1,34,-1
 915 2 l 1,0,-1
251 829 m 1,35,-1
 308 1374 l 1,36,-1
 186 1352 l 1,37,-1
 200 1485 l 1,38,39
 357 1561 357 1561 444 1658 c 1,40,-1
 523 1658 l 1,41,-1
 436 829 l 1,42,-1
 251 829 l 1,35,-1
271 0 m 1,43,-1
 1068 1658 l 1,44,-1
 1254 1658 l 1,45,-1
 456 0 l 1,46,-1
 271 0 l 1,43,-1
EndSplineSet
EndChar

StartChar: threequarters
Encoding: 190 190 128
Width: 1565
GlyphClass: 2
Flags: W
LayerCount: 2
UndoRedoHistory
Layer: 1
Undoes
EndUndoes
Redoes
EndRedoes
EndUndoRedoHistory
Fore
SplineSet
372 865 m 0,0,1
 261 865 261 865 207 927 c 0,2,3
 163 978 163 978 163 1060 c 0,4,5
 163 1078 163 1078 165 1098 c 1,6,-1
 331 1098 l 1,7,8
 329 1068 329 1068 330 1044 c 128,-1,9
 331 1020 331 1020 344 1005 c 128,-1,10
 357 990 357 990 382 990 c 0,11,12
 401 990 401 990 414.5 998.5 c 128,-1,13
 428 1007 428 1007 435 1024 c 128,-1,14
 442 1041 442 1041 445 1057 c 128,-1,15
 448 1073 448 1073 450 1098 c 0,16,17
 452 1112 452 1112 452 1125 c 0,18,19
 452 1166 452 1166 434 1184 c 0,20,21
 410 1208 410 1208 341 1208 c 1,22,-1
 353 1327 l 1,23,24
 422 1327 422 1327 451 1350.5 c 128,-1,25
 480 1374 480 1374 486 1436 c 1,26,27
 490 1458 490 1458 490 1477.5 c 0,28,29
 490 1498 490 1498 486 1514 c 0,30,31
 477 1546 477 1546 440 1546 c 0,32,33
 401 1546 401 1546 387 1518.5 c 128,-1,34
 373 1491 373 1491 367 1438 c 1,35,-1
 200 1438 l 1,36,37
 212 1552 212 1552 279 1612 c 128,-1,38
 346 1672 346 1672 458 1672 c 0,39,40
 568 1672 568 1672 618 1612 c 0,41,42
 659 1563 659 1563 659 1480 c 0,43,44
 659 1462 659 1462 657 1442 c 1,45,46
 648 1364 648 1364 599.5 1319.5 c 128,-1,47
 551 1275 551 1275 481 1271 c 1,48,49
 624 1257 624 1257 624 1128 c 0,50,51
 624 1114 624 1114 622 1099 c 1,52,53
 611 987 611 987 546 926 c 128,-1,54
 481 865 481 865 372 865 c 0,0,1
1165 1 m 1,55,-1
 1189 235 l 1,56,-1
 903 235 l 1,57,-1
 917 363 l 1,58,-1
 1275 877 l 1,59,-1
 1431 877 l 1,60,-1
 1378 367 l 1,61,-1
 1492 367 l 1,62,-1
 1478 235 l 1,63,-1
 1364 235 l 1,64,-1
 1339 1 l 1,65,-1
 1165 1 l 1,55,-1
339 0 m 1,66,-1
 1136 1658 l 1,67,-1
 1322 1658 l 1,68,-1
 524 0 l 1,69,-1
 339 0 l 1,66,-1
1051 367 m 1,70,-1
 1204 367 l 1,71,-1
 1233 644 l 1,72,-1
 1051 367 l 1,70,-1
EndSplineSet
EndChar

StartChar: questiondown
Encoding: 191 191 129
Width: 1066
GlyphClass: 2
Flags: W
LayerCount: 2
UndoRedoHistory
Layer: 1
Undoes
EndUndoes
Redoes
EndRedoes
EndUndoRedoHistory
Fore
SplineSet
478 -379 m 0,0,1
 268 -380 268 -380 168 -268 c 0,2,3
 85 -176 85 -176 85 -22 c 0,4,5
 85 10 85 10 89 45 c 0,6,7
 97 122 97 122 126 197 c 128,-1,8
 155 272 155 272 194 332.5 c 128,-1,9
 233 393 233 393 292 458.5 c 128,-1,10
 351 524 351 524 404 572.5 c 128,-1,11
 457 621 457 621 530 682 c 1,12,-1
 551 880 l 1,13,-1
 798 880 l 1,14,-1
 770 621 l 1,15,16
 686 552 686 552 624 492.5 c 128,-1,17
 562 433 562 433 500 358 c 128,-1,18
 438 283 438 283 401.5 201 c 128,-1,19
 365 119 365 119 358 35 c 0,20,21
 357 23 357 23 357 12 c 0,22,23
 356 -52 356 -52 390 -92 c 0,24,25
 430 -140 430 -140 501 -140 c 0,26,27
 573 -140 573 -140 613.5 -95.5 c 128,-1,28
 654 -51 654 -51 653 22 c 1,29,30
 654 35 654 35 652 66 c 128,-1,31
 650 97 650 97 647 108 c 1,32,-1
 905 159 l 1,33,34
 913 84 913 84 913 58 c 0,35,36
 913 53 913 53 913 49 c 1,37,38
 914 37 914 37 914 25 c 0,39,40
 914 -150 914 -150 804 -261 c 0,41,42
 686 -379 686 -379 478 -379 c 0,0,1
552 1035 m 1,43,-1
 580 1303 l 1,44,-1
 852 1303 l 1,45,-1
 824 1035 l 1,46,-1
 552 1035 l 1,43,-1
EndSplineSet
EndChar

StartChar: AE
Encoding: 198 198 136
Width: 1358
GlyphClass: 2
Flags: W
LayerCount: 2
UndoRedoHistory
Layer: 1
Undoes
EndUndoes
Redoes
EndRedoes
EndUndoRedoHistory
Fore
SplineSet
-134 0 m 1,0,-1
 753 1649 l 1,1,-1
 1430 1649 l 1,2,-1
 1409 1443 l 1,3,-1
 1020 1443 l 1,4,-1
 969 962 l 1,5,-1
 1246 962 l 1,6,-1
 1224 753 l 1,7,-1
 947 753 l 1,8,-1
 890 205 l 1,9,-1
 1278 205 l 1,10,-1
 1257 0 l 1,11,-1
 600 0 l 1,12,-1
 641 388 l 1,13,-1
 357 388 l 1,14,-1
 153 0 l 1,15,-1
 -134 0 l 1,0,-1
448 586 m 1,16,-1
 662 586 l 1,17,-1
 722 1156 l 1,18,-1
 448 586 l 1,16,-1
EndSplineSet
EndChar

StartChar: Eth
Encoding: 208 208 146
Width: 1086
GlyphClass: 2
Flags: W
LayerCount: 2
UndoRedoHistory
Layer: 1
Undoes
EndUndoes
Redoes
EndRedoes
EndUndoRedoHistory
Fore
SplineSet
386 208 m 1,0,-1
 475 208 l 2,1,2
 515 208 515 208 547 212.5 c 128,-1,3
 579 217 579 217 603.5 230.5 c 128,-1,4
 628 244 628 244 645 256.5 c 128,-1,5
 662 269 662 269 675.5 295.5 c 128,-1,6
 689 322 689 322 697 342.5 c 128,-1,7
 705 363 705 363 711.5 403.5 c 128,-1,8
 718 444 718 444 721.5 471.5 c 128,-1,9
 725 499 725 499 731 552 c 2,10,-1
 794 1148 l 2,11,12
 802 1217 802 1217 802 1269 c 0,13,14
 802 1296 802 1296 800 1320 c 0,15,16
 794 1386 794 1386 748.5 1416 c 128,-1,17
 703 1446 703 1446 601 1446 c 2,18,-1
 515 1446 l 1,19,-1
 462 934 l 1,20,-1
 563 934 l 1,21,-1
 546 776 l 1,22,-1
 445 776 l 1,23,-1
 386 208 l 1,0,-1
68 0 m 1,24,-1
 150 776 l 1,25,-1
 57 776 l 1,26,-1
 73 934 l 1,27,-1
 166 934 l 1,28,-1
 242 1658 l 1,29,-1
 625 1658 l 2,30,31
 774 1658 774 1658 871 1628 c 128,-1,32
 968 1598 968 1598 1022 1533 c 128,-1,33
 1076 1468 1076 1468 1092 1374 c 0,34,35
 1100 1325 1100 1325 1100 1265 c 0,36,37
 1100 1209 1100 1209 1093 1142 c 2,38,-1
 1030 544 l 2,39,40
 1001 260 1001 260 872 130 c 128,-1,41
 743 0 743 0 464 0 c 2,42,-1
 68 0 l 1,24,-1
EndSplineSet
EndChar

StartChar: multiply
Encoding: 215 215 153
Width: 874
GlyphClass: 2
Flags: W
LayerCount: 2
UndoRedoHistory
Layer: 1
Undoes
EndUndoes
Redoes
EndRedoes
EndUndoRedoHistory
Fore
SplineSet
241 499 m 1,0,-1
 123 630 l 1,1,-1
 343 830 l 1,2,-1
 165 1029 l 1,3,-1
 310 1161 l 1,4,-1
 488 962 l 1,5,-1
 709 1161 l 1,6,-1
 826 1029 l 1,7,-1
 605 830 l 1,8,-1
 784 630 l 1,9,-1
 640 499 l 1,10,-1
 460 698 l 1,11,-1
 241 499 l 1,0,-1
EndSplineSet
EndChar

StartChar: Oslash
Encoding: 216 216 154
Width: 1134
GlyphClass: 2
Flags: W
LayerCount: 2
UndoRedoHistory
Layer: 1
Undoes
EndUndoes
Redoes
EndRedoes
EndUndoRedoHistory
Fore
SplineSet
393 429 m 2,0,-1
 798 1413 l 1,1,2
 762 1458 762 1458 676 1458 c 0,3,4
 620 1458 620 1458 582 1440.5 c 128,-1,5
 544 1423 544 1423 522.5 1386 c 128,-1,6
 501 1349 501 1349 490.5 1308 c 128,-1,7
 480 1267 480 1267 474 1206 c 2,8,-1
 396 458 l 2,9,10
 396 453 396 453 395 443.5 c 128,-1,11
 394 434 394 434 393 429 c 2,0,-1
543 200 m 0,12,13
 588 200 588 200 622 213.5 c 128,-1,14
 656 227 656 227 677 248 c 128,-1,15
 698 269 698 269 712.5 304 c 128,-1,16
 727 339 727 339 734.5 374 c 128,-1,17
 742 409 742 409 747 458 c 2,18,-1
 825 1206 l 2,19,20
 829 1251 829 1251 830 1268 c 1,21,-1
 414 259 l 1,22,23
 449 200 449 200 543 200 c 0,12,13
242 -159 m 1,24,-1
 163 -130 l 1,25,-1
 238 52 l 1,26,27
 95 153 95 153 95 409 c 0,28,29
 95 464 95 464 102 526 c 2,30,-1
 167 1139 l 1,31,32
 194 1405 194 1405 319 1541 c 128,-1,33
 444 1677 444 1677 699 1677 c 0,34,35
 811 1677 811 1677 895 1649 c 1,36,-1
 958 1802 l 1,37,-1
 1039 1777 l 1,38,-1
 971 1613 l 1,39,40
 1124 1515 1124 1515 1124 1253 c 0,41,42
 1124 1199 1124 1199 1118 1139 c 2,43,-1
 1053 526 l 2,44,45
 1025 260 1025 260 899 120 c 128,-1,46
 773 -20 773 -20 520 -20 c 0,47,48
 397 -20 397 -20 313 13 c 1,49,-1
 242 -159 l 1,24,-1
EndSplineSet
EndChar

StartChar: Thorn
Encoding: 222 222 160
Width: 1075
GlyphClass: 2
Flags: W
LayerCount: 2
UndoRedoHistory
Layer: 1
Undoes
EndUndoes
Redoes
EndRedoes
EndUndoRedoHistory
Fore
SplineSet
68 0 m 1,0,-1
 242 1658 l 1,1,-1
 538 1658 l 1,2,-1
 515 1439 l 1,3,-1
 715 1439 l 2,4,5
 1101 1439 1101 1439 1101 1057 c 0,6,7
 1101 1013 1101 1013 1096 963 c 0,8,9
 1069 704 1069 704 944 589.5 c 128,-1,10
 819 475 819 475 581 474 c 1,11,-1
 414 474 l 1,12,-1
 364 0 l 1,13,-1
 68 0 l 1,0,-1
437 698 m 1,14,-1
 555 698 l 2,15,16
 682 698 682 698 742.5 754 c 128,-1,17
 803 810 803 810 818 958 c 0,18,19
 822 993 822 993 822 1022 c 0,20,21
 822 1108 822 1108 790 1152 c 0,22,23
 748 1210 748 1210 631 1210 c 2,24,-1
 491 1210 l 1,25,-1
 437 698 l 1,14,-1
EndSplineSet
EndChar

StartChar: germandbls
Encoding: 223 223 161
Width: 1083
GlyphClass: 2
Flags: W
LayerCount: 2
UndoRedoHistory
Layer: 1
Undoes
EndUndoes
Redoes
EndRedoes
EndUndoRedoHistory
Fore
SplineSet
439 -22 m 1,0,-1
 463 196 l 1,1,2
 591 196 591 196 648 262.5 c 128,-1,3
 705 329 705 329 718 484 c 0,4,5
 720 504 720 504 720 522 c 0,6,7
 720 614 720 614 678 670 c 0,8,9
 628 738 628 738 526 738 c 1,10,-1
 548 958 l 1,11,12
 637 958 637 958 685.5 1035 c 128,-1,13
 734 1112 734 1112 748 1238 c 1,14,15
 751 1270 751 1270 751 1298 c 0,16,17
 751 1367 751 1367 732 1409 c 0,18,19
 705 1468 705 1468 625 1468 c 0,20,21
 546 1468 546 1468 510 1410 c 128,-1,22
 474 1352 474 1352 464 1246 c 1,23,-1
 333 0 l 1,24,-1
 59 0 l 1,25,-1
 190 1243 l 2,26,27
 199 1334 199 1334 229.5 1411.5 c 128,-1,28
 260 1489 260 1489 311.5 1549 c 128,-1,29
 363 1609 363 1609 441.5 1643 c 128,-1,30
 520 1677 520 1677 617 1677 c 0,31,32
 834 1676 834 1676 928 1564 c 0,33,34
 1005 1473 1005 1473 1004 1317 c 0,35,36
 1004 1281 1004 1281 1000 1240 c 0,37,38
 985 1105 985 1105 923 1016 c 128,-1,39
 861 927 861 927 744 872 c 1,40,41
 874 834 874 834 940 728 c 0,42,43
 993 642 993 642 993 527 c 0,44,45
 993 499 993 499 990 469 c 0,46,47
 963 219 963 219 826 98.5 c 128,-1,48
 689 -22 689 -22 439 -22 c 1,0,-1
EndSplineSet
EndChar

StartChar: ae
Encoding: 230 230 168
Width: 1360
GlyphClass: 2
Flags: W
LayerCount: 2
UndoRedoHistory
Layer: 1
Undoes
EndUndoes
Redoes
EndRedoes
EndUndoRedoHistory
Fore
SplineSet
289 -20 m 0,0,1
 178 -14 178 -14 111 68 c 0,2,3
 55 136 55 136 55 230 c 0,4,5
 55 248 55 248 57 267 c 0,6,7
 66 353 66 353 97.5 419 c 128,-1,8
 129 485 129 485 179 527.5 c 128,-1,9
 229 570 229 570 286 597 c 128,-1,10
 343 624 343 624 414 641 c 0,11,12
 543 673 543 673 574 678 c 1,13,-1
 591 833 l 2,14,15
 593 857 593 857 593 877 c 0,16,17
 593 923 593 923 581 951 c 0,18,19
 563 992 563 992 507 992 c 128,-1,20
 451 992 451 992 423.5 948 c 128,-1,21
 396 904 396 904 386 817 c 1,22,-1
 116 817 l 1,23,24
 136 1002 136 1002 241 1107.5 c 128,-1,25
 346 1213 346 1213 521 1213 c 0,26,27
 611 1213 611 1213 671 1173.5 c 128,-1,28
 731 1134 731 1134 745 1067 c 1,29,30
 783 1131 783 1131 852.5 1172 c 128,-1,31
 922 1213 922 1213 1007 1213 c 0,32,33
 1172 1213 1172 1213 1250 1116 c 0,34,35
 1314 1036 1314 1036 1315 914 c 0,36,37
 1315 889 1315 889 1312 862 c 0,38,39
 1307 809 1307 809 1282 767.5 c 128,-1,40
 1257 726 1257 726 1226 700.5 c 128,-1,41
 1195 675 1195 675 1145 654.5 c 128,-1,42
 1095 634 1095 634 1056 624 c 128,-1,43
 1017 614 1017 614 959 603 c 0,44,45
 866 584 866 584 832 581 c 1,46,-1
 822 481 l 2,47,48
 809 344 809 344 809 309 c 1,49,50
 813 188 813 188 889 188 c 0,51,52
 918 188 918 188 938 201.5 c 128,-1,53
 958 215 958 215 969.5 242.5 c 128,-1,54
 981 270 981 270 986.5 296 c 128,-1,55
 992 322 992 322 996 362 c 2,56,-1
 1002 414 l 1,57,-1
 1266 414 l 1,58,-1
 1259 350 l 2,59,60
 1240 172 1240 172 1143.5 76 c 128,-1,61
 1047 -20 1047 -20 876 -20 c 0,62,63
 774 -20 774 -20 705.5 40.5 c 128,-1,64
 637 101 637 101 631 200 c 1,65,66
 573 94 573 94 485 34 c 0,67,68
 405 -21 405 -21 308 -21 c 0,69,70
 299 -21 299 -21 289 -20 c 0,0,1
401 182 m 0,71,72
 453 182 453 182 494 238.5 c 128,-1,73
 535 295 535 295 546 399 c 2,74,-1
 560 539 l 1,75,76
 516 528 516 528 480 511 c 0,77,78
 412 480 412 480 370 429 c 128,-1,79
 328 378 328 378 321 316 c 0,80,81
 320 304 320 304 320 293 c 0,82,83
 320 252 320 252 337 221 c 0,84,85
 359 182 359 182 401 182 c 0,71,72
846 717 m 1,86,87
 935 732 935 732 947 741 c 1,88,89
 1007 756 1007 756 1036 782.5 c 128,-1,90
 1065 809 1065 809 1071 870 c 0,91,92
 1073 886 1073 886 1073 901 c 0,93,94
 1074 944 1074 944 1058 972 c 0,95,96
 1038 1010 1038 1010 985 1010 c 0,97,98
 930 1010 930 1010 899 964 c 128,-1,99
 868 918 868 918 860 842 c 2,100,-1
 846 717 l 1,86,87
EndSplineSet
EndChar

StartChar: eth
Encoding: 240 240 178
Width: 1012
GlyphClass: 2
Flags: W
LayerCount: 2
UndoRedoHistory
Layer: 1
Undoes
EndUndoes
Redoes
EndRedoes
EndUndoRedoHistory
Fore
SplineSet
439 -22 m 0,0,1
 230 -22 230 -22 154 94 c 0,2,3
 97 181 97 181 97 339 c 0,4,5
 97 391 97 391 103 450 c 2,6,-1
 126 664 l 2,7,8
 137 772 137 772 164.5 859 c 128,-1,9
 192 946 192 946 237.5 1015 c 128,-1,10
 283 1084 283 1084 354 1121.5 c 128,-1,11
 425 1159 425 1159 516 1159 c 0,12,13
 624 1159 624 1159 692 1097 c 1,14,15
 693 1124 693 1124 693 1149 c 0,16,17
 693 1286 693 1286 656 1352 c 1,18,-1
 424 1267 l 1,19,-1
 421 1373 l 1,20,-1
 605 1439 l 1,21,22
 538 1519 538 1519 312 1519 c 1,23,-1
 343 1694 l 1,24,25
 534 1694 534 1694 648 1653.5 c 128,-1,26
 762 1613 762 1613 820 1528 c 1,27,-1
 1052 1611 l 1,28,-1
 1055 1504 l 1,29,-1
 871 1440 l 1,30,31
 912 1343 912 1343 936 1175 c 0,32,33
 949 1080 949 1080 949 983 c 0,34,35
 949 909 949 909 941 834 c 2,36,-1
 902 467 l 2,37,38
 877 224 877 224 760 101 c 128,-1,39
 643 -22 643 -22 439 -22 c 0,0,1
465 179 m 0,40,41
 507 179 507 179 536.5 195 c 128,-1,42
 566 211 566 211 582.5 243 c 128,-1,43
 599 275 599 275 607.5 310.5 c 128,-1,44
 616 346 616 346 621 399 c 2,45,-1
 674 903 l 1,46,-1
 666 911 l 2,47,48
 659 919 659 919 654.5 923 c 128,-1,49
 650 927 650 927 639.5 934.5 c 128,-1,50
 629 942 629 942 619.5 946 c 128,-1,51
 610 950 610 950 594.5 953.5 c 128,-1,52
 579 957 579 957 563 957 c 0,53,54
 484 957 484 957 447.5 875 c 128,-1,55
 411 793 411 793 390 592 c 0,56,57
 387 561 387 561 381.5 518.5 c 128,-1,58
 376 476 376 476 372.5 448 c 128,-1,59
 369 420 369 420 365.5 384.5 c 128,-1,60
 362 349 362 349 362 326 c 128,-1,61
 362 303 362 303 364 277 c 128,-1,62
 366 251 366 251 373.5 235 c 128,-1,63
 381 219 381 219 392 205.5 c 128,-1,64
 403 192 403 192 421.5 185.5 c 128,-1,65
 440 179 440 179 465 179 c 0,40,41
EndSplineSet
EndChar

StartChar: divide
Encoding: 247 247 185
Width: 797
GlyphClass: 2
Flags: W
LayerCount: 2
UndoRedoHistory
Layer: 1
Undoes
EndUndoes
Redoes
EndRedoes
EndUndoRedoHistory
Fore
SplineSet
291 348 m 1,0,-1
 317 592 l 1,1,-1
 511 592 l 1,2,-1
 485 348 l 1,3,-1
 291 348 l 1,0,-1
78 759 m 1,4,-1
 96 933 l 1,5,-1
 797 933 l 1,6,-1
 779 759 l 1,7,-1
 78 759 l 1,4,-1
368 1080 m 1,8,-1
 393 1324 l 1,9,-1
 588 1324 l 1,10,-1
 562 1080 l 1,11,-1
 368 1080 l 1,8,-1
EndSplineSet
EndChar

StartChar: oslash
Encoding: 248 248 186
Width: 919
GlyphClass: 2
Flags: W
LayerCount: 2
UndoRedoHistory
Layer: 1
Undoes
EndUndoes
Redoes
EndRedoes
EndUndoRedoHistory
Fore
SplineSet
356 466 m 1,0,-1
 593 964 l 1,1,2
 572 1008 572 1008 517 1008 c 0,3,4
 489 1008 489 1008 467.5 996 c 128,-1,5
 446 984 446 984 433.5 967 c 128,-1,6
 421 950 421 950 412.5 920 c 128,-1,7
 404 890 404 890 400 865.5 c 128,-1,8
 396 841 396 841 392 803 c 2,9,-1
 356 466 l 1,0,-1
429 176 m 0,10,11
 458 176 458 176 479 187.5 c 128,-1,12
 500 199 500 199 512.5 216 c 128,-1,13
 525 233 525 233 534 262.5 c 128,-1,14
 543 292 543 292 546.5 317 c 128,-1,15
 550 342 550 342 554 380 c 2,16,-1
 598 791 l 1,17,-1
 343 261 l 1,18,19
 353 176 353 176 429 176 c 0,10,11
123 -197 m 1,20,-1
 54 -171 l 1,21,-1
 164 60 l 1,22,23
 72 145 72 145 72 318 c 0,24,25
 72 357 72 357 77 399 c 2,26,-1
 117 785 l 1,27,28
 139 985 139 985 242.5 1093.5 c 128,-1,29
 346 1202 346 1202 537 1202 c 0,30,31
 625 1202 625 1202 694 1177 c 1,32,-1
 790 1380 l 1,33,-1
 867 1351 l 1,34,-1
 765 1138 l 1,35,36
 874 1054 874 1054 874 864 c 0,37,38
 874 826 874 826 870 785 c 2,39,-1
 830 399 l 1,40,41
 808 198 808 198 704 90 c 128,-1,42
 600 -18 600 -18 408 -18 c 0,43,44
 300 -18 300 -18 226 18 c 1,45,-1
 123 -197 l 1,20,-1
EndSplineSet
EndChar

StartChar: thorn
Encoding: 254 254 192
Width: 963
GlyphClass: 2
Flags: W
LayerCount: 2
UndoRedoHistory
Layer: 1
Undoes
EndUndoes
Redoes
EndRedoes
EndUndoRedoHistory
Fore
SplineSet
14 -390 m 1,0,-1
 229 1658 l 1,1,-1
 503 1658 l 1,2,-1
 445 1093 l 1,3,4
 563 1202 563 1202 690 1202 c 0,5,6
 691 1202 691 1202 692 1202 c 0,7,8
 738 1202 738 1202 775 1186.5 c 128,-1,9
 812 1171 812 1171 836.5 1146 c 128,-1,10
 861 1121 861 1121 878 1086.5 c 128,-1,11
 895 1052 895 1052 903 1016.5 c 0,12,13
 910 981 910 981 914 940 c 0,14,15
 917 904 917 904 918 874 c 0,16,17
 918 870 918 870 918 865 c 0,18,19
 918 831 918 831 913 797 c 2,20,-1
 873 420 l 2,21,22
 864 329 864 329 841 253.5 c 128,-1,23
 818 178 818 178 779.5 115.5 c 128,-1,24
 741 53 741 53 681 17.5 c 128,-1,25
 621 -18 621 -18 545 -18 c 0,26,27
 435 -18 435 -18 338 88 c 1,28,-1
 288 -390 l 1,29,-1
 14 -390 l 1,0,-1
475 180 m 0,30,31
 507 180 507 180 530 198 c 128,-1,32
 553 216 553 216 566 251.5 c 128,-1,33
 579 287 579 287 586 323.5 c 128,-1,34
 593 360 593 360 598 413 c 2,35,-1
 640 807 l 1,36,37
 643 846 643 846 643 881 c 0,38,39
 642 894 642 894 642 906 c 0,40,41
 640 950 640 950 619 980 c 0,42,43
 598 1009 598 1009 558 1009 c 0,44,45
 557 1009 557 1009 555 1009 c 0,46,47
 499 1008 499 1008 430 962 c 1,48,-1
 352 219 l 1,49,50
 409 181 409 181 475 180 c 0,30,31
EndSplineSet
EndChar

StartChar: Dcroat
Encoding: 272 272 202
Width: 1133
GlyphClass: 2
Flags: W
LayerCount: 2
UndoRedoHistory
Layer: 1
Undoes
EndUndoes
Redoes
EndRedoes
EndUndoRedoHistory
Fore
SplineSet
395 208 m 1,0,-1
 490 208 l 2,1,2
 554 208 554 208 598 224 c 128,-1,3
 642 240 642 240 667 261.5 c 128,-1,4
 692 283 692 283 708.5 335 c 128,-1,5
 725 387 725 387 731.5 426.5 c 128,-1,6
 738 466 738 466 747 552 c 2,7,-1
 810 1148 l 2,8,9
 818 1215 818 1215 818 1266 c 0,10,11
 818 1296 818 1296 815 1320 c 0,12,13
 808 1386 808 1386 763 1416 c 128,-1,14
 718 1446 718 1446 616 1446 c 2,15,-1
 525 1446 l 1,16,-1
 471 931 l 1,17,-1
 578 931 l 1,18,-1
 562 779 l 1,19,-1
 455 779 l 1,20,-1
 395 208 l 1,0,-1
81 0 m 1,21,-1
 163 779 l 1,22,-1
 64 779 l 1,23,-1
 80 931 l 1,24,-1
 179 931 l 1,25,-1
 255 1658 l 1,26,-1
 637 1658 l 2,27,28
 929 1658 929 1658 1032 1538 c 0,29,30
 1112 1444 1112 1444 1112 1255 c 0,31,32
 1112 1202 1112 1202 1106 1142 c 2,33,-1
 1043 544 l 2,34,35
 1014 260 1014 260 885 130 c 128,-1,36
 756 0 756 0 476 0 c 2,37,-1
 81 0 l 1,21,-1
EndSplineSet
EndChar

StartChar: Eng
Encoding: 330 330 207
Width: 1114
GlyphClass: 2
Flags: W
LayerCount: 2
UndoRedoHistory
Layer: 1
Undoes
EndUndoes
Redoes
EndRedoes
EndUndoRedoHistory
Fore
SplineSet
432 -404 m 1,0,-1
 452 -216 l 1,1,2
 528 -216 528 -216 574 -205.5 c 128,-1,3
 620 -195 620 -195 648 -167 c 128,-1,4
 676 -139 676 -139 688 -100.5 c 128,-1,5
 700 -62 700 -62 707 5 c 2,6,-1
 718 120 l 1,7,-1
 424 1000 l 1,8,-1
 318 0 l 1,9,-1
 77 0 l 1,10,-1
 251 1658 l 1,11,-1
 454 1658 l 1,12,-1
 775 704 l 1,13,-1
 875 1658 l 1,14,-1
 1111 1658 l 1,15,-1
 937 0 l 2,16,17
 926 -105 926 -105 903 -175.5 c 128,-1,18
 880 -246 880 -246 836 -300 c 128,-1,19
 792 -354 792 -354 719.5 -379 c 128,-1,20
 647 -404 647 -404 541 -404 c 2,21,-1
 432 -404 l 1,0,-1
EndSplineSet
EndChar

StartChar: Euro
Encoding: 8364 8364 209
Width: 1070
GlyphClass: 2
Flags: W
LayerCount: 2
UndoRedoHistory
Layer: 1
Undoes
EndUndoes
Redoes
EndRedoes
EndUndoRedoHistory
Fore
SplineSet
521 -20 m 0,0,1
 414 -20 414 -20 335 7 c 128,-1,2
 256 34 256 34 209.5 83 c 128,-1,3
 163 132 163 132 136 201.5 c 0,4,5
 110 272 110 272 106 356 c 0,6,7
 105 380 105 380 105 404 c 0,8,9
 105 468 105 468 111 538 c 1,10,-1
 121 626 l 1,11,-1
 9 626 l 1,12,-1
 22 751 l 1,13,-1
 133 751 l 1,14,-1
 150 914 l 1,15,-1
 39 914 l 1,16,-1
 52 1039 l 1,17,-1
 164 1039 l 1,18,-1
 172 1115 l 2,19,20
 186 1250 186 1250 219 1349 c 128,-1,21
 252 1448 252 1448 312 1524 c 128,-1,22
 372 1600 372 1600 469 1638.5 c 128,-1,23
 566 1677 566 1677 700 1677 c 0,24,25
 823 1677 823 1677 907 1644 c 128,-1,26
 991 1611 991 1611 1035 1547 c 0,27,28
 1079 1484 1079 1484 1093 1398 c 0,29,30
 1101 1352 1101 1352 1101 1297 c 0,31,32
 1101 1250 1101 1250 1095 1198 c 2,33,-1
 1085 1104 l 1,34,-1
 801 1104 l 1,35,-1
 810 1195 l 2,36,37
 810 1198 810 1198 811 1204 c 0,38,39
 818 1271 818 1271 818 1315 c 0,40,41
 818 1352 818 1352 813 1373 c 1,42,43
 785 1455 785 1455 679 1458 c 1,44,45
 632 1458 632 1458 598 1443 c 128,-1,46
 564 1428 564 1428 543.5 1405.5 c 128,-1,47
 523 1383 523 1383 509 1342.5 c 128,-1,48
 495 1302 495 1302 488.5 1266 c 128,-1,49
 482 1230 482 1230 476 1172 c 2,50,-1
 463 1039 l 1,51,-1
 661 1039 l 1,52,-1
 647 914 l 1,53,-1
 449 914 l 1,54,-1
 432 751 l 1,55,-1
 630 751 l 1,56,-1
 618 626 l 1,57,-1
 420 626 l 1,58,-1
 404 478 l 2,59,60
 398 426 398 426 398 384 c 0,61,62
 398 304 398 304 418 263 c 0,63,64
 448 200 448 200 546 200 c 0,65,66
 579 200 579 200 605 208 c 128,-1,67
 631 216 631 216 649 227 c 128,-1,68
 667 238 667 238 681 260.5 c 128,-1,69
 695 283 695 283 703 301.5 c 128,-1,70
 711 320 711 320 717.5 354.5 c 128,-1,71
 724 389 724 389 727 412 c 128,-1,72
 730 435 730 435 735 478 c 2,73,-1
 743 557 l 1,74,-1
 1028 557 l 1,75,-1
 1020 487 l 1,76,77
 1008 369 1008 369 977.5 281 c 128,-1,78
 947 193 947 193 890 123 c 128,-1,79
 833 53 833 53 740.5 16.5 c 128,-1,80
 648 -20 648 -20 521 -20 c 0,0,1
EndSplineSet
EndChar

StartChar: Hbar
Encoding: 294 294 214
Width: 1137
GlyphClass: 2
Flags: W
LayerCount: 2
UndoRedoHistory
Layer: 1
Undoes
EndUndoes
Redoes
EndRedoes
EndUndoRedoHistory
Fore
SplineSet
58 0 m 1,0,-1
 190 1259 l 1,1,-1
 88 1259 l 1,2,-1
 101 1383 l 1,3,-1
 203 1383 l 1,4,-1
 232 1658 l 1,5,-1
 527 1658 l 1,6,-1
 498 1383 l 1,7,-1
 838 1383 l 1,8,-1
 866 1658 l 1,9,-1
 1162 1658 l 1,10,-1
 1133 1383 l 1,11,-1
 1226 1383 l 1,12,-1
 1213 1259 l 1,13,-1
 1120 1259 l 1,14,-1
 988 0 l 1,15,-1
 692 0 l 1,16,-1
 772 752 l 1,17,-1
 432 752 l 1,18,-1
 353 0 l 1,19,-1
 58 0 l 1,0,-1
455 963 m 1,20,-1
 794 963 l 1,21,-1
 824 1259 l 1,22,-1
 485 1259 l 1,23,-1
 455 963 l 1,20,-1
EndSplineSet
EndChar

StartChar: Lslash
Encoding: 321 321 227
Width: 860
GlyphClass: 2
Flags: W
LayerCount: 2
UndoRedoHistory
Layer: 1
Undoes
EndUndoes
Redoes
EndRedoes
EndUndoRedoHistory
Fore
SplineSet
80 0 m 1,0,-1
 159 751 l 1,1,-1
 18 680 l 1,2,-1
 38 875 l 1,3,-1
 180 947 l 1,4,-1
 254 1658 l 1,5,-1
 550 1658 l 1,6,-1
 491 1099 l 1,7,-1
 709 1209 l 1,8,-1
 689 1013 l 1,9,-1
 471 903 l 1,10,-1
 398 205 l 1,11,-1
 796 205 l 1,12,-1
 775 0 l 1,13,-1
 80 0 l 1,0,-1
EndSplineSet
EndChar

StartChar: OE
Encoding: 338 338 231
Width: 1440
GlyphClass: 2
Flags: W
LayerCount: 2
UndoRedoHistory
Layer: 1
Undoes
EndUndoes
Redoes
EndRedoes
EndUndoRedoHistory
Fore
SplineSet
550 0 m 2,0,1
 276 0 276 0 175 131 c 0,2,3
 97 233 97 233 97 419 c 0,4,5
 97 472 97 472 103 533 c 2,6,-1
 162 1091 l 2,7,8
 191 1369 191 1369 320 1512 c 128,-1,9
 449 1655 449 1655 710 1656 c 1,10,-1
 1506 1656 l 1,11,-1
 1484 1446 l 1,12,-1
 1103 1446 l 1,13,-1
 1052 960 l 1,14,-1
 1351 960 l 1,15,-1
 1330 752 l 1,16,-1
 1030 752 l 1,17,-1
 973 205 l 1,18,-1
 1357 205 l 1,19,-1
 1336 0 l 1,20,-1
 550 0 l 2,0,1
575 211 m 2,21,-1
 678 211 l 1,22,-1
 808 1446 l 1,23,-1
 702 1446 l 2,24,25
 668 1446 668 1446 640 1440 c 128,-1,26
 612 1434 612 1434 591 1426 c 128,-1,27
 570 1418 570 1418 552.5 1400 c 128,-1,28
 535 1382 535 1382 523.5 1367.5 c 128,-1,29
 512 1353 512 1353 502 1324 c 128,-1,30
 492 1295 492 1295 486 1275.5 c 128,-1,31
 480 1256 480 1256 474.5 1217.5 c 128,-1,32
 469 1179 469 1179 466 1155.5 c 128,-1,33
 463 1132 463 1132 458 1085 c 2,34,-1
 399 525 l 2,35,36
 391 446 391 446 391 386 c 0,37,38
 391 368 391 368 392 352 c 0,39,40
 395 282 395 282 438 246.5 c 128,-1,41
 481 211 481 211 575 211 c 2,21,-1
EndSplineSet
EndChar

StartChar: Pi
Encoding: 928 928 235
Width: 1182
GlyphClass: 2
Flags: W
LayerCount: 2
UndoRedoHistory
Layer: 1
Undoes
EndUndoes
Redoes
EndRedoes
EndUndoRedoHistory
Fore
SplineSet
68 0 m 1,0,-1
 242 1658 l 1,1,-1
 1188 1658 l 1,2,-1
 1014 0 l 1,3,-1
 742 0 l 1,4,-1
 895 1447 l 1,5,-1
 492 1447 l 1,6,-1
 339 0 l 1,7,-1
 68 0 l 1,0,-1
EndSplineSet
EndChar

StartChar: Tbar
Encoding: 358 358 244
Width: 860
GlyphClass: 2
Flags: W
LayerCount: 2
UndoRedoHistory
Layer: 1
Undoes
EndUndoes
Redoes
EndRedoes
EndUndoRedoHistory
Fore
SplineSet
113 778 m 1,0,-1
 129 933 l 1,1,-1
 324 933 l 1,2,-1
 377 1440 l 1,3,-1
 97 1440 l 1,4,-1
 120 1658 l 1,5,-1
 967 1658 l 1,6,-1
 944 1440 l 1,7,-1
 672 1440 l 1,8,-1
 619 933 l 1,9,-1
 818 933 l 1,10,-1
 801 778 l 1,11,-1
 603 778 l 1,12,-1
 521 0 l 1,13,-1
 226 0 l 1,14,-1
 308 778 l 1,15,-1
 113 778 l 1,0,-1
EndSplineSet
EndChar

StartChar: acutecomb
Encoding: 769 769 264
Width: 182
GlyphClass: 2
Flags: W
LayerCount: 2
UndoRedoHistory
Layer: 1
Undoes
EndUndoes
Redoes
EndRedoes
EndUndoRedoHistory
Fore
SplineSet
69 1249 m 1,0,-1
 233 1658 l 1,1,-1
 510 1658 l 1,2,-1
 223 1249 l 1,3,-1
 69 1249 l 1,0,-1
EndSplineSet
EndChar

StartChar: afii10018
Encoding: 1041 1041 266
Width: 1063
GlyphClass: 2
Flags: W
LayerCount: 2
UndoRedoHistory
Layer: 1
Undoes
EndUndoes
Redoes
EndRedoes
EndUndoRedoHistory
Fore
SplineSet
77 0 m 1,0,-1
 251 1658 l 1,1,-1
 1013 1658 l 1,2,-1
 990 1440 l 1,3,-1
 524 1440 l 1,4,-1
 474 965 l 1,5,-1
 521 965 l 2,6,7
 656 965 656 965 748 941.5 c 128,-1,8
 840 918 840 918 902.5 863 c 0,9,10
 966 808 966 808 988 715 c 0,11,12
 1002 658 1002 658 1001 584 c 0,13,14
 1001 538 1001 538 996 485 c 0,15,16
 982 348 982 348 937 253 c 128,-1,17
 892 158 892 158 816 103 c 128,-1,18
 740 48 740 48 643 24 c 128,-1,19
 546 0 546 0 415 0 c 2,20,-1
 77 0 l 1,0,-1
394 203 m 1,21,-1
 437 203 l 2,22,23
 507 203 507 203 553.5 214.5 c 128,-1,24
 600 226 600 226 636.5 257.5 c 128,-1,25
 673 289 673 289 693 345 c 128,-1,26
 713 401 713 401 722 489 c 0,27,28
 725 520 725 520 725 548 c 0,29,30
 725 646 725 646 686 694 c 0,31,32
 636 756 636 756 491 757 c 2,33,-1
 452 757 l 1,34,-1
 394 203 l 1,21,-1
EndSplineSet
EndChar

StartChar: afii10019
Encoding: 1042 1042 267
Width: 1131
GlyphClass: 2
Flags: W
LayerCount: 2
UndoRedoHistory
Layer: 1
Undoes
EndUndoes
Redoes
EndRedoes
EndUndoRedoHistory
Fore
SplineSet
77 0 m 1,0,-1
 251 1658 l 1,1,-1
 655 1658 l 2,2,3
 770 1658 770 1658 853 1637 c 128,-1,4
 936 1616 936 1616 996.5 1568.5 c 0,5,6
 1058 1522 1058 1522 1082 1438 c 0,7,8
 1098 1383 1098 1383 1098 1314 c 0,9,10
 1098 1277 1098 1277 1093 1236 c 0,11,12
 1058 926 1058 926 813 892 c 1,13,14
 956 862 956 862 1018 762 c 0,15,16
 1065 685 1065 685 1065 561 c 0,17,18
 1065 523 1065 523 1061 480 c 1,19,20
 1038 246 1038 246 907 123 c 128,-1,21
 776 0 776 0 550 0 c 2,22,-1
 77 0 l 1,0,-1
395 209 m 1,23,-1
 509 209 l 2,24,25
 603 209 603 209 659 239 c 128,-1,26
 715 269 715 269 742 326.5 c 128,-1,27
 769 384 769 384 779 482 c 0,28,29
 782 516 782 516 782 546 c 0,30,31
 782 648 782 648 742 702 c 0,32,33
 690 770 690 770 551 771 c 2,34,-1
 453 771 l 1,35,-1
 395 209 l 1,23,-1
476 980 m 1,36,-1
 572 980 l 2,37,38
 707 980 707 980 764 1038 c 128,-1,39
 821 1096 821 1096 835 1233 c 0,40,41
 838 1260 838 1260 838 1282 c 0,42,43
 838 1321 838 1321 830 1349 c 0,44,45
 818 1393 818 1393 780 1415 c 128,-1,46
 742 1437 742 1437 695 1443.5 c 128,-1,47
 648 1450 648 1450 566 1450 c 2,48,-1
 525 1450 l 1,49,-1
 476 980 l 1,36,-1
EndSplineSet
EndChar

StartChar: afii10020
Encoding: 1043 1043 268
Width: 854
GlyphClass: 2
Flags: W
LayerCount: 2
UndoRedoHistory
Layer: 1
Undoes
EndUndoes
Redoes
EndRedoes
EndUndoRedoHistory
Fore
SplineSet
77 0 m 1,0,-1
 251 1658 l 1,1,-1
 939 1658 l 1,2,-1
 917 1440 l 1,3,-1
 524 1440 l 1,4,-1
 372 0 l 1,5,-1
 77 0 l 1,0,-1
EndSplineSet
EndChar

StartChar: afii10021
Encoding: 1044 1044 269
Width: 1349
GlyphClass: 2
Flags: W
LayerCount: 2
UndoRedoHistory
Layer: 1
Undoes
EndUndoes
Redoes
EndRedoes
EndUndoRedoHistory
Fore
SplineSet
-57 -326 m 1,0,-1
 0 210 l 1,1,-1
 67 210 l 1,2,3
 124 244 124 244 169.5 298 c 128,-1,4
 215 352 215 352 263.5 453.5 c 128,-1,5
 312 555 312 555 356 727 c 128,-1,6
 400 899 400 899 438 1142 c 1,7,-1
 522 1658 l 1,8,-1
 1259 1658 l 1,9,-1
 1107 210 l 1,10,-1
 1282 210 l 1,11,-1
 1225 -326 l 1,12,-1
 1012 -326 l 1,13,-1
 1027 0 l 1,14,-1
 214 0 l 1,15,-1
 160 -326 l 1,16,-1
 -57 -326 l 1,0,-1
341 210 m 1,17,-1
 822 210 l 1,18,-1
 951 1445 l 1,19,-1
 738 1445 l 1,20,-1
 686 1091 l 2,21,22
 666 951 666 951 642 837 c 128,-1,23
 618 723 618 723 597.5 644 c 128,-1,24
 577 565 577 565 548 498 c 128,-1,25
 519 431 519 431 499.5 393 c 128,-1,26
 480 355 480 355 446.5 315.5 c 128,-1,27
 413 276 413 276 395 259 c 128,-1,28
 377 242 377 242 341 210 c 1,17,-1
EndSplineSet
EndChar

StartChar: afii10024
Encoding: 1046 1046 272
Width: 1490
GlyphClass: 2
Flags: W
LayerCount: 2
UndoRedoHistory
Layer: 1
Undoes
EndUndoes
Redoes
EndRedoes
EndUndoRedoHistory
Fore
SplineSet
-45 0 m 1,0,-1
 411 841 l 1,1,-1
 157 1658 l 1,2,-1
 438 1658 l 1,3,-1
 651 867 l 1,4,-1
 666 867 l 1,5,-1
 748 1658 l 1,6,-1
 990 1658 l 1,7,-1
 907 867 l 1,8,-1
 922 867 l 1,9,-1
 1301 1658 l 1,10,-1
 1582 1658 l 1,11,-1
 1156 841 l 1,12,-1
 1435 0 l 1,13,-1
 1158 0 l 1,14,-1
 918 819 l 1,15,-1
 902 819 l 1,16,-1
 816 0 l 1,17,-1
 574 0 l 1,18,-1
 661 819 l 1,19,-1
 645 819 l 1,20,-1
 233 0 l 1,21,-1
 -45 0 l 1,0,-1
EndSplineSet
EndChar

StartChar: afii10025
Encoding: 1047 1047 273
Width: 1023
GlyphClass: 2
Flags: W
LayerCount: 2
UndoRedoHistory
Layer: 1
Undoes
EndUndoes
Redoes
EndRedoes
EndUndoRedoHistory
Fore
SplineSet
460 -22 m 0,0,1
 240 -22 240 -22 147 100 c 0,2,3
 72 197 72 197 72 359 c 0,4,5
 72 399 72 399 77 443 c 1,6,-1
 84 502 l 1,7,-1
 362 502 l 1,8,9
 359 478 359 478 356 439 c 0,10,11
 354 410 354 410 354 384 c 0,12,13
 354 308 354 308 374 266 c 0,14,15
 401 210 401 210 486 209 c 0,16,17
 526 209 526 209 555 222 c 128,-1,18
 584 235 584 235 602.5 256 c 128,-1,19
 621 277 621 277 634 313 c 128,-1,20
 647 349 647 349 653.5 385 c 128,-1,21
 660 421 660 421 666 474 c 0,22,23
 669 505 669 505 669 533 c 0,24,25
 668 624 668 624 634 678 c 0,26,27
 588 748 588 748 454 757 c 0,28,29
 442 758 442 758 386 758 c 1,30,-1
 407 963 l 1,31,32
 459 963 459 963 471 964 c 0,33,34
 610 971 610 971 670.5 1035.5 c 128,-1,35
 731 1100 731 1100 744 1230 c 1,36,37
 747 1259 747 1259 747 1285 c 0,38,39
 748 1354 748 1354 724 1396 c 0,40,41
 692 1454 692 1454 603 1453 c 0,42,43
 445 1453 445 1453 408 1229 c 0,44,45
 402 1193 402 1193 400 1159 c 1,46,-1
 121 1159 l 1,47,-1
 130 1234 l 1,48,49
 152 1444 152 1444 283 1561 c 128,-1,50
 414 1678 414 1678 621 1678 c 0,51,52
 832 1678 832 1678 938 1562 c 0,53,54
 1026 1466 1026 1466 1026 1307 c 0,55,56
 1026 1274 1026 1274 1022 1238 c 0,57,58
 1007 1096 1007 1096 935.5 1000 c 128,-1,59
 864 904 864 904 759 874 c 1,60,61
 946 808 946 808 946 558 c 0,62,63
 946 520 946 520 942 477 c 0,64,65
 917 241 917 241 800 109.5 c 128,-1,66
 683 -22 683 -22 460 -22 c 0,0,1
EndSplineSet
EndChar

StartChar: afii10026
Encoding: 1048 1048 274
Width: 1156
GlyphClass: 2
Flags: W
LayerCount: 2
UndoRedoHistory
Layer: 1
Undoes
EndUndoes
Redoes
EndRedoes
EndUndoRedoHistory
Fore
SplineSet
77 0 m 1,0,-1
 251 1658 l 1,1,-1
 498 1658 l 1,2,-1
 389 613 l 1,3,-1
 951 1658 l 1,4,-1
 1153 1658 l 1,5,-1
 979 0 l 1,6,-1
 730 0 l 1,7,-1
 842 1066 l 1,8,-1
 276 0 l 1,9,-1
 77 0 l 1,0,-1
EndSplineSet
EndChar

StartChar: afii10028
Encoding: 1050 1050 276
Width: 1099
GlyphClass: 2
Flags: W
LayerCount: 2
UndoRedoHistory
Layer: 1
Undoes
EndUndoes
Redoes
EndRedoes
EndUndoRedoHistory
Fore
SplineSet
77 0 m 1,0,-1
 251 1658 l 1,1,-1
 546 1658 l 1,2,-1
 473 956 l 1,3,-1
 535 956 l 1,4,-1
 878 1658 l 1,5,-1
 1171 1658 l 1,6,-1
 778 876 l 1,7,-1
 1025 0 l 1,8,-1
 726 0 l 1,9,-1
 516 776 l 1,10,-1
 454 776 l 1,11,-1
 372 0 l 1,12,-1
 77 0 l 1,0,-1
EndSplineSet
EndChar

StartChar: afii10029
Encoding: 1051 1051 277
Width: 1252
GlyphClass: 2
Flags: W
LayerCount: 2
UndoRedoHistory
Layer: 1
Undoes
EndUndoes
Redoes
EndRedoes
EndUndoRedoHistory
Fore
SplineSet
-47 0 m 1,0,-1
 -24 214 l 1,1,2
 -14 214 -14 214 -5 214 c 0,3,4
 30 214 30 214 54 217 c 0,5,6
 84 221 84 221 116 241 c 128,-1,7
 148 261 148 261 168.5 297.5 c 128,-1,8
 189 334 189 334 213 401.5 c 128,-1,9
 237 469 237 469 257.5 564 c 128,-1,10
 278 659 278 659 302 800 c 2,11,-1
 447 1658 l 1,12,-1
 1249 1658 l 1,13,-1
 1075 0 l 1,14,-1
 780 0 l 1,15,-1
 931 1437 l 1,16,-1
 684 1437 l 1,17,-1
 577 774 l 2,18,19
 561 674 561 674 547 602.5 c 128,-1,20
 533 531 533 531 514.5 453.5 c 128,-1,21
 496 376 496 376 476 323.5 c 128,-1,22
 456 271 456 271 429 217 c 128,-1,23
 402 163 402 163 370 129.5 c 128,-1,24
 338 96 338 96 296 66 c 128,-1,25
 254 36 254 36 203.5 21.5 c 0,26,27
 152 7 152 7 90 1 c 0,28,29
 56 -2 56 -2 19 -2 c 0,30,31
 -13 -2 -13 -2 -47 0 c 1,0,-1
EndSplineSet
EndChar

StartChar: afii10030
Encoding: 1052 1052 278
Width: 1392
GlyphClass: 2
Flags: W
LayerCount: 2
UndoRedoHistory
Layer: 1
Undoes
EndUndoes
Redoes
EndRedoes
EndUndoRedoHistory
Fore
SplineSet
71 0 m 1,0,-1
 273 1658 l 1,1,-1
 560 1658 l 1,2,-1
 701 527 l 1,3,-1
 1086 1658 l 1,4,-1
 1367 1658 l 1,5,-1
 1221 0 l 1,6,-1
 1000 0 l 1,7,-1
 1098 1076 l 1,8,-1
 726 0 l 1,9,-1
 570 0 l 1,10,-1
 421 1079 l 1,11,-1
 294 0 l 1,12,-1
 71 0 l 1,0,-1
EndSplineSet
EndChar

StartChar: afii10033
Encoding: 1055 1055 281
Width: 1203
GlyphClass: 2
Flags: W
LayerCount: 2
UndoRedoHistory
Layer: 1
Undoes
EndUndoes
Redoes
EndRedoes
EndUndoRedoHistory
Fore
SplineSet
74 0 m 1,0,-1
 248 1658 l 1,1,-1
 1202 1658 l 1,2,-1
 1028 0 l 1,3,-1
 735 0 l 1,4,-1
 888 1447 l 1,5,-1
 520 1447 l 1,6,-1
 367 0 l 1,7,-1
 74 0 l 1,0,-1
EndSplineSet
EndChar

StartChar: afii10034
Encoding: 1056 1056 282
Width: 1050
GlyphClass: 2
Flags: W
LayerCount: 2
UndoRedoHistory
Layer: 1
Undoes
EndUndoes
Redoes
EndRedoes
EndUndoRedoHistory
Fore
SplineSet
74 0 m 1,0,-1
 248 1658 l 1,1,-1
 717 1658 l 2,2,3
 936 1658 936 1658 1026 1538 c 0,4,5
 1097 1444 1097 1444 1096 1283 c 0,6,7
 1096 1238 1096 1238 1091 1188 c 0,8,9
 1067 960 1067 960 940.5 852.5 c 128,-1,10
 814 745 814 745 605 745 c 2,11,-1
 448 745 l 1,12,-1
 370 0 l 1,13,-1
 74 0 l 1,0,-1
470 953 m 1,14,-1
 565 953 l 2,15,16
 696 953 696 953 747.5 1003.5 c 128,-1,17
 799 1054 799 1054 813 1190 c 1,18,19
 820 1246 820 1246 820 1290 c 0,20,21
 820 1320 820 1320 817 1342 c 0,22,23
 809 1400 809 1400 764 1424.5 c 128,-1,24
 719 1449 719 1449 619 1449 c 2,25,-1
 522 1449 l 1,26,-1
 470 953 l 1,14,-1
EndSplineSet
EndChar

StartChar: afii10037
Encoding: 1059 1059 285
Width: 1003
GlyphClass: 2
Flags: W
LayerCount: 2
UndoRedoHistory
Layer: 1
Undoes
EndUndoes
Redoes
EndRedoes
EndUndoRedoHistory
Fore
SplineSet
27 -287 m 1,0,-1
 49 -75 l 1,1,2
 95 -79 95 -79 133 -79 c 0,3,4
 177 -80 177 -80 210 -74 c 0,5,6
 272 -64 272 -64 305.5 -33 c 128,-1,7
 339 -2 339 -2 347 50 c 0,8,9
 351 74 351 74 351 103 c 0,10,11
 351 136 351 136 346 174 c 2,12,-1
 163 1658 l 1,13,-1
 438 1658 l 1,14,-1
 502 968 l 1,15,-1
 523 475 l 1,16,-1
 635 966 l 1,17,-1
 826 1658 l 1,18,-1
 1107 1658 l 1,19,-1
 637 152 l 2,20,21
 603 43 603 43 585.5 -6.5 c 128,-1,22
 568 -56 568 -56 533.5 -121 c 128,-1,23
 499 -186 499 -186 464 -209.5 c 128,-1,24
 429 -233 429 -233 367 -258.5 c 0,25,26
 304 -284 304 -284 224 -288 c 0,27,28
 188 -290 188 -290 146 -290 c 0,29,30
 92 -290 92 -290 27 -287 c 1,0,-1
EndSplineSet
EndChar

StartChar: afii10038
Encoding: 1060 1060 286
Width: 1446
GlyphClass: 2
Flags: W
LayerCount: 2
UndoRedoHistory
Layer: 1
Undoes
EndUndoes
Redoes
EndRedoes
EndUndoRedoHistory
Fore
SplineSet
529 -64 m 1,0,-1
 557 199 l 1,1,-1
 502 197 l 1,2,3
 472 194 472 194 445 194 c 0,4,5
 279 194 279 194 190 288 c 0,6,7
 106 376 106 376 106 542 c 0,8,9
 106 581 106 581 111 624 c 2,10,-1
 157 1062 l 2,11,12
 182 1288 182 1288 306 1396 c 0,13,14
 416 1491 416 1491 588 1491 c 0,15,16
 610 1491 610 1491 634 1489 c 1,17,-1
 692 1487 l 1,18,-1
 724 1788 l 1,19,-1
 992 1788 l 1,20,-1
 961 1488 l 1,21,-1
 1021 1489 l 1,22,23
 1045 1491 1045 1491 1068 1491 c 0,24,25
 1244 1491 1244 1491 1334 1396 c 0,26,27
 1417 1309 1417 1309 1417 1144 c 0,28,29
 1417 1105 1417 1105 1412 1062 c 2,30,-1
 1366 624 l 2,31,32
 1342 397 1342 397 1217 288 c 0,33,34
 1110 194 1110 194 946 194 c 0,35,36
 919 194 919 194 890 197 c 1,37,-1
 825 199 l 1,38,-1
 798 -64 l 1,39,-1
 529 -64 l 1,0,-1
547 376 m 0,40,41
 568 376 568 376 576 378 c 1,42,-1
 674 1312 l 1,43,44
 671 1314 671 1314 659 1314 c 0,45,46
 655 1314 655 1314 652 1314 c 0,47,48
 646 1314 646 1314 645 1313 c 1,49,50
 632 1314 632 1314 620 1314 c 0,51,52
 573 1314 573 1314 541 1304 c 0,53,54
 501 1292 501 1292 476.5 1259.5 c 128,-1,55
 452 1227 452 1227 441 1183 c 128,-1,56
 430 1139 430 1139 422 1064 c 2,57,-1
 375 622 l 1,58,59
 369 572 369 572 369 532 c 0,60,61
 369 500 369 500 373 475 c 0,62,63
 382 420 382 420 422 396 c 0,64,65
 456 376 456 376 523 375 c 0,66,67
 535 375 535 375 547 376 c 0,40,41
878 377 m 0,68,69
 892 376 892 376 905 376 c 0,70,71
 951 376 951 376 982 384 c 0,72,73
 1022 394 1022 394 1046.5 426.5 c 128,-1,74
 1071 459 1071 459 1082.5 503 c 128,-1,75
 1094 547 1094 547 1102 622 c 2,76,-1
 1148 1064 l 1,77,78
 1154 1115 1154 1115 1154 1156 c 0,79,80
 1154 1188 1154 1188 1150 1212 c 0,81,82
 1142 1268 1142 1268 1102 1292 c 0,83,84
 1066 1313 1066 1313 994 1313 c 0,85,86
 985 1313 985 1313 976 1313 c 1,87,-1
 942 1313 l 1,88,-1
 844 378 l 1,89,90
 846 378 846 378 861 377.5 c 128,-1,91
 876 377 876 377 878 377 c 0,68,69
EndSplineSet
EndChar

StartChar: afii10040
Encoding: 1062 1062 288
Width: 1337
GlyphClass: 2
Flags: W
LayerCount: 2
UndoRedoHistory
Layer: 1
Undoes
EndUndoes
Redoes
EndRedoes
EndUndoRedoHistory
Fore
SplineSet
985 -326 m 1,0,-1
 988 0 l 1,1,-1
 77 0 l 1,2,-1
 251 1658 l 1,3,-1
 546 1658 l 1,4,-1
 394 205 l 1,5,-1
 779 205 l 1,6,-1
 932 1658 l 1,7,-1
 1227 1658 l 1,8,-1
 1075 205 l 1,9,-1
 1263 205 l 1,10,-1
 1207 -326 l 1,11,-1
 985 -326 l 1,0,-1
EndSplineSet
EndChar

StartChar: afii10041
Encoding: 1063 1063 289
Width: 1162
GlyphClass: 2
Flags: W
LayerCount: 2
UndoRedoHistory
Layer: 1
Undoes
EndUndoes
Redoes
EndRedoes
EndUndoRedoHistory
Fore
SplineSet
689 0 m 1,0,-1
 766 733 l 1,1,2
 634 710 634 710 539 710 c 0,3,4
 342 710 342 710 241 812 c 0,5,6
 157 897 157 897 157 1043 c 0,7,8
 157 1072 157 1072 160 1103 c 2,9,-1
 219 1658 l 1,10,-1
 496 1658 l 1,11,-1
 438 1104 l 2,12,13
 436 1080 436 1080 436 1059 c 0,14,15
 436 986 436 986 465 946 c 0,16,17
 503 896 503 896 625 896 c 0,18,19
 698 896 698 896 785 914 c 1,20,-1
 863 1658 l 1,21,-1
 1158 1658 l 1,22,-1
 984 0 l 1,23,-1
 689 0 l 1,0,-1
EndSplineSet
EndChar

StartChar: afii10042
Encoding: 1064 1064 290
Width: 1605
GlyphClass: 2
Flags: W
LayerCount: 2
UndoRedoHistory
Layer: 1
Undoes
EndUndoes
Redoes
EndRedoes
EndUndoRedoHistory
Fore
SplineSet
77 0 m 1,0,-1
 251 1658 l 1,1,-1
 539 1658 l 1,2,-1
 387 212 l 1,3,-1
 637 212 l 1,4,-1
 789 1658 l 1,5,-1
 1076 1658 l 1,6,-1
 924 212 l 1,7,-1
 1163 212 l 1,8,-1
 1315 1658 l 1,9,-1
 1602 1658 l 1,10,-1
 1428 0 l 1,11,-1
 77 0 l 1,0,-1
EndSplineSet
EndChar

StartChar: afii10043
Encoding: 1065 1065 291
Width: 1733
GlyphClass: 2
Flags: W
LayerCount: 2
UndoRedoHistory
Layer: 1
Undoes
EndUndoes
Redoes
EndRedoes
EndUndoRedoHistory
Fore
SplineSet
1361 -326 m 1,0,-1
 1367 0 l 1,1,-1
 77 0 l 1,2,-1
 251 1658 l 1,3,-1
 539 1658 l 1,4,-1
 386 205 l 1,5,-1
 637 205 l 1,6,-1
 789 1658 l 1,7,-1
 1076 1658 l 1,8,-1
 924 205 l 1,9,-1
 1164 205 l 1,10,-1
 1316 1658 l 1,11,-1
 1603 1658 l 1,12,-1
 1451 205 l 1,13,-1
 1640 205 l 1,14,-1
 1584 -326 l 1,15,-1
 1361 -326 l 1,0,-1
EndSplineSet
EndChar

StartChar: afii10044
Encoding: 1066 1066 292
Width: 1218
GlyphClass: 2
Flags: W
LayerCount: 2
UndoRedoHistory
Layer: 1
Undoes
EndUndoes
Redoes
EndRedoes
EndUndoRedoHistory
Fore
SplineSet
223 0 m 1,0,-1
 374 1445 l 1,1,-1
 98 1445 l 1,2,-1
 120 1658 l 1,3,-1
 692 1658 l 1,4,-1
 620 965 l 1,5,-1
 682 965 l 2,6,7
 817 965 817 965 909 941.5 c 128,-1,8
 1001 918 1001 918 1063.5 863 c 128,-1,9
 1126 808 1126 808 1148 715 c 0,10,11
 1162 658 1162 658 1162 584 c 0,12,13
 1162 538 1162 538 1157 485 c 0,14,15
 1143 348 1143 348 1098 253 c 128,-1,16
 1053 158 1053 158 977 103 c 128,-1,17
 901 48 901 48 804 24 c 128,-1,18
 707 0 707 0 576 0 c 2,19,-1
 223 0 l 1,0,-1
540 203 m 1,20,-1
 598 203 l 2,21,22
 668 203 668 203 714.5 214.5 c 128,-1,23
 761 226 761 226 797.5 257.5 c 128,-1,24
 834 289 834 289 854 345 c 128,-1,25
 874 401 874 401 883 489 c 0,26,27
 886 520 886 520 886 548 c 0,28,29
 886 646 886 646 847 694 c 0,30,31
 797 756 797 756 652 757 c 2,32,-1
 598 757 l 1,33,-1
 540 203 l 1,20,-1
EndSplineSet
EndChar

StartChar: afii10045
Encoding: 1067 1067 293
Width: 1582
GlyphClass: 2
Flags: W
LayerCount: 2
UndoRedoHistory
Layer: 1
Undoes
EndUndoes
Redoes
EndRedoes
EndUndoRedoHistory
Fore
SplineSet
77 0 m 1,0,-1
 251 1658 l 1,1,-1
 546 1658 l 1,2,-1
 474 965 l 1,3,-1
 531 965 l 2,4,5
 666 965 666 965 758 941.5 c 128,-1,6
 850 918 850 918 913 863 c 128,-1,7
 976 808 976 808 998 715 c 0,8,9
 1012 658 1012 658 1012 584 c 0,10,11
 1012 538 1012 538 1007 485 c 0,12,13
 993 348 993 348 948 253 c 128,-1,14
 903 158 903 158 827 103 c 128,-1,15
 751 48 751 48 653.5 24 c 128,-1,16
 556 0 556 0 425 0 c 2,17,-1
 77 0 l 1,0,-1
394 203 m 1,18,-1
 448 203 l 2,19,20
 518 203 518 203 564 214.5 c 128,-1,21
 610 226 610 226 646.5 257.5 c 128,-1,22
 683 289 683 289 703 345 c 128,-1,23
 723 401 723 401 732 489 c 0,24,25
 735 521 735 521 735 548 c 0,26,27
 734 646 734 646 696 694 c 0,28,29
 646 756 646 756 501 757 c 2,30,-1
 452 757 l 1,31,-1
 394 203 l 1,18,-1
1110 0 m 1,32,-1
 1284 1658 l 1,33,-1
 1579 1658 l 1,34,-1
 1405 0 l 1,35,-1
 1110 0 l 1,32,-1
EndSplineSet
EndChar

StartChar: afii10046
Encoding: 1068 1068 294
Width: 1067
GlyphClass: 2
Flags: W
LayerCount: 2
UndoRedoHistory
Layer: 1
Undoes
EndUndoes
Redoes
EndRedoes
EndUndoRedoHistory
Fore
SplineSet
77 0 m 1,0,-1
 251 1658 l 1,1,-1
 546 1658 l 1,2,-1
 474 965 l 1,3,-1
 530 965 l 2,4,5
 665 965 665 965 757.5 941.5 c 128,-1,6
 850 918 850 918 912.5 863 c 0,7,8
 976 808 976 808 998 715 c 0,9,10
 1012 658 1012 658 1011 584 c 0,11,12
 1011 538 1011 538 1006 485 c 0,13,14
 992 348 992 348 947 253 c 128,-1,15
 902 158 902 158 826 103 c 128,-1,16
 750 48 750 48 653 24 c 128,-1,17
 556 0 556 0 425 0 c 2,18,-1
 77 0 l 1,0,-1
394 203 m 1,19,-1
 447 203 l 2,20,21
 517 203 517 203 563 214.5 c 128,-1,22
 609 226 609 226 645.5 257.5 c 128,-1,23
 682 289 682 289 702 345 c 128,-1,24
 722 401 722 401 731 489 c 0,25,26
 734 521 734 521 734 548 c 0,27,28
 734 646 734 646 696 694 c 0,29,30
 646 756 646 756 500 757 c 2,31,-1
 452 757 l 1,32,-1
 394 203 l 1,19,-1
EndSplineSet
EndChar

StartChar: afii10047
Encoding: 1069 1069 295
Width: 1111
GlyphClass: 2
Flags: W
LayerCount: 2
UndoRedoHistory
Layer: 1
Undoes
EndUndoes
Redoes
EndRedoes
EndUndoRedoHistory
Fore
SplineSet
494 -2 m 0,0,1
 371 -2 371 -2 287 31 c 128,-1,2
 203 64 203 64 159 128 c 128,-1,3
 115 192 115 192 101 278 c 0,4,5
 93 324 93 324 93 378 c 0,6,7
 93 425 93 425 99 477 c 2,8,-1
 108 563 l 1,9,-1
 393 563 l 1,10,-1
 384 480 l 2,11,12
 376 402 376 402 376 356 c 0,13,14
 376 328 376 328 379 311 c 0,15,16
 395 230 395 230 483 219 c 0,17,18
 498 217 498 217 516 217 c 0,19,20
 563 217 563 217 597 232 c 128,-1,21
 631 247 631 247 651 269.5 c 128,-1,22
 671 292 671 292 685 332.5 c 128,-1,23
 699 373 699 373 705 409.5 c 128,-1,24
 711 446 711 446 717 503 c 2,25,-1
 746 768 l 1,26,-1
 472 768 l 1,27,-1
 490 939 l 1,28,-1
 764 939 l 1,29,-1
 790 1197 l 2,30,31
 796 1249 796 1249 796 1291 c 0,32,33
 796 1371 796 1371 776 1412 c 0,34,35
 746 1475 746 1475 648 1475 c 0,36,37
 615 1475 615 1475 589 1467 c 128,-1,38
 563 1459 563 1459 545 1447.5 c 128,-1,39
 527 1436 527 1436 513 1414 c 128,-1,40
 499 1392 499 1392 491 1372.5 c 128,-1,41
 483 1353 483 1353 476.5 1320 c 128,-1,42
 470 1287 470 1287 466.5 1262.5 c 128,-1,43
 463 1238 463 1238 459 1197 c 2,44,-1
 450 1112 l 1,45,-1
 166 1112 l 1,46,-1
 174 1188 l 2,47,48
 187 1306 187 1306 217.5 1394 c 128,-1,49
 248 1482 248 1482 304.5 1552 c 128,-1,50
 361 1622 361 1622 453.5 1658.5 c 128,-1,51
 546 1695 546 1695 673 1695 c 0,52,53
 780 1695 780 1695 859 1668 c 128,-1,54
 938 1641 938 1641 985 1592 c 128,-1,55
 1032 1543 1032 1543 1058.5 1473.5 c 0,56,57
 1084 1404 1084 1404 1088 1320 c 0,58,59
 1089 1296 1089 1296 1089 1271 c 0,60,61
 1089 1207 1089 1207 1083 1137 c 1,62,-1
 1022 560 l 2,63,64
 1008 425 1008 425 975 326 c 128,-1,65
 942 227 942 227 882 151 c 128,-1,66
 822 75 822 75 725 36.5 c 128,-1,67
 628 -2 628 -2 494 -2 c 0,0,1
EndSplineSet
EndChar

StartChar: afii10048
Encoding: 1070 1070 296
Width: 1566
GlyphClass: 2
Flags: W
LayerCount: 2
UndoRedoHistory
Layer: 1
Undoes
EndUndoes
Redoes
EndRedoes
EndUndoRedoHistory
Fore
SplineSet
980 -20 m 0,0,1
 858 -20 858 -20 775.5 19.5 c 128,-1,2
 693 59 693 59 653 131.5 c 128,-1,3
 613 204 613 204 600 307 c 0,4,5
 594 353 594 353 594 404 c 0,6,7
 594 467 594 467 603 537 c 1,8,-1
 623 735 l 1,9,-1
 437 735 l 1,10,-1
 360 0 l 1,11,-1
 77 0 l 1,12,-1
 251 1658 l 1,13,-1
 534 1658 l 1,14,-1
 461 955 l 1,15,-1
 646 955 l 1,16,-1
 664 1127 l 2,17,18
 678 1260 678 1260 710 1357.5 c 128,-1,19
 742 1455 742 1455 799.5 1528.5 c 128,-1,20
 857 1602 857 1602 947 1639.5 c 128,-1,21
 1037 1677 1037 1677 1159 1677 c 128,-1,22
 1281 1677 1281 1677 1363 1638.5 c 128,-1,23
 1445 1600 1445 1600 1485.5 1528.5 c 128,-1,24
 1526 1457 1526 1457 1540 1355 c 0,25,26
 1546 1308 1546 1308 1546 1257 c 0,27,28
 1546 1196 1546 1196 1537 1127 c 1,29,-1
 1475 537 l 2,30,31
 1461 406 1461 406 1428.5 307.5 c 128,-1,32
 1396 209 1396 209 1339 133.5 c 128,-1,33
 1282 58 1282 58 1191.5 19 c 128,-1,34
 1101 -20 1101 -20 980 -20 c 0,0,1
1004 200 m 0,35,36
 1056 200 1056 200 1092 218.5 c 128,-1,37
 1128 237 1128 237 1149 275 c 128,-1,38
 1170 313 1170 313 1180 354.5 c 128,-1,39
 1190 396 1190 396 1197 458 c 2,40,-1
 1275 1206 l 2,41,42
 1280 1256 1280 1256 1280 1298 c 0,43,44
 1280 1319 1280 1319 1278 1337 c 0,45,46
 1274 1393 1274 1393 1239.5 1425.5 c 128,-1,47
 1205 1458 1205 1458 1136 1458 c 0,48,49
 1094 1458 1094 1458 1062 1445.5 c 128,-1,50
 1030 1433 1030 1433 1009.5 1412.5 c 128,-1,51
 989 1392 989 1392 975 1358 c 128,-1,52
 961 1324 961 1324 954 1289 c 128,-1,53
 947 1254 947 1254 942 1206 c 2,54,-1
 864 458 l 1,55,56
 860 411 860 411 860 370 c 0,57,58
 860 346 860 346 862 326 c 0,59,60
 866 268 866 268 900.5 234 c 128,-1,61
 935 200 935 200 1004 200 c 0,35,36
EndSplineSet
EndChar

StartChar: afii10049
Encoding: 1071 1071 297
Width: 1168
GlyphClass: 2
Flags: W
LayerCount: 2
UndoRedoHistory
Layer: 1
Undoes
EndUndoes
Redoes
EndRedoes
EndUndoRedoHistory
Fore
SplineSet
-28 0 m 1,0,-1
 386 741 l 1,1,2
 286 796 286 796 236 910 c 0,3,4
 198 995 198 995 198 1106 c 0,5,6
 198 1144 198 1144 202 1185 c 0,7,8
 227 1424 227 1424 371 1541 c 128,-1,9
 515 1658 515 1658 797 1658 c 2,10,-1
 1165 1658 l 1,11,-1
 991 0 l 1,12,-1
 695 0 l 1,13,-1
 766 673 l 1,14,-1
 673 673 l 1,15,-1
 636 673 l 1,16,-1
 296 0 l 1,17,-1
 -28 0 l 1,0,-1
732 882 m 2,18,-1
 788 882 l 1,19,-1
 848 1451 l 1,20,-1
 786 1451 l 2,21,22
 645 1451 645 1451 569 1386.5 c 128,-1,23
 493 1322 493 1322 479 1185 c 0,24,25
 476 1152 476 1152 476 1122 c 0,26,27
 476 1016 476 1016 520 958 c 0,28,29
 578 882 578 882 732 882 c 2,18,-1
EndSplineSet
EndChar

StartChar: afii10051
Encoding: 1026 1026 298
Width: 1198
GlyphClass: 2
Flags: W
LayerCount: 2
UndoRedoHistory
Layer: 1
Undoes
EndUndoes
Redoes
EndRedoes
EndUndoRedoHistory
Fore
SplineSet
195 0 m 1,0,-1
 347 1446 l 1,1,-1
 118 1446 l 1,2,-1
 140 1658 l 1,3,-1
 926 1658 l 1,4,-1
 904 1446 l 1,5,-1
 637 1446 l 1,6,-1
 580 905 l 1,7,8
 682 981 682 981 819 981 c 0,9,10
 885 981 885 981 943.5 960.5 c 128,-1,11
 1002 940 1002 940 1048 901.5 c 128,-1,12
 1094 863 1094 863 1117 800 c 0,13,14
 1134 753 1134 753 1134 698 c 0,15,16
 1134 679 1134 679 1132 658 c 2,17,-1
 1108 431 l 2,18,19
 1084 203 1084 203 975.5 101.5 c 128,-1,20
 867 0 867 0 657 0 c 2,21,-1
 602 0 l 1,22,-1
 623 191 l 1,23,24
 728 191 728 191 775 254 c 128,-1,25
 822 317 822 317 834 432 c 2,26,-1
 855 639 l 2,27,28
 856 650 856 650 856 661 c 0,29,30
 856 712 856 712 829 750 c 0,31,32
 796 798 796 798 723 797 c 0,33,34
 654 797 654 797 564 750 c 1,35,-1
 485 0 l 1,36,-1
 195 0 l 1,0,-1
EndSplineSet
EndChar

StartChar: afii10053
Encoding: 1028 1028 300
Width: 1075
GlyphClass: 2
Flags: W
LayerCount: 2
UndoRedoHistory
Layer: 1
Undoes
EndUndoes
Redoes
EndRedoes
EndUndoRedoHistory
Fore
SplineSet
514 -20 m 0,0,1
 407 -20 407 -20 328 7 c 128,-1,2
 249 34 249 34 202 83 c 128,-1,3
 155 132 155 132 128.5 201.5 c 0,4,5
 102 272 102 272 98 356 c 0,6,7
 97 380 97 380 98 404 c 0,8,9
 98 468 98 468 104 538 c 1,10,-1
 165 1115 l 2,11,12
 179 1250 179 1250 212 1349 c 128,-1,13
 245 1448 245 1448 305 1524 c 128,-1,14
 365 1600 365 1600 462 1638.5 c 128,-1,15
 559 1677 559 1677 693 1677 c 0,16,17
 816 1677 816 1677 900 1644 c 128,-1,18
 984 1611 984 1611 1028 1547 c 0,19,20
 1072 1484 1072 1484 1086 1398 c 0,21,22
 1094 1352 1094 1352 1094 1297 c 0,23,24
 1094 1250 1094 1250 1088 1198 c 2,25,-1
 1080 1123 l 1,26,-1
 795 1123 l 1,27,-1
 803 1195 l 2,28,29
 811 1273 811 1273 811 1319 c 0,30,31
 811 1347 811 1347 808 1364 c 0,32,33
 792 1445 792 1445 704 1456 c 0,34,35
 689 1458 689 1458 671 1458 c 0,36,37
 624 1458 624 1458 590 1443 c 128,-1,38
 556 1428 556 1428 536 1405.5 c 128,-1,39
 516 1383 516 1383 502 1342.5 c 128,-1,40
 488 1302 488 1302 481.5 1266 c 128,-1,41
 475 1230 475 1230 469 1172 c 2,42,-1
 445 941 l 1,43,-1
 798 941 l 1,44,-1
 779 758 l 1,45,-1
 426 758 l 1,46,-1
 397 478 l 1,47,48
 391 424 391 424 391 381 c 0,49,50
 391 303 391 303 411 263 c 0,51,52
 442 200 442 200 539 200 c 0,53,54
 568 200 568 200 591 205 c 128,-1,55
 614 210 614 210 632 222 c 128,-1,56
 650 234 650 234 663 246 c 128,-1,57
 676 258 676 258 685.5 280.5 c 128,-1,58
 695 303 695 303 701.5 320.5 c 128,-1,59
 708 338 708 338 713.5 368.5 c 128,-1,60
 719 399 719 399 721.5 420 c 128,-1,61
 724 441 724 441 728 478 c 2,62,-1
 736 561 l 1,63,-1
 1020 561 l 1,64,-1
 1013 487 l 1,65,66
 1003 394 1003 394 982.5 319.5 c 128,-1,67
 962 245 962 245 923.5 180 c 128,-1,68
 885 115 885 115 830.5 72 c 128,-1,69
 776 29 776 29 696 4.5 c 128,-1,70
 616 -20 616 -20 514 -20 c 0,0,1
EndSplineSet
EndChar

StartChar: afii10055
Encoding: 1030 1030 302
Width: 539
GlyphClass: 2
Flags: W
LayerCount: 2
UndoRedoHistory
Layer: 1
Undoes
EndUndoes
Redoes
EndRedoes
EndUndoRedoHistory
Fore
SplineSet
78 0 m 1,0,-1
 252 1658 l 1,1,-1
 543 1658 l 1,2,-1
 369 0 l 1,3,-1
 78 0 l 1,0,-1
EndSplineSet
EndChar

StartChar: afii10057
Encoding: 1032 1032 304
Width: 644
GlyphClass: 2
Flags: W
LayerCount: 2
UndoRedoHistory
Layer: 1
Undoes
EndUndoes
Redoes
EndRedoes
EndUndoRedoHistory
Fore
SplineSet
-42 -35 m 1,0,-1
 -20 174 l 1,1,2
 -17 174 -17 174 -14 174 c 0,3,4
 115 174 115 174 163 214 c 0,5,6
 212 256 212 256 225 387 c 2,7,-1
 358 1658 l 1,8,-1
 654 1658 l 1,9,-1
 520 379 l 1,10,11
 507 270 507 270 481.5 195.5 c 128,-1,12
 456 121 456 121 408 67.5 c 128,-1,13
 360 14 360 14 284.5 -10.5 c 128,-1,14
 209 -35 209 -35 100 -35 c 2,15,-1
 -42 -35 l 1,0,-1
EndSplineSet
EndChar

StartChar: afii10058
Encoding: 1033 1033 305
Width: 1759
GlyphClass: 2
Flags: W
LayerCount: 2
UndoRedoHistory
Layer: 1
Undoes
EndUndoes
Redoes
EndRedoes
EndUndoRedoHistory
Fore
SplineSet
-27 0 m 1,0,-1
 -4 214 l 1,1,2
 8 213 8 213 18 213 c 0,3,4
 56 214 56 214 86 222 c 0,5,6
 124 232 124 232 156.5 261 c 128,-1,7
 189 290 189 290 214 344.5 c 128,-1,8
 239 399 239 399 261 481 c 128,-1,9
 283 563 283 563 303 681 c 2,10,-1
 465 1658 l 1,11,-1
 1268 1658 l 1,12,-1
 1195 965 l 1,13,-1
 1224 965 l 2,14,15
 1359 965 1359 965 1451.5 941.5 c 128,-1,16
 1544 918 1544 918 1606.5 863 c 0,17,18
 1670 808 1670 808 1692 715 c 0,19,20
 1706 658 1706 658 1705 584 c 0,21,22
 1705 538 1705 538 1700 485 c 0,23,24
 1686 348 1686 348 1641 253 c 128,-1,25
 1596 158 1596 158 1520 103 c 128,-1,26
 1444 48 1444 48 1347 24 c 128,-1,27
 1250 0 1250 0 1119 0 c 2,28,-1
 799 0 l 1,29,-1
 950 1437 l 1,30,-1
 704 1437 l 1,31,-1
 580 679 l 2,32,33
 520 308 520 308 402 150 c 0,34,35
 289 -1 289 -1 73 -1 c 0,36,37
 63 -1 63 -1 54 -1 c 1,38,-1
 -27 0 l 1,0,-1
1116 203 m 1,39,-1
 1141 203 l 2,40,41
 1211 203 1211 203 1257 214.5 c 128,-1,42
 1303 226 1303 226 1339.5 257.5 c 128,-1,43
 1376 289 1376 289 1396 345 c 128,-1,44
 1416 401 1416 401 1425 489 c 0,45,46
 1428 521 1428 521 1428 548 c 0,47,48
 1428 646 1428 646 1390 694 c 0,49,50
 1340 756 1340 756 1194 757 c 2,51,-1
 1174 757 l 1,52,-1
 1116 203 l 1,39,-1
EndSplineSet
EndChar

StartChar: afii10059
Encoding: 1034 1034 306
Width: 1650
GlyphClass: 2
Flags: W
LayerCount: 2
UndoRedoHistory
Layer: 1
Undoes
EndUndoes
Redoes
EndRedoes
EndUndoRedoHistory
Fore
SplineSet
1010 0 m 2,0,-1
 691 1 l 1,1,-1
 770 755 l 1,2,-1
 452 755 l 1,3,-1
 372 1 l 1,4,-1
 77 1 l 1,5,-1
 251 1660 l 1,6,-1
 546 1660 l 1,7,-1
 475 973 l 1,8,-1
 793 973 l 1,9,-1
 865 1660 l 1,10,-1
 1160 1660 l 1,11,-1
 1088 965 l 1,12,-1
 1116 965 l 2,13,14
 1251 965 1251 965 1343 941.5 c 128,-1,15
 1435 918 1435 918 1497.5 863 c 128,-1,16
 1560 808 1560 808 1582 715 c 0,17,18
 1596 658 1596 658 1596 584 c 0,19,20
 1596 538 1596 538 1591 485 c 0,21,22
 1577 348 1577 348 1532 253 c 128,-1,23
 1487 158 1487 158 1411 103 c 128,-1,24
 1335 48 1335 48 1238 24 c 128,-1,25
 1141 0 1141 0 1010 0 c 2,0,-1
1008 203 m 1,26,-1
 1032 203 l 2,27,28
 1102 203 1102 203 1148 214.5 c 128,-1,29
 1194 226 1194 226 1230.5 257.5 c 128,-1,30
 1267 289 1267 289 1287 345 c 128,-1,31
 1307 401 1307 401 1316 489 c 0,32,33
 1319 521 1319 521 1319 548 c 0,34,35
 1318 646 1318 646 1280 694 c 0,36,37
 1230 756 1230 756 1086 757 c 2,38,-1
 1066 757 l 1,39,-1
 1008 203 l 1,26,-1
EndSplineSet
EndChar

StartChar: afii10060
Encoding: 1035 1035 307
Width: 1108
GlyphClass: 2
Flags: W
LayerCount: 2
UndoRedoHistory
Layer: 1
Undoes
EndUndoes
Redoes
EndRedoes
EndUndoRedoHistory
Fore
SplineSet
184 0 m 1,0,-1
 335 1440 l 1,1,-1
 110 1440 l 1,2,-1
 133 1658 l 1,3,-1
 896 1658 l 1,4,-1
 874 1440 l 1,5,-1
 626 1440 l 1,6,-1
 571 911 l 1,7,8
 582 917 582 917 603 927 c 128,-1,9
 624 937 624 937 685.5 953 c 128,-1,10
 747 969 747 969 807 969 c 0,11,12
 920 968 920 968 982 912 c 0,13,14
 1035 863 1035 863 1035 790 c 0,15,16
 1035 778 1035 778 1034 765 c 2,17,-1
 954 0 l 1,18,-1
 680 0 l 1,19,-1
 755 713 l 2,20,21
 756 723 756 723 756 732 c 0,22,23
 756 764 756 764 745 781 c 0,24,25
 731 803 731 803 684 803 c 0,26,27
 627 802 627 802 555 759 c 1,28,-1
 475 0 l 1,29,-1
 184 0 l 1,0,-1
EndSplineSet
EndChar

StartChar: afii10066
Encoding: 1073 1073 311
Width: 931
GlyphClass: 2
Flags: W
LayerCount: 2
UndoRedoHistory
Layer: 1
Undoes
EndUndoes
Redoes
EndRedoes
EndUndoRedoHistory
Fore
SplineSet
405 -18 m 0,0,1
 216 -18 216 -18 144 92 c 0,2,3
 89 175 89 175 88 321 c 0,4,5
 88 367 88 367 94 419 c 2,6,-1
 157 1028 l 2,7,8
 171 1160 171 1160 191.5 1254.5 c 128,-1,9
 212 1349 212 1349 235.5 1411.5 c 128,-1,10
 259 1474 259 1474 296.5 1516 c 128,-1,11
 334 1558 334 1558 371 1580.5 c 128,-1,12
 408 1603 408 1603 466 1620.5 c 128,-1,13
 524 1638 524 1638 577.5 1649 c 128,-1,14
 631 1660 631 1660 713.5 1682.5 c 128,-1,15
 796 1705 796 1705 871 1734 c 1,16,-1
 892 1519 l 1,17,18
 817 1486 817 1486 743.5 1467 c 128,-1,19
 670 1448 670 1448 629.5 1443 c 128,-1,20
 589 1438 589 1438 551.5 1426.5 c 128,-1,21
 514 1415 514 1415 494.5 1389.5 c 128,-1,22
 475 1364 475 1364 460.5 1311.5 c 128,-1,23
 446 1259 446 1259 436 1166 c 2,24,-1
 423 1053 l 1,25,26
 530 1110 530 1110 631 1110 c 0,27,28
 696 1110 696 1110 743.5 1088 c 128,-1,29
 791 1066 791 1066 824.5 1016 c 128,-1,30
 858 966 858 966 868 884 c 0,31,32
 873 844 873 844 872 796 c 0,33,34
 872 745 872 745 867 683 c 1,35,-1
 841 430 l 2,36,37
 827 296 827 296 789.5 205.5 c 128,-1,38
 752 115 752 115 692.5 67 c 128,-1,39
 633 19 633 19 564.5 0.5 c 128,-1,40
 496 -18 496 -18 405 -18 c 0,0,1
445 173 m 0,41,42
 503 173 503 173 529.5 220.5 c 128,-1,43
 556 268 556 268 570 396 c 2,44,-1
 608 756 l 2,45,46
 612 795 612 795 612 825 c 0,47,48
 612 870 612 870 603 894 c 0,49,50
 588 935 588 935 540 935 c 0,51,52
 474 935 474 935 409 851 c 1,53,-1
 363 418 l 1,54,55
 355 348 355 348 355 299.5 c 128,-1,56
 355 251 355 251 363 225 c 0,57,58
 379 173 379 173 445 173 c 0,41,42
EndSplineSet
EndChar

StartChar: afii10067
Encoding: 1074 1074 312
Width: 928
GlyphClass: 2
Flags: W
LayerCount: 2
UndoRedoHistory
Layer: 1
Undoes
EndUndoes
Redoes
EndRedoes
EndUndoRedoHistory
Fore
SplineSet
58 0 m 1,0,-1
 182 1184 l 1,1,-1
 554 1184 l 2,2,3
 658 1184 658 1184 728 1162 c 128,-1,4
 798 1140 798 1140 832.5 1099 c 0,5,6
 866 1058 866 1058 878 1009 c 0,7,8
 886 977 886 977 886 938 c 0,9,10
 886 918 886 918 884 896 c 0,11,12
 874 794 874 794 829 732.5 c 128,-1,13
 784 671 784 671 692 646 c 1,14,15
 798 622 798 622 834 543 c 0,16,17
 860 485 860 485 859 405 c 0,18,19
 859 376 859 376 856 344 c 1,20,21
 839 172 839 172 741.5 86 c 128,-1,22
 644 0 644 0 430 0 c 2,23,-1
 58 0 l 1,0,-1
347 182 m 1,24,-1
 407 182 l 2,25,26
 445 182 445 182 470 187 c 128,-1,27
 495 192 495 192 522.5 208 c 128,-1,28
 550 224 550 224 566 260 c 128,-1,29
 582 296 582 296 588 353 c 0,30,31
 591 383 591 383 591 407.5 c 128,-1,32
 591 432 591 432 589 450.5 c 128,-1,33
 587 469 587 469 581 483 c 128,-1,34
 575 497 575 497 569 506.5 c 128,-1,35
 563 516 563 516 552 522.5 c 128,-1,36
 541 529 541 529 532 532.5 c 128,-1,37
 523 536 523 536 507.5 537.5 c 128,-1,38
 492 539 492 539 481 539.5 c 128,-1,39
 470 540 470 540 452 540 c 2,40,-1
 385 540 l 1,41,-1
 347 182 l 1,24,-1
403 715 m 1,42,-1
 493 715 l 2,43,44
 556 715 556 715 589.5 750.5 c 128,-1,45
 623 786 623 786 631 868 c 0,46,47
 633 884 633 884 633 897 c 0,48,49
 633 950 633 950 608 978 c 0,50,51
 577 1012 577 1012 503 1011 c 2,52,-1
 434 1011 l 1,53,-1
 403 715 l 1,42,-1
EndSplineSet
EndChar

StartChar: afii10068
Encoding: 1075 1075 313
Width: 644
GlyphClass: 2
Flags: W
LayerCount: 2
UndoRedoHistory
Layer: 1
Undoes
EndUndoes
Redoes
EndRedoes
EndUndoRedoHistory
Fore
SplineSet
58 0 m 1,0,-1
 182 1184 l 1,1,-1
 708 1184 l 1,2,-1
 688 994 l 1,3,-1
 437 994 l 1,4,-1
 332 0 l 1,5,-1
 58 0 l 1,0,-1
EndSplineSet
EndChar

StartChar: afii10069
Encoding: 1076 1076 314
Width: 1111
GlyphClass: 2
Flags: W
LayerCount: 2
UndoRedoHistory
Layer: 1
Undoes
EndUndoes
Redoes
EndRedoes
EndUndoRedoHistory
Fore
SplineSet
-58 -312 m 1,0,-1
 -7 175 l 1,1,2
 65 220 65 220 121 280 c 128,-1,3
 177 340 177 340 227 431.5 c 128,-1,4
 277 523 277 523 312.5 656 c 128,-1,5
 348 789 348 789 369 963 c 1,6,-1
 405 1184 l 1,7,-1
 992 1184 l 1,8,-1
 887 183 l 1,9,-1
 1045 183 l 1,10,-1
 993 -312 l 1,11,-1
 796 -312 l 1,12,-1
 808 0 l 1,13,-1
 194 0 l 1,14,-1
 141 -312 l 1,15,-1
 -58 -312 l 1,0,-1
274 183 m 1,16,-1
 630 183 l 1,17,-1
 716 1002 l 1,18,-1
 594 1002 l 1,19,-1
 575 903 l 1,20,21
 559 763 559 763 534 651 c 128,-1,22
 509 539 509 539 481.5 465 c 128,-1,23
 454 391 454 391 417.5 334 c 128,-1,24
 381 277 381 277 348 244 c 128,-1,25
 315 211 315 211 274 183 c 1,16,-1
EndSplineSet
EndChar

StartChar: afii10072
Encoding: 1078 1078 317
Width: 1265
GlyphClass: 2
Flags: W
LayerCount: 2
UndoRedoHistory
Layer: 1
Undoes
EndUndoes
Redoes
EndRedoes
EndUndoRedoHistory
Fore
SplineSet
-40 0 m 1,0,-1
 291 600 l 1,1,-1
 101 1184 l 1,2,-1
 353 1184 l 1,3,-1
 513 616 l 1,4,-1
 531 616 l 1,5,-1
 591 1184 l 1,6,-1
 818 1184 l 1,7,-1
 758 616 l 1,8,-1
 777 616 l 1,9,-1
 1060 1184 l 1,10,-1
 1311 1184 l 1,11,-1
 995 600 l 1,12,-1
 1204 0 l 1,13,-1
 962 0 l 1,14,-1
 773 576 l 1,15,-1
 754 576 l 1,16,-1
 694 0 l 1,17,-1
 467 0 l 1,18,-1
 527 576 l 1,19,-1
 508 576 l 1,20,-1
 202 0 l 1,21,-1
 -40 0 l 1,0,-1
EndSplineSet
EndChar

StartChar: afii10073
Encoding: 1079 1079 318
Width: 829
GlyphClass: 2
Flags: W
LayerCount: 2
UndoRedoHistory
Layer: 1
Undoes
EndUndoes
Redoes
EndRedoes
EndUndoRedoHistory
Fore
SplineSet
365 -21 m 0,0,1
 268 -21 268 -21 203.5 6.5 c 128,-1,2
 139 34 139 34 106 85.5 c 0,3,4
 72 138 72 138 62 212 c 0,5,6
 57 247 57 247 58 285 c 0,7,8
 58 330 58 330 64 380 c 1,9,-1
 290 380 l 1,10,11
 287 347 287 347 287 319 c 0,12,13
 286 255 286 255 304 220 c 0,14,15
 330 170 330 170 391 170 c 0,16,17
 420 170 420 170 441.5 180 c 128,-1,18
 463 190 463 190 475.5 205.5 c 128,-1,19
 488 221 488 221 497 248.5 c 128,-1,20
 506 276 506 276 510.5 300 c 128,-1,21
 515 324 515 324 519 362 c 0,22,23
 521 382 521 382 521 400 c 0,24,25
 521 470 521 470 486 495 c 0,26,27
 442 526 442 526 305 526 c 1,28,-1
 323 696 l 1,29,30
 455 696 455 696 504.5 732 c 128,-1,31
 554 768 554 768 564 862 c 0,32,33
 566 879 566 879 566 893 c 0,34,35
 566 942 566 942 545 970 c 0,36,37
 518 1006 518 1006 464 1006 c 0,38,39
 402 1006 402 1006 369 967.5 c 128,-1,40
 336 929 336 929 325 827 c 1,41,-1
 99 827 l 1,42,43
 119 1018 119 1018 215.5 1110 c 128,-1,44
 312 1202 312 1202 497 1202 c 0,45,46
 568 1202 568 1202 624.5 1184.5 c 128,-1,47
 681 1167 681 1167 717.5 1137 c 128,-1,48
 754 1107 754 1107 776.5 1066 c 0,49,50
 798 1024 798 1024 806 978 c 0,51,52
 810 952 810 952 811 925 c 0,53,54
 811 903 811 903 808 880 c 0,55,56
 794 750 794 750 732 688.5 c 128,-1,57
 670 627 670 627 590 614 c 1,58,59
 606 609 606 609 617 606 c 128,-1,60
 628 603 628 603 643.5 597 c 128,-1,61
 659 591 659 591 669 584.5 c 128,-1,62
 679 578 679 578 692.5 568 c 128,-1,63
 706 558 706 558 714 546.5 c 128,-1,64
 722 535 722 535 731 519.5 c 128,-1,65
 740 504 740 504 745 484.5 c 128,-1,66
 750 465 750 465 753.5 441 c 128,-1,67
 757 417 757 417 756.5 387.5 c 128,-1,68
 756 358 756 358 752 324 c 0,69,70
 735 159 735 159 639 69 c 128,-1,71
 543 -21 543 -21 365 -21 c 0,0,1
EndSplineSet
EndChar

StartChar: afii10074
Encoding: 1080 1080 319
Width: 986
GlyphClass: 2
Flags: W
LayerCount: 2
UndoRedoHistory
Layer: 1
Undoes
EndUndoes
Redoes
EndRedoes
EndUndoRedoHistory
Fore
SplineSet
58 0 m 1,0,-1
 182 1184 l 1,1,-1
 406 1184 l 1,2,-1
 331 469 l 1,3,-1
 739 1184 l 1,4,-1
 953 1184 l 1,5,-1
 829 0 l 1,6,-1
 605 0 l 1,7,-1
 681 718 l 1,8,-1
 276 0 l 1,9,-1
 58 0 l 1,0,-1
EndSplineSet
EndChar

StartChar: afii10076
Encoding: 1082 1082 321
Width: 934
GlyphClass: 2
Flags: W
LayerCount: 2
UndoRedoHistory
Layer: 1
Undoes
EndUndoes
Redoes
EndRedoes
EndUndoRedoHistory
Fore
SplineSet
58 0 m 1,0,-1
 182 1184 l 1,1,-1
 456 1184 l 1,2,-1
 406 702 l 1,3,-1
 460 702 l 1,4,-1
 707 1184 l 1,5,-1
 996 1184 l 1,6,-1
 699 616 l 1,7,-1
 875 0 l 1,8,-1
 586 0 l 1,9,-1
 442 540 l 1,10,-1
 389 540 l 1,11,-1
 332 0 l 1,12,-1
 58 0 l 1,0,-1
EndSplineSet
EndChar

StartChar: afii10077
Encoding: 1083 1083 322
Width: 1065
GlyphClass: 2
Flags: W
LayerCount: 2
UndoRedoHistory
Layer: 1
Undoes
EndUndoes
Redoes
EndRedoes
EndUndoRedoHistory
Fore
SplineSet
-17 -7 m 1,0,-1
 4 190 l 1,1,2
 37 188 37 188 62.5 191.5 c 128,-1,3
 88 195 88 195 109.5 208.5 c 128,-1,4
 131 222 131 222 146 236 c 128,-1,5
 161 250 161 250 175.5 281.5 c 128,-1,6
 190 313 190 313 199 340.5 c 128,-1,7
 208 368 208 368 219 420.5 c 128,-1,8
 230 473 230 473 238 516 c 128,-1,9
 246 559 246 559 258 634 c 2,10,-1
 349 1184 l 1,11,-1
 1032 1184 l 1,12,-1
 908 0 l 1,13,-1
 634 0 l 1,14,-1
 738 986 l 1,15,-1
 565 986 l 1,16,-1
 505 621 l 2,17,18
 484 489 484 489 463 396.5 c 128,-1,19
 442 304 442 304 414.5 231 c 128,-1,20
 387 158 387 158 355.5 113.5 c 128,-1,21
 324 69 324 69 279 40 c 128,-1,22
 234 11 234 11 181 0 c 128,-1,23
 128 -11 128 -11 55 -11 c 0,24,25
 11 -11 11 -11 -17 -7 c 1,0,-1
EndSplineSet
EndChar

StartChar: afii10078
Encoding: 1084 1084 323
Width: 1136
GlyphClass: 2
Flags: W
LayerCount: 2
UndoRedoHistory
Layer: 1
Undoes
EndUndoes
Redoes
EndRedoes
EndUndoRedoHistory
Fore
SplineSet
53 0 m 1,0,-1
 187 1184 l 1,1,-1
 389 1184 l 1,2,-1
 574 533 l 1,3,-1
 895 1184 l 1,4,-1
 1097 1184 l 1,5,-1
 982 0 l 1,6,-1
 760 0 l 1,7,-1
 829 653 l 1,8,-1
 574 141 l 1,9,-1
 492 141 l 1,10,-1
 344 652 l 1,11,-1
 275 0 l 1,12,-1
 53 0 l 1,0,-1
EndSplineSet
EndChar

StartChar: afii10079
Encoding: 1085 1085 324
Width: 998
GlyphClass: 2
Flags: W
LayerCount: 2
UndoRedoHistory
Layer: 1
Undoes
EndUndoes
Redoes
EndRedoes
EndUndoRedoHistory
Fore
SplineSet
58 0 m 1,0,-1
 182 1184 l 1,1,-1
 456 1184 l 1,2,-1
 406 705 l 1,3,-1
 641 705 l 1,4,-1
 690 1184 l 1,5,-1
 964 1184 l 1,6,-1
 840 0 l 1,7,-1
 566 0 l 1,8,-1
 620 510 l 1,9,-1
 386 510 l 1,10,-1
 332 0 l 1,11,-1
 58 0 l 1,0,-1
EndSplineSet
EndChar

StartChar: afii10081
Encoding: 1087 1087 326
Width: 970
GlyphClass: 2
Flags: W
LayerCount: 2
UndoRedoHistory
Layer: 1
Undoes
EndUndoes
Redoes
EndRedoes
EndUndoRedoHistory
Fore
SplineSet
58 0 m 1,0,-1
 182 1184 l 1,1,-1
 936 1184 l 1,2,-1
 812 0 l 1,3,-1
 538 0 l 1,4,-1
 642 986 l 1,5,-1
 436 986 l 1,6,-1
 332 0 l 1,7,-1
 58 0 l 1,0,-1
EndSplineSet
EndChar

StartChar: afii10084
Encoding: 1090 1090 329
Width: 758
GlyphClass: 2
Flags: W
LayerCount: 2
UndoRedoHistory
Layer: 1
Undoes
EndUndoes
Redoes
EndRedoes
EndUndoRedoHistory
Fore
SplineSet
190 0 m 1,0,-1
 294 988 l 1,1,-1
 81 988 l 1,2,-1
 102 1184 l 1,3,-1
 805 1184 l 1,4,-1
 784 988 l 1,5,-1
 568 988 l 1,6,-1
 464 0 l 1,7,-1
 190 0 l 1,0,-1
EndSplineSet
EndChar

StartChar: afii10085
Encoding: 1091 1091 330
Width: 874
GlyphClass: 2
Flags: W
LayerCount: 2
UndoRedoHistory
Layer: 1
Undoes
EndUndoes
Redoes
EndRedoes
EndUndoRedoHistory
Fore
SplineSet
27 -331 m 1,0,-1
 39 -119 l 1,1,2
 82 -119 82 -119 111 -116.5 c 128,-1,3
 140 -114 140 -114 166 -109 c 128,-1,4
 192 -104 192 -104 206.5 -94 c 128,-1,5
 221 -84 221 -84 232.5 -69.5 c 128,-1,6
 244 -55 244 -55 247.5 -32.5 c 128,-1,7
 251 -10 251 -10 251 18.5 c 128,-1,8
 251 47 251 47 246 86 c 2,9,-1
 100 1184 l 1,10,-1
 346 1184 l 1,11,-1
 395 639 l 1,12,-1
 421 274 l 1,13,-1
 514 638 l 1,14,-1
 661 1184 l 1,15,-1
 916 1184 l 1,16,-1
 519 -5 l 2,17,18
 491 -89 491 -89 459 -145.5 c 128,-1,19
 427 -202 427 -202 388.5 -239 c 128,-1,20
 350 -276 350 -276 295 -296 c 128,-1,21
 240 -316 240 -316 178.5 -323.5 c 128,-1,22
 117 -331 117 -331 27 -331 c 1,0,-1
EndSplineSet
EndChar

StartChar: afii10086
Encoding: 1092 1092 331
Width: 1327
GlyphClass: 2
Flags: W
LayerCount: 2
UndoRedoHistory
Layer: 1
Undoes
EndUndoes
Redoes
EndRedoes
EndUndoRedoHistory
Fore
SplineSet
449 -376 m 1,0,-1
 494 45 l 1,1,-1
 472 45 l 2,2,3
 414 45 414 45 360.5 55.5 c 128,-1,4
 307 66 307 66 250.5 96.5 c 128,-1,5
 194 127 194 127 155.5 174.5 c 0,6,7
 118 222 118 222 98 303 c 0,8,9
 86 355 86 355 85 416 c 0,10,11
 85 451 85 451 89 489 c 2,12,-1
 116 748 l 2,13,14
 127 855 127 855 171.5 938 c 128,-1,15
 216 1021 216 1021 282.5 1070.5 c 128,-1,16
 349 1120 349 1120 426.5 1145.5 c 128,-1,17
 504 1171 504 1171 588 1171 c 2,18,-1
 612 1171 l 1,19,-1
 663 1658 l 1,20,-1
 909 1658 l 1,21,-1
 858 1171 l 1,22,-1
 891 1171 l 2,23,24
 975 1171 975 1171 1046.5 1146 c 128,-1,25
 1118 1121 1118 1121 1173 1071 c 128,-1,26
 1228 1021 1228 1021 1254 938 c 0,27,28
 1272 880 1272 880 1272 810 c 0,29,30
 1272 780 1272 780 1269 748 c 2,31,-1
 1242 489 l 2,32,33
 1231 384 1231 384 1194.5 303 c 128,-1,34
 1158 222 1158 222 1110 174.5 c 128,-1,35
 1062 127 1062 127 1000 96.5 c 128,-1,36
 938 66 938 66 883 55.5 c 128,-1,37
 828 45 828 45 770 45 c 2,38,-1
 740 45 l 1,39,-1
 695 -376 l 1,40,-1
 449 -376 l 1,0,-1
498 224 m 2,41,-1
 512 224 l 1,42,-1
 594 1004 l 1,43,-1
 577 1004 l 2,44,45
 394 1004 394 1004 370 780 c 2,46,-1
 339 482 l 2,47,48
 335 444 335 444 335 413 c 0,49,50
 335 328 335 328 364 284 c 0,51,52
 404 224 404 224 498 224 c 2,41,-1
759 224 m 1,53,-1
 771 224 l 2,54,55
 963 224 963 224 990 482 c 2,56,-1
 1021 780 l 2,57,58
 1024 805 1024 805 1024 828 c 0,59,60
 1024 1004 1024 1004 856 1004 c 2,61,-1
 841 1004 l 1,62,-1
 759 224 l 1,53,-1
EndSplineSet
EndChar

StartChar: afii10088
Encoding: 1094 1094 333
Width: 1074
GlyphClass: 2
Flags: W
LayerCount: 2
UndoRedoHistory
Layer: 1
Undoes
EndUndoes
Redoes
EndRedoes
EndUndoRedoHistory
Fore
SplineSet
769 -312 m 1,0,-1
 780 0 l 1,1,-1
 57 0 l 1,2,-1
 181 1184 l 1,3,-1
 456 1184 l 1,4,-1
 351 183 l 1,5,-1
 586 183 l 1,6,-1
 691 1184 l 1,7,-1
 965 1184 l 1,8,-1
 860 183 l 1,9,-1
 1018 183 l 1,10,-1
 966 -312 l 1,11,-1
 769 -312 l 1,0,-1
EndSplineSet
EndChar

StartChar: afii10089
Encoding: 1095 1095 334
Width: 947
GlyphClass: 2
Flags: W
LayerCount: 2
UndoRedoHistory
Layer: 1
Undoes
EndUndoes
Redoes
EndRedoes
EndUndoRedoHistory
Fore
SplineSet
516 0 m 1,0,-1
 565 469 l 1,1,2
 480 460 480 460 427 460 c 0,3,4
 250 460 250 460 170 529 c 0,5,6
 104 586 104 586 103 706 c 0,7,8
 103 731 103 731 106 759 c 2,9,-1
 151 1184 l 1,10,-1
 425 1184 l 1,11,-1
 381 765 l 2,12,13
 379 750 379 750 379 737 c 0,14,15
 379 692 379 692 399 668 c 0,16,17
 424 638 424 638 507 636 c 0,18,19
 536 636 536 636 583 641 c 1,20,-1
 640 1184 l 1,21,-1
 914 1184 l 1,22,-1
 790 0 l 1,23,-1
 516 0 l 1,0,-1
EndSplineSet
EndChar

StartChar: afii10090
Encoding: 1096 1096 335
Width: 1363
GlyphClass: 2
Flags: W
LayerCount: 2
UndoRedoHistory
Layer: 1
Undoes
EndUndoes
Redoes
EndRedoes
EndUndoRedoHistory
Fore
SplineSet
58 0 m 1,0,-1
 182 1184 l 1,1,-1
 443 1184 l 1,2,-1
 339 190 l 1,3,-1
 517 190 l 1,4,-1
 621 1184 l 1,5,-1
 882 1184 l 1,6,-1
 778 190 l 1,7,-1
 965 190 l 1,8,-1
 1068 1184 l 1,9,-1
 1329 1184 l 1,10,-1
 1205 0 l 1,11,-1
 58 0 l 1,0,-1
EndSplineSet
EndChar

StartChar: afii10091
Encoding: 1097 1097 336
Width: 1477
GlyphClass: 2
Flags: W
LayerCount: 2
UndoRedoHistory
Layer: 1
Undoes
EndUndoes
Redoes
EndRedoes
EndUndoRedoHistory
Fore
SplineSet
1134 -312 m 1,0,-1
 1145 0 l 1,1,-1
 58 0 l 1,2,-1
 182 1184 l 1,3,-1
 444 1184 l 1,4,-1
 339 183 l 1,5,-1
 516 183 l 1,6,-1
 621 1184 l 1,7,-1
 882 1184 l 1,8,-1
 778 183 l 1,9,-1
 963 183 l 1,10,-1
 1068 1184 l 1,11,-1
 1330 1184 l 1,12,-1
 1225 183 l 1,13,-1
 1383 183 l 1,14,-1
 1331 -312 l 1,15,-1
 1134 -312 l 1,0,-1
EndSplineSet
EndChar

StartChar: afii10092
Encoding: 1098 1098 337
Width: 1052
GlyphClass: 2
Flags: W
LayerCount: 2
UndoRedoHistory
Layer: 1
Undoes
EndUndoes
Redoes
EndRedoes
EndUndoRedoHistory
Fore
SplineSet
185 0 m 1,0,-1
 289 990 l 1,1,-1
 53 990 l 1,2,-1
 73 1184 l 1,3,-1
 583 1184 l 1,4,-1
 532 698 l 1,5,-1
 552 698 l 1,6,7
 655 697 655 697 726 688 c 128,-1,8
 797 679 797 679 854.5 656.5 c 128,-1,9
 912 634 912 634 943 595 c 128,-1,10
 974 556 974 556 986 495 c 0,11,12
 993 460 993 460 994 416 c 0,13,14
 994 384 994 384 990 348 c 0,15,16
 969 152 969 152 850.5 76 c 128,-1,17
 732 0 732 0 464 0 c 2,18,-1
 185 0 l 1,0,-1
476 158 m 1,19,-1
 480 158 l 1,20,21
 619 159 619 159 675 196 c 128,-1,22
 731 233 731 233 743 348 c 0,23,24
 745 370 745 370 745 388 c 0,25,26
 745 464 745 464 709 496 c 0,27,28
 664 534 664 534 526 537 c 1,29,-1
 515 537 l 1,30,-1
 476 158 l 1,19,-1
EndSplineSet
EndChar

StartChar: afii10093
Encoding: 1099 1099 338
Width: 1387
GlyphClass: 2
Flags: W
LayerCount: 2
UndoRedoHistory
Layer: 1
Undoes
EndUndoes
Redoes
EndRedoes
EndUndoRedoHistory
Fore
SplineSet
58 0 m 1,0,-1
 182 1184 l 1,1,-1
 456 1184 l 1,2,-1
 405 698 l 1,3,-1
 425 698 l 1,4,5
 528 697 528 697 599 688 c 128,-1,6
 670 679 670 679 727.5 656.5 c 128,-1,7
 785 634 785 634 816 595 c 0,8,9
 848 556 848 556 860 495 c 0,10,11
 867 460 867 460 867 416 c 0,12,13
 867 384 867 384 863 348 c 0,14,15
 842 152 842 152 723.5 76 c 128,-1,16
 605 0 605 0 337 0 c 2,17,-1
 58 0 l 1,0,-1
349 158 m 1,18,-1
 352 158 l 1,19,20
 492 159 492 159 548 196 c 128,-1,21
 604 233 604 233 616 348 c 0,22,23
 619 371 619 371 619 391 c 0,24,25
 618 466 618 466 582 496 c 0,26,27
 536 534 536 534 399 537 c 1,28,-1
 388 537 l 1,29,-1
 349 158 l 1,18,-1
956 0 m 1,30,-1
 1080 1184 l 1,31,-1
 1354 1184 l 1,32,-1
 1230 0 l 1,33,-1
 956 0 l 1,30,-1
EndSplineSet
EndChar

StartChar: afii10094
Encoding: 1100 1100 339
Width: 917
GlyphClass: 2
Flags: W
LayerCount: 2
UndoRedoHistory
Layer: 1
Undoes
EndUndoes
Redoes
EndRedoes
EndUndoRedoHistory
Fore
SplineSet
58 0 m 1,0,-1
 182 1184 l 1,1,-1
 456 1184 l 1,2,-1
 405 698 l 1,3,-1
 425 698 l 1,4,5
 528 697 528 697 599 688 c 128,-1,6
 670 679 670 679 727.5 656.5 c 128,-1,7
 785 634 785 634 816 595 c 0,8,9
 848 556 848 556 860 495 c 0,10,11
 867 460 867 460 867 416 c 0,12,13
 867 384 867 384 863 348 c 0,14,15
 842 152 842 152 723.5 76 c 128,-1,16
 605 0 605 0 337 0 c 2,17,-1
 58 0 l 1,0,-1
349 158 m 1,18,-1
 352 158 l 1,19,20
 492 159 492 159 548 196 c 128,-1,21
 604 233 604 233 616 348 c 0,22,23
 619 371 619 371 619 391 c 0,24,25
 618 466 618 466 582 496 c 0,26,27
 536 534 536 534 399 537 c 1,28,-1
 388 537 l 1,29,-1
 349 158 l 1,18,-1
EndSplineSet
EndChar

StartChar: afii10095
Encoding: 1101 1101 340
Width: 899
GlyphClass: 2
Flags: W
LayerCount: 2
UndoRedoHistory
Layer: 1
Undoes
EndUndoes
Redoes
EndRedoes
EndUndoRedoHistory
Fore
SplineSet
388 -18 m 0,0,1
 199 -18 199 -18 125 70 c 0,2,3
 66 140 66 140 66 274 c 0,4,5
 66 308 66 308 70 347 c 1,6,-1
 75 391 l 1,7,-1
 330 391 l 1,8,-1
 325 346 l 2,9,10
 321 313 321 313 321 287 c 0,11,12
 321 240 321 240 333 217 c 0,13,14
 351 180 351 180 406 180 c 0,15,16
 467 180 467 180 492.5 223.5 c 128,-1,17
 518 267 518 267 530 385 c 2,18,-1
 544 520 l 1,19,-1
 270 520 l 1,20,-1
 285 656 l 1,21,-1
 558 656 l 1,22,-1
 574 805 l 2,23,24
 579 851 579 851 579 886 c 0,25,26
 579 938 579 938 568 962 c 0,27,28
 550 1002 550 1002 492 1002 c 0,29,30
 435 1002 435 1002 410.5 963 c 128,-1,31
 386 924 386 924 378 843 c 2,32,-1
 371 772 l 1,33,-1
 115 772 l 1,34,-1
 122 831 l 1,35,36
 141 1016 141 1016 236 1109 c 128,-1,37
 331 1202 331 1202 516 1202 c 0,38,39
 718 1202 718 1202 792 1088 c 0,40,41
 849 1001 849 1001 849 855 c 0,42,43
 849 810 849 810 844 758 c 2,44,-1
 809 424 l 2,45,46
 786 207 786 207 688 94.5 c 128,-1,47
 590 -18 590 -18 388 -18 c 0,0,1
EndSplineSet
EndChar

StartChar: afii10096
Encoding: 1102 1102 341
Width: 1285
GlyphClass: 2
Flags: W
LayerCount: 2
UndoRedoHistory
Layer: 1
Undoes
EndUndoes
Redoes
EndRedoes
EndUndoRedoHistory
Fore
SplineSet
804 -18 m 0,0,1
 503 -18 503 -18 503 310 c 0,2,3
 503 352 503 352 508 399 c 1,4,-1
 519 501 l 1,5,-1
 364 502 l 1,6,-1
 311 0 l 1,7,-1
 58 0 l 1,8,-1
 182 1184 l 1,9,-1
 435 1184 l 1,10,-1
 383 687 l 1,11,-1
 539 687 l 1,12,-1
 549 785 l 2,13,14
 592 1202 592 1202 932 1202 c 0,15,16
 1108 1202 1108 1202 1180 1094 c 0,17,18
 1236 1011 1236 1011 1235 874 c 0,19,20
 1235 832 1235 832 1230 785 c 1,21,-1
 1190 399 l 1,22,23
 1145 -18 1145 -18 804 -18 c 0,0,1
826 181 m 0,24,25
 858 181 858 181 879.5 196.5 c 128,-1,26
 901 212 901 212 913 244.5 c 128,-1,27
 925 277 925 277 930.5 306.5 c 128,-1,28
 936 336 936 336 941 385 c 2,29,-1
 984 797 l 1,30,31
 988 852 988 852 990 898 c 0,32,33
 990 902 990 902 990 907 c 0,34,35
 990 948 990 948 973 974 c 0,36,37
 954 1004 954 1004 912 1003 c 0,38,39
 887 1003 887 1003 867.5 991 c 128,-1,40
 848 979 848 979 836.5 961.5 c 128,-1,41
 825 944 825 944 817 914.5 c 128,-1,42
 809 885 809 885 805 860 c 128,-1,43
 801 835 801 835 797 797 c 2,44,-1
 754 385 l 1,45,46
 750 332 750 332 748 286 c 0,47,48
 748 283 748 283 748 279 c 0,49,50
 748 238 748 238 766 210 c 0,51,52
 785 180 785 180 826 181 c 0,24,25
EndSplineSet
EndChar

StartChar: afii10097
Encoding: 1103 1103 342
Width: 960
GlyphClass: 2
Flags: W
LayerCount: 2
UndoRedoHistory
Layer: 1
Undoes
EndUndoes
Redoes
EndRedoes
EndUndoRedoHistory
Fore
SplineSet
-27 0 m 1,0,-1
 232 495 l 1,1,2
 108 551 108 551 108 745 c 0,3,4
 108 781 108 781 112 821 c 0,5,6
 131 1009 131 1009 248 1096 c 128,-1,7
 365 1183 365 1183 612 1184 c 1,8,-1
 926 1184 l 1,9,-1
 802 0 l 1,10,-1
 528 0 l 1,11,-1
 575 448 l 1,12,13
 528 448 528 448 482 451 c 1,14,-1
 267 0 l 1,15,-1
 -27 0 l 1,0,-1
578 606 m 1,16,-1
 592 606 l 1,17,-1
 636 1028 l 1,18,-1
 625 1028 l 2,19,20
 494 1028 494 1028 432.5 981 c 128,-1,21
 371 934 371 934 359 821 c 0,22,23
 357 800 357 800 357 781 c 0,24,25
 357 702 357 702 397 660 c 0,26,27
 447 608 447 608 578 606 c 1,16,-1
EndSplineSet
EndChar

StartChar: afii10098
Encoding: 1169 1169 343
Width: 699
GlyphClass: 2
Flags: W
LayerCount: 2
UndoRedoHistory
Layer: 1
Undoes
EndUndoes
Redoes
EndRedoes
EndUndoRedoHistory
Fore
SplineSet
67 0 m 1,0,-1
 191 1184 l 1,1,-1
 605 1184 l 1,2,-1
 628 1404 l 1,3,-1
 766 1404 l 1,4,-1
 724 1006 l 1,5,-1
 434 1006 l 1,6,-1
 329 0 l 1,7,-1
 67 0 l 1,0,-1
EndSplineSet
EndChar

StartChar: afii10099
Encoding: 1106 1106 344
Width: 989
GlyphClass: 2
Flags: W
LayerCount: 2
UndoRedoHistory
Layer: 1
Undoes
EndUndoes
Redoes
EndRedoes
EndUndoRedoHistory
Fore
SplineSet
309 -319 m 1,0,-1
 327 -157 l 1,1,-1
 354 -157 l 2,2,3
 420 -157 420 -157 458 -145 c 128,-1,4
 496 -133 496 -133 523 -94.5 c 128,-1,5
 550 -56 550 -56 563.5 4.5 c 128,-1,6
 577 65 577 65 588 174 c 2,7,-1
 644 709 l 1,8,9
 646 728 646 728 646 743 c 0,10,11
 646 775 646 775 636 794 c 0,12,13
 622 822 622 822 572 822 c 0,14,15
 559 822 559 822 542.5 819 c 128,-1,16
 526 816 526 816 512 812 c 128,-1,17
 498 808 498 808 483 803 c 128,-1,18
 468 798 468 798 458.5 793.5 c 128,-1,19
 449 789 449 789 440 785 c 128,-1,20
 431 781 431 781 430 781 c 2,21,-1
 348 0 l 1,22,-1
 74 0 l 1,23,-1
 204 1243 l 1,24,-1
 61 1243 l 1,25,-1
 76 1393 l 1,26,-1
 220 1393 l 1,27,-1
 248 1658 l 1,28,-1
 522 1658 l 1,29,-1
 494 1393 l 1,30,-1
 776 1393 l 1,31,-1
 761 1243 l 1,32,-1
 479 1243 l 1,33,-1
 445 929 l 1,34,35
 450 931 450 931 481 944.5 c 128,-1,36
 512 958 512 958 542 970 c 128,-1,37
 572 982 572 982 619 992.5 c 128,-1,38
 666 1003 666 1003 708 1003 c 0,39,40
 777 1003 777 1003 824 980 c 128,-1,41
 871 957 871 957 892.5 918 c 128,-1,42
 914 879 914 879 920 836 c 0,43,44
 924 812 924 812 924 785 c 0,45,46
 924 765 924 765 922 743 c 2,47,-1
 866 210 l 2,48,49
 854 97 854 97 838.5 19 c 128,-1,50
 823 -59 823 -59 796.5 -121 c 128,-1,51
 770 -183 770 -183 736 -219 c 128,-1,52
 702 -255 702 -255 648.5 -278.5 c 128,-1,53
 595 -302 595 -302 530.5 -310.5 c 128,-1,54
 466 -319 466 -319 373 -319 c 2,55,-1
 309 -319 l 1,0,-1
EndSplineSet
EndChar

StartChar: afii10101
Encoding: 1108 1108 346
Width: 867
GlyphClass: 2
Flags: W
LayerCount: 2
UndoRedoHistory
Layer: 1
Undoes
EndUndoes
Redoes
EndRedoes
EndUndoRedoHistory
Fore
SplineSet
409 -18 m 0,0,1
 207 -18 207 -18 133 95 c 0,2,3
 77 181 77 181 77 328 c 0,4,5
 77 374 77 374 82 425 c 2,6,-1
 117 759 l 2,7,8
 139 976 139 976 237 1089 c 128,-1,9
 335 1202 335 1202 537 1202 c 0,10,11
 726 1202 726 1202 800 1113 c 0,12,13
 859 1042 859 1042 859 909 c 0,14,15
 859 875 859 875 855 836 c 2,16,-1
 850 784 l 1,17,-1
 594 784 l 1,18,-1
 599 838 l 1,19,20
 603 871 603 871 603 898 c 0,21,22
 604 944 604 944 592 966 c 0,23,24
 574 1002 574 1002 519 1003 c 0,25,26
 458 1003 458 1003 432.5 959.5 c 128,-1,27
 407 916 407 916 395 799 c 2,28,-1
 382 678 l 1,29,-1
 664 678 l 1,30,-1
 649 526 l 1,31,-1
 367 526 l 1,32,-1
 351 379 l 2,33,34
 346 333 346 333 346 299 c 0,35,36
 346 246 346 246 358 222 c 0,37,38
 376 182 376 182 434 181 c 0,39,40
 491 181 491 181 515 220 c 128,-1,41
 539 259 539 259 547 340 c 2,42,-1
 555 417 l 1,43,-1
 811 417 l 1,44,-1
 804 352 l 2,45,46
 784 167 784 167 689 74.5 c 128,-1,47
 594 -18 594 -18 409 -18 c 0,0,1
EndSplineSet
EndChar

StartChar: afii10103
Encoding: 1110 1110 348
Width: 491
GlyphClass: 2
Flags: W
LayerCount: 2
UndoRedoHistory
Layer: 1
Undoes
EndUndoes
Redoes
EndRedoes
EndUndoRedoHistory
Fore
SplineSet
59 0 m 1,0,-1
 183 1184 l 1,1,-1
 457 1184 l 1,2,-1
 333 0 l 1,3,-1
 59 0 l 1,0,-1
203 1353 m 1,4,-1
 227 1589 l 1,5,-1
 502 1589 l 1,6,-1
 477 1353 l 1,7,-1
 203 1353 l 1,4,-1
EndSplineSet
EndChar

StartChar: afii10105
Encoding: 1112 1112 350
Width: 491
GlyphClass: 2
Flags: W
LayerCount: 2
UndoRedoHistory
Layer: 1
Undoes
EndUndoes
Redoes
EndRedoes
EndUndoRedoHistory
Fore
SplineSet
-115 -304 m 1,0,-1
 -94 -107 l 1,1,2
 -68 -114 -68 -114 -36 -114 c 0,3,4
 71 -114 71 -114 84 8 c 2,5,-1
 208 1184 l 1,6,-1
 482 1184 l 1,7,-1
 355 -23 l 2,8,9
 341 -163 341 -163 254 -243 c 128,-1,10
 167 -323 167 -323 25 -323 c 0,11,12
 -58 -323 -58 -323 -115 -304 c 1,0,-1
227 1370 m 1,13,-1
 252 1606 l 1,14,-1
 528 1606 l 1,15,-1
 503 1370 l 1,16,-1
 227 1370 l 1,13,-1
EndSplineSet
EndChar

StartChar: afii10106
Encoding: 1113 1113 351
Width: 1478
GlyphClass: 2
Flags: W
LayerCount: 2
UndoRedoHistory
Layer: 1
Undoes
EndUndoes
Redoes
EndRedoes
EndUndoRedoHistory
Fore
SplineSet
-17 -7 m 1,0,-1
 4 189 l 1,1,2
 37 188 37 188 62 191.5 c 128,-1,3
 87 195 87 195 108.5 208.5 c 128,-1,4
 130 222 130 222 145.5 237 c 128,-1,5
 161 252 161 252 175.5 284 c 128,-1,6
 190 316 190 316 200 347 c 128,-1,7
 210 378 210 378 222 433.5 c 128,-1,8
 234 489 234 489 243 539.5 c 128,-1,9
 252 590 252 590 266 673 c 2,10,-1
 349 1184 l 1,11,-1
 1032 1184 l 1,12,-1
 981 697 l 1,13,-1
 1002 697 l 2,14,15
 1122 697 1122 697 1199.5 681.5 c 128,-1,16
 1277 666 1277 666 1330.5 627.5 c 0,17,18
 1384 588 1384 588 1402 520 c 0,19,20
 1414 477 1414 477 1414 421 c 0,21,22
 1414 387 1414 387 1410 348 c 0,23,24
 1390 157 1390 157 1277 80 c 128,-1,25
 1164 3 1164 3 912 0 c 1,26,-1
 634 0 l 1,27,-1
 738 986 l 1,28,-1
 565 986 l 1,29,-1
 506 624 l 2,30,31
 483 483 483 483 460 383 c 128,-1,32
 437 283 437 283 406 210.5 c 128,-1,33
 375 138 375 138 342 95 c 128,-1,34
 309 52 309 52 260.5 27 c 128,-1,35
 212 2 212 2 160 -6 c 0,36,37
 119 -12 119 -12 64 -11 c 0,38,39
 49 -11 49 -11 33 -11 c 0,40,41
 31 -11 31 -11 10.5 -9.5 c 128,-1,42
 -10 -8 -10 -8 -17 -7 c 1,0,-1
925 158 m 1,43,-1
 931 158 l 1,44,45
 1050 159 1050 159 1100.5 199 c 128,-1,46
 1151 239 1151 239 1163 348 c 0,47,48
 1165 371 1165 371 1165 390 c 0,49,50
 1165 464 1165 464 1133 496 c 0,51,52
 1092 536 1092 536 970 536 c 2,53,-1
 964 536 l 1,54,-1
 925 158 l 1,43,-1
EndSplineSet
EndChar

StartChar: afii10107
Encoding: 1114 1114 352
Width: 1376
GlyphClass: 2
Flags: W
LayerCount: 2
UndoRedoHistory
Layer: 1
Undoes
EndUndoes
Redoes
EndRedoes
EndUndoRedoHistory
Fore
SplineSet
58 0 m 1,0,-1
 182 1184 l 1,1,-1
 456 1184 l 1,2,-1
 406 706 l 1,3,-1
 614 706 l 1,4,-1
 664 1185 l 1,5,-1
 938 1185 l 1,6,-1
 887 698 l 1,7,-1
 908 698 l 1,8,9
 1029 696 1029 696 1105.5 680 c 128,-1,10
 1182 664 1182 664 1236 626 c 128,-1,11
 1290 588 1290 588 1308 520 c 0,12,13
 1320 476 1320 476 1321 417 c 0,14,15
 1321 385 1321 385 1317 349 c 1,16,17
 1296 157 1296 157 1182 80 c 128,-1,18
 1068 3 1068 3 814 1 c 1,19,-1
 540 1 l 1,20,-1
 593 502 l 1,21,-1
 385 502 l 1,22,-1
 332 0 l 1,23,-1
 58 0 l 1,0,-1
831 159 m 1,24,25
 838 159 838 159 841 160 c 0,26,27
 959 163 959 163 1008 202 c 128,-1,28
 1057 241 1057 241 1069 349 c 0,29,30
 1071 372 1071 372 1071 391 c 0,31,32
 1070 460 1070 460 1040 492 c 0,33,34
 1000 532 1000 532 882 536 c 0,35,36
 880 536 880 536 876 536.5 c 128,-1,37
 872 537 872 537 870 537 c 1,38,-1
 831 159 l 1,24,25
EndSplineSet
EndChar

StartChar: afii10108
Encoding: 1115 1115 353
Width: 994
GlyphClass: 2
Flags: W
LayerCount: 2
UndoRedoHistory
Layer: 1
Undoes
EndUndoes
Redoes
EndRedoes
EndUndoRedoHistory
Fore
SplineSet
74 0 m 1,0,-1
 204 1243 l 1,1,-1
 61 1243 l 1,2,-1
 76 1393 l 1,3,-1
 220 1393 l 1,4,-1
 248 1658 l 1,5,-1
 522 1658 l 1,6,-1
 494 1393 l 1,7,-1
 776 1393 l 1,8,-1
 761 1243 l 1,9,-1
 479 1243 l 1,10,-1
 445 929 l 1,11,12
 450 931 450 931 481 944.5 c 128,-1,13
 512 958 512 958 542 970 c 128,-1,14
 572 982 572 982 619 992.5 c 128,-1,15
 666 1003 666 1003 708 1003 c 0,16,17
 777 1003 777 1003 824 980 c 128,-1,18
 871 957 871 957 892.5 918 c 128,-1,19
 914 879 914 879 920 836 c 0,20,21
 924 812 924 812 924 785 c 0,22,23
 924 765 924 765 922 743 c 2,24,-1
 844 0 l 1,25,-1
 570 0 l 1,26,-1
 644 709 l 1,27,28
 646 728 646 728 646 743 c 0,29,30
 646 775 646 775 636 794 c 0,31,32
 622 822 622 822 572 822 c 0,33,34
 532 822 532 822 430 781 c 1,35,-1
 348 0 l 1,36,-1
 74 0 l 1,0,-1
EndSplineSet
EndChar

StartChar: afii10145
Encoding: 1039 1039 356
Width: 1168
GlyphClass: 2
Flags: W
LayerCount: 2
UndoRedoHistory
Layer: 1
Undoes
EndUndoes
Redoes
EndRedoes
EndUndoRedoHistory
Fore
SplineSet
395 -326 m 1,0,-1
 414 0 l 1,1,-1
 74 0 l 1,2,-1
 248 1658 l 1,3,-1
 544 1658 l 1,4,-1
 393 217 l 1,5,-1
 721 217 l 1,6,-1
 872 1658 l 1,7,-1
 1168 1658 l 1,8,-1
 994 0 l 1,9,-1
 661 0 l 1,10,-1
 612 -326 l 1,11,-1
 395 -326 l 1,0,-1
EndSplineSet
EndChar

StartChar: afii10193
Encoding: 1119 1119 357
Width: 978
GlyphClass: 2
Flags: W
LayerCount: 2
UndoRedoHistory
Layer: 1
Undoes
EndUndoes
Redoes
EndRedoes
EndUndoRedoHistory
Fore
SplineSet
319 -312 m 1,0,-1
 331 0 l 1,1,-1
 58 0 l 1,2,-1
 182 1184 l 1,3,-1
 456 1184 l 1,4,-1
 351 183 l 1,5,-1
 566 183 l 1,6,-1
 670 1184 l 1,7,-1
 944 1184 l 1,8,-1
 820 0 l 1,9,-1
 556 0 l 1,10,-1
 509 -312 l 1,11,-1
 319 -312 l 1,0,-1
EndSplineSet
EndChar

StartChar: afii61289
Encoding: 8467 8467 358
Width: 1112
GlyphClass: 2
Flags: W
LayerCount: 2
UndoRedoHistory
Layer: 1
Undoes
EndUndoes
Redoes
EndRedoes
EndUndoRedoHistory
Fore
SplineSet
849 148 m 1,0,1
 789 86 789 86 720 44 c 128,-1,2
 651 2 651 2 588 -12 c 0,3,4
 552 -20 552 -20 519 -21 c 0,5,6
 494 -21 494 -21 470 -16 c 0,7,8
 415 -5 415 -5 382 38.5 c 128,-1,9
 349 82 349 82 340 157 c 0,10,11
 338 174 338 174 338 194 c 0,12,13
 338 258 338 258 361 345 c 1,14,-1
 401 505 l 1,15,-1
 223 299 l 1,16,-1
 144 389 l 1,17,-1
 470 773 l 1,18,-1
 688 1636 l 2,19,20
 725 1781 725 1781 845 1862 c 0,21,22
 929 1919 929 1919 1013 1919 c 0,23,24
 1031 1919 1031 1919 1050 1916 c 0,25,26
 1151 1901 1151 1901 1189 1810 c 0,27,28
 1208 1765 1208 1765 1208 1710 c 0,29,30
 1208 1582 1208 1582 1110 1396 c 0,31,32
 1002 1190 1002 1190 782 938 c 2,33,-1
 629 763 l 1,34,-1
 517 338 l 1,35,36
 500 265 500 265 500 217 c 0,37,38
 500 173 500 173 514 149 c 0,39,40
 533 117 533 117 571 117 c 0,41,42
 592 116 592 116 618 126 c 0,43,44
 692 154 692 154 779 246 c 1,45,-1
 849 148 l 1,0,1
705 1048 m 1,46,47
 754 1110 754 1110 795 1165 c 0,48,49
 1040 1493 1040 1493 1040 1665 c 0,50,51
 1040 1741 1040 1741 992 1754 c 0,52,53
 983 1757 983 1757 974 1757 c 0,54,-1
 906 1721 l 0,55,56
 874 1688 874 1688 860 1637 c 2,57,-1
 705 1048 l 1,46,47
EndSplineSet
EndChar

